<ttFont>
    <TTGlyph name=".notdef" xMin="43" yMin="45" xMax="328" yMax="428">
      <contour>
        <pt x="43" y="68" on="0"/>
        <pt x="43" y="98" on="0"/>
        <pt x="50" y="106" on="1"/>
        <pt x="136" y="236" on="1"/>
        <pt x="50" y="366" on="1"/>
        <pt x="43" y="375" on="0"/>
        <pt x="43" y="389" on="1"/>
        <pt x="43" y="405" on="0"/>
        <pt x="69" y="428" on="0"/>
        <pt x="86" y="428" on="1"/>
        <pt x="106" y="428" on="0"/>
        <pt x="118" y="411" on="1"/>
        <pt x="185" y="301" on="1"/>
        <pt x="252" y="411" on="1"/>
        <pt x="264" y="428" on="0"/>
        <pt x="284" y="428" on="1"/>
        <pt x="301" y="428" on="0"/>
        <pt x="328" y="405" on="0"/>
        <pt x="328" y="389" on="1"/>
        <pt x="328" y="377" on="0"/>
        <pt x="320" y="366" on="1"/>
        <pt x="234" y="236" on="1"/>
        <pt x="320" y="106" on="1"/>
        <pt x="327" y="98" on="0"/>
        <pt x="327" y="83" on="1"/>
        <pt x="327" y="67" on="0"/>
        <pt x="300" y="45" on="0"/>
        <pt x="283" y="45" on="1"/>
        <pt x="263" y="45" on="0"/>
        <pt x="252" y="62" on="1"/>
        <pt x="185" y="170" on="1"/>
        <pt x="118" y="62" on="1"/>
        <pt x="107" y="45" on="0"/>
        <pt x="86" y="45" on="1"/>
        <pt x="69" y="45" on="0"/>
      </contour>
    </TTGlyph>
    <TTGlyph name="A" xMin="14" yMin="0" xMax="549" yMax="737">
      <contour>
        <pt x="14" y="44" on="1"/>
        <pt x="14" y="50" on="0"/>
        <pt x="15" y="53" on="1"/>
        <pt x="214" y="701" on="1"/>
        <pt x="226" y="737" on="0"/>
        <pt x="281" y="737" on="1"/>
        <pt x="337" y="737" on="0"/>
        <pt x="349" y="701" on="1"/>
        <pt x="547" y="53" on="1"/>
        <pt x="549" y="47" on="0"/>
        <pt x="549" y="44" on="1"/>
        <pt x="549" y="26" on="0"/>
        <pt x="506" y="0" on="0"/>
        <pt x="482" y="0" on="1"/>
        <pt x="453" y="0" on="0"/>
        <pt x="446" y="22" on="1"/>
        <pt x="405" y="164" on="1"/>
        <pt x="158" y="164" on="1"/>
        <pt x="117" y="22" on="1"/>
        <pt x="110" y="0" on="0"/>
        <pt x="80" y="0" on="1"/>
        <pt x="56" y="0" on="0"/>
        <pt x="14" y="26" on="0"/>
      </contour>
      <contour>
        <pt x="181" y="249" on="1"/>
        <pt x="381" y="249" on="1"/>
        <pt x="281" y="592" on="1"/>
      </contour>
    </TTGlyph>
    <TTGlyph name="AE" xMin="63" yMin="0" xMax="741" yMax="731">
      <contour>
        <pt x="63" y="40" on="1"/>
        <pt x="63" y="508" on="1"/>
        <pt x="63" y="623" on="0"/>
        <pt x="184" y="731" on="0"/>
        <pt x="283" y="731" on="1"/>
        <pt x="706" y="731" on="1"/>
        <pt x="723" y="731" on="0"/>
        <pt x="741" y="703" on="0"/>
        <pt x="741" y="685" on="1"/>
        <pt x="741" y="665" on="0"/>
        <pt x="722" y="637" on="0"/>
        <pt x="706" y="637" on="1"/>
        <pt x="476" y="637" on="1"/>
        <pt x="476" y="408" on="1"/>
        <pt x="605" y="408" on="1"/>
        <pt x="621" y="408" on="0"/>
        <pt x="640" y="383" on="0"/>
        <pt x="640" y="365" on="1"/>
        <pt x="640" y="349" on="0"/>
        <pt x="622" y="324" on="0"/>
        <pt x="605" y="324" on="1"/>
        <pt x="476" y="324" on="1"/>
        <pt x="476" y="94" on="1"/>
        <pt x="706" y="94" on="1"/>
        <pt x="722" y="94" on="0"/>
        <pt x="741" y="66" on="0"/>
        <pt x="741" y="46" on="1"/>
        <pt x="741" y="28" on="0"/>
        <pt x="723" y="0" on="0"/>
        <pt x="706" y="0" on="1"/>
        <pt x="417" y="0" on="1"/>
        <pt x="398" y="0" on="0"/>
        <pt x="370" y="19" on="0"/>
        <pt x="370" y="35" on="1"/>
        <pt x="370" y="324" on="1"/>
        <pt x="163" y="324" on="1"/>
        <pt x="163" y="40" on="1"/>
        <pt x="163" y="20" on="0"/>
        <pt x="142" y="0" on="0"/>
        <pt x="110" y="0" on="1"/>
        <pt x="63" y="0" on="0"/>
      </contour>
      <contour>
        <pt x="163" y="408" on="1"/>
        <pt x="370" y="408" on="1"/>
        <pt x="370" y="637" on="1"/>
        <pt x="283" y="637" on="1"/>
        <pt x="163" y="637" on="0"/>
        <pt x="163" y="508" on="1"/>
      </contour>
    </TTGlyph>
    <TTGlyph name="AEacute" xMin="63" yMin="0" xMax="741" yMax="954">
      <contour>
        <pt x="63" y="40" on="1"/>
        <pt x="63" y="508" on="1"/>
        <pt x="63" y="623" on="0"/>
        <pt x="184" y="731" on="0"/>
        <pt x="283" y="731" on="1"/>
        <pt x="706" y="731" on="1"/>
        <pt x="723" y="731" on="0"/>
        <pt x="741" y="703" on="0"/>
        <pt x="741" y="685" on="1"/>
        <pt x="741" y="665" on="0"/>
        <pt x="722" y="637" on="0"/>
        <pt x="706" y="637" on="1"/>
        <pt x="476" y="637" on="1"/>
        <pt x="476" y="408" on="1"/>
        <pt x="605" y="408" on="1"/>
        <pt x="621" y="408" on="0"/>
        <pt x="640" y="383" on="0"/>
        <pt x="640" y="365" on="1"/>
        <pt x="640" y="349" on="0"/>
        <pt x="622" y="324" on="0"/>
        <pt x="605" y="324" on="1"/>
        <pt x="476" y="324" on="1"/>
        <pt x="476" y="94" on="1"/>
        <pt x="706" y="94" on="1"/>
        <pt x="722" y="94" on="0"/>
        <pt x="741" y="66" on="0"/>
        <pt x="741" y="46" on="1"/>
        <pt x="741" y="28" on="0"/>
        <pt x="723" y="0" on="0"/>
        <pt x="706" y="0" on="1"/>
        <pt x="417" y="0" on="1"/>
        <pt x="398" y="0" on="0"/>
        <pt x="370" y="19" on="0"/>
        <pt x="370" y="35" on="1"/>
        <pt x="370" y="324" on="1"/>
        <pt x="163" y="324" on="1"/>
        <pt x="163" y="40" on="1"/>
        <pt x="163" y="20" on="0"/>
        <pt x="142" y="0" on="0"/>
        <pt x="110" y="0" on="1"/>
        <pt x="63" y="0" on="0"/>
      </contour>
      <contour>
        <pt x="163" y="408" on="1"/>
        <pt x="370" y="408" on="1"/>
        <pt x="370" y="637" on="1"/>
        <pt x="283" y="637" on="1"/>
        <pt x="163" y="637" on="0"/>
        <pt x="163" y="508" on="1"/>
      </contour>
      <contour>
        <pt x="341" y="863" on="1"/>
        <pt x="341" y="881" on="0"/>
        <pt x="356" y="889" on="1"/>
        <pt x="480" y="952" on="1"/>
        <pt x="488" y="954" on="0"/>
        <pt x="491" y="954" on="1"/>
        <pt x="505" y="954" on="0"/>
        <pt x="525" y="928" on="0"/>
        <pt x="525" y="913" on="1"/>
        <pt x="525" y="893" on="0"/>
        <pt x="509" y="886" on="1"/>
        <pt x="388" y="825" on="1"/>
        <pt x="382" y="822" on="0"/>
        <pt x="376" y="822" on="1"/>
        <pt x="362" y="822" on="0"/>
        <pt x="341" y="848" on="0"/>
      </contour>
    </TTGlyph>
    <TTGlyph name="Aacute" xMin="14" yMin="0" xMax="549" yMax="956">
      <contour>
        <pt x="14" y="44" on="1"/>
        <pt x="14" y="50" on="0"/>
        <pt x="15" y="53" on="1"/>
        <pt x="214" y="701" on="1"/>
        <pt x="226" y="737" on="0"/>
        <pt x="281" y="737" on="1"/>
        <pt x="337" y="737" on="0"/>
        <pt x="349" y="701" on="1"/>
        <pt x="547" y="53" on="1"/>
        <pt x="549" y="47" on="0"/>
        <pt x="549" y="44" on="1"/>
        <pt x="549" y="26" on="0"/>
        <pt x="506" y="0" on="0"/>
        <pt x="482" y="0" on="1"/>
        <pt x="453" y="0" on="0"/>
        <pt x="446" y="22" on="1"/>
        <pt x="405" y="164" on="1"/>
        <pt x="158" y="164" on="1"/>
        <pt x="117" y="22" on="1"/>
        <pt x="110" y="0" on="0"/>
        <pt x="80" y="0" on="1"/>
        <pt x="56" y="0" on="0"/>
        <pt x="14" y="26" on="0"/>
      </contour>
      <contour>
        <pt x="181" y="249" on="1"/>
        <pt x="381" y="249" on="1"/>
        <pt x="281" y="592" on="1"/>
      </contour>
      <contour>
        <pt x="210" y="865" on="1"/>
        <pt x="210" y="883" on="0"/>
        <pt x="225" y="891" on="1"/>
        <pt x="349" y="954" on="1"/>
        <pt x="357" y="956" on="0"/>
        <pt x="360" y="956" on="1"/>
        <pt x="374" y="956" on="0"/>
        <pt x="394" y="930" on="0"/>
        <pt x="394" y="915" on="1"/>
        <pt x="394" y="895" on="0"/>
        <pt x="378" y="888" on="1"/>
        <pt x="257" y="827" on="1"/>
        <pt x="251" y="824" on="0"/>
        <pt x="245" y="824" on="1"/>
        <pt x="231" y="824" on="0"/>
        <pt x="210" y="850" on="0"/>
      </contour>
    </TTGlyph>
    <TTGlyph name="Abreve" xMin="14" yMin="0" xMax="549" yMax="965">
      <contour>
        <pt x="14" y="44" on="1"/>
        <pt x="14" y="50" on="0"/>
        <pt x="15" y="53" on="1"/>
        <pt x="214" y="701" on="1"/>
        <pt x="226" y="737" on="0"/>
        <pt x="281" y="737" on="1"/>
        <pt x="337" y="737" on="0"/>
        <pt x="349" y="701" on="1"/>
        <pt x="547" y="53" on="1"/>
        <pt x="549" y="47" on="0"/>
        <pt x="549" y="44" on="1"/>
        <pt x="549" y="26" on="0"/>
        <pt x="506" y="0" on="0"/>
        <pt x="482" y="0" on="1"/>
        <pt x="453" y="0" on="0"/>
        <pt x="446" y="22" on="1"/>
        <pt x="405" y="164" on="1"/>
        <pt x="158" y="164" on="1"/>
        <pt x="117" y="22" on="1"/>
        <pt x="110" y="0" on="0"/>
        <pt x="80" y="0" on="1"/>
        <pt x="56" y="0" on="0"/>
        <pt x="14" y="26" on="0"/>
      </contour>
      <contour>
        <pt x="154" y="965" on="1"/>
        <pt x="214" y="965" on="1"/>
        <pt x="214" y="933" on="0"/>
        <pt x="255" y="888" on="0"/>
        <pt x="307" y="888" on="0"/>
        <pt x="347" y="933" on="0"/>
        <pt x="347" y="965" on="1"/>
        <pt x="408" y="965" on="1"/>
        <pt x="408" y="915" on="0"/>
        <pt x="330" y="839" on="0"/>
        <pt x="281" y="839" on="1"/>
        <pt x="231" y="839" on="0"/>
        <pt x="154" y="914" on="0"/>
      </contour>
      <contour>
        <pt x="181" y="249" on="1"/>
        <pt x="381" y="249" on="1"/>
        <pt x="281" y="592" on="1"/>
      </contour>
    </TTGlyph>
    <TTGlyph name="Acircumflex" xMin="14" yMin="0" xMax="549" yMax="956">
      <contour>
        <pt x="14" y="44" on="1"/>
        <pt x="14" y="50" on="0"/>
        <pt x="15" y="53" on="1"/>
        <pt x="214" y="701" on="1"/>
        <pt x="226" y="737" on="0"/>
        <pt x="281" y="737" on="1"/>
        <pt x="337" y="737" on="0"/>
        <pt x="349" y="701" on="1"/>
        <pt x="547" y="53" on="1"/>
        <pt x="549" y="47" on="0"/>
        <pt x="549" y="44" on="1"/>
        <pt x="549" y="26" on="0"/>
        <pt x="506" y="0" on="0"/>
        <pt x="482" y="0" on="1"/>
        <pt x="453" y="0" on="0"/>
        <pt x="446" y="22" on="1"/>
        <pt x="405" y="164" on="1"/>
        <pt x="158" y="164" on="1"/>
        <pt x="117" y="22" on="1"/>
        <pt x="110" y="0" on="0"/>
        <pt x="80" y="0" on="1"/>
        <pt x="56" y="0" on="0"/>
        <pt x="14" y="26" on="0"/>
      </contour>
      <contour>
        <pt x="141" y="864" on="1"/>
        <pt x="141" y="885" on="0"/>
        <pt x="159" y="895" on="1"/>
        <pt x="263" y="951" on="1"/>
        <pt x="273" y="956" on="0"/>
        <pt x="280" y="956" on="1"/>
        <pt x="289" y="956" on="0"/>
        <pt x="297" y="951" on="1"/>
        <pt x="401" y="896" on="1"/>
        <pt x="420" y="884" on="0"/>
        <pt x="420" y="863" on="1"/>
        <pt x="420" y="850" on="0"/>
        <pt x="405" y="829" on="0"/>
        <pt x="394" y="829" on="1"/>
        <pt x="392" y="829" on="0"/>
        <pt x="388" y="830" on="1"/>
        <pt x="386" y="832" on="0"/>
        <pt x="384" y="832" on="1"/>
        <pt x="280" y="888" on="1"/>
        <pt x="176" y="832" on="1"/>
        <pt x="172" y="829" on="0"/>
        <pt x="167" y="829" on="1"/>
        <pt x="156" y="829" on="0"/>
        <pt x="141" y="850" on="0"/>
      </contour>
      <contour>
        <pt x="181" y="249" on="1"/>
        <pt x="381" y="249" on="1"/>
        <pt x="281" y="592" on="1"/>
      </contour>
    </TTGlyph>
    <TTGlyph name="Adieresis" xMin="14" yMin="0" xMax="549" yMax="923">
      <contour>
        <pt x="14" y="44" on="1"/>
        <pt x="14" y="50" on="0"/>
        <pt x="15" y="53" on="1"/>
        <pt x="214" y="701" on="1"/>
        <pt x="226" y="737" on="0"/>
        <pt x="281" y="737" on="1"/>
        <pt x="337" y="737" on="0"/>
        <pt x="349" y="701" on="1"/>
        <pt x="547" y="53" on="1"/>
        <pt x="549" y="47" on="0"/>
        <pt x="549" y="44" on="1"/>
        <pt x="549" y="26" on="0"/>
        <pt x="506" y="0" on="0"/>
        <pt x="482" y="0" on="1"/>
        <pt x="453" y="0" on="0"/>
        <pt x="446" y="22" on="1"/>
        <pt x="405" y="164" on="1"/>
        <pt x="158" y="164" on="1"/>
        <pt x="117" y="22" on="1"/>
        <pt x="110" y="0" on="0"/>
        <pt x="80" y="0" on="1"/>
        <pt x="56" y="0" on="0"/>
        <pt x="14" y="26" on="0"/>
      </contour>
      <contour>
        <pt x="166" y="858" on="0"/>
        <pt x="166" y="896" on="0"/>
        <pt x="193" y="923" on="0"/>
        <pt x="231" y="923" on="0"/>
        <pt x="256" y="896" on="0"/>
        <pt x="256" y="858" on="0"/>
        <pt x="230" y="830" on="0"/>
        <pt x="212" y="830" on="1"/>
        <pt x="193" y="830" on="0"/>
      </contour>
      <contour>
        <pt x="181" y="249" on="1"/>
        <pt x="381" y="249" on="1"/>
        <pt x="281" y="592" on="1"/>
      </contour>
      <contour>
        <pt x="306" y="858" on="0"/>
        <pt x="306" y="896" on="0"/>
        <pt x="332" y="923" on="0"/>
        <pt x="370" y="923" on="0"/>
        <pt x="396" y="896" on="0"/>
        <pt x="396" y="858" on="0"/>
        <pt x="370" y="830" on="0"/>
        <pt x="332" y="830" on="0"/>
      </contour>
    </TTGlyph>
    <TTGlyph name="Agrave" xMin="14" yMin="0" xMax="549" yMax="956">
      <contour>
        <pt x="14" y="44" on="1"/>
        <pt x="14" y="50" on="0"/>
        <pt x="15" y="53" on="1"/>
        <pt x="214" y="701" on="1"/>
        <pt x="226" y="737" on="0"/>
        <pt x="281" y="737" on="1"/>
        <pt x="337" y="737" on="0"/>
        <pt x="349" y="701" on="1"/>
        <pt x="547" y="53" on="1"/>
        <pt x="549" y="47" on="0"/>
        <pt x="549" y="44" on="1"/>
        <pt x="549" y="26" on="0"/>
        <pt x="506" y="0" on="0"/>
        <pt x="482" y="0" on="1"/>
        <pt x="453" y="0" on="0"/>
        <pt x="446" y="22" on="1"/>
        <pt x="405" y="164" on="1"/>
        <pt x="158" y="164" on="1"/>
        <pt x="117" y="22" on="1"/>
        <pt x="110" y="0" on="0"/>
        <pt x="80" y="0" on="1"/>
        <pt x="56" y="0" on="0"/>
        <pt x="14" y="26" on="0"/>
      </contour>
      <contour>
        <pt x="178" y="915" on="1"/>
        <pt x="178" y="930" on="0"/>
        <pt x="198" y="956" on="0"/>
        <pt x="212" y="956" on="1"/>
        <pt x="215" y="956" on="0"/>
        <pt x="223" y="954" on="1"/>
        <pt x="347" y="891" on="1"/>
        <pt x="362" y="883" on="0"/>
        <pt x="362" y="865" on="1"/>
        <pt x="362" y="850" on="0"/>
        <pt x="342" y="824" on="0"/>
        <pt x="328" y="824" on="1"/>
        <pt x="321" y="824" on="0"/>
        <pt x="315" y="827" on="1"/>
        <pt x="194" y="888" on="1"/>
        <pt x="178" y="895" on="0"/>
      </contour>
      <contour>
        <pt x="181" y="249" on="1"/>
        <pt x="381" y="249" on="1"/>
        <pt x="281" y="592" on="1"/>
      </contour>
    </TTGlyph>
    <TTGlyph name="Amacron" xMin="14" yMin="0" xMax="549" yMax="939">
      <contour>
        <pt x="14" y="44" on="1"/>
        <pt x="14" y="50" on="0"/>
        <pt x="15" y="53" on="1"/>
        <pt x="214" y="701" on="1"/>
        <pt x="226" y="737" on="0"/>
        <pt x="281" y="737" on="1"/>
        <pt x="337" y="737" on="0"/>
        <pt x="349" y="701" on="1"/>
        <pt x="547" y="53" on="1"/>
        <pt x="549" y="47" on="0"/>
        <pt x="549" y="44" on="1"/>
        <pt x="549" y="26" on="0"/>
        <pt x="506" y="0" on="0"/>
        <pt x="482" y="0" on="1"/>
        <pt x="453" y="0" on="0"/>
        <pt x="446" y="22" on="1"/>
        <pt x="405" y="164" on="1"/>
        <pt x="158" y="164" on="1"/>
        <pt x="117" y="22" on="1"/>
        <pt x="110" y="0" on="0"/>
        <pt x="80" y="0" on="1"/>
        <pt x="56" y="0" on="0"/>
        <pt x="14" y="26" on="0"/>
      </contour>
      <contour>
        <pt x="142" y="886" on="0"/>
        <pt x="142" y="918" on="0"/>
        <pt x="161" y="939" on="0"/>
        <pt x="176" y="939" on="1"/>
        <pt x="385" y="939" on="1"/>
        <pt x="399" y="939" on="0"/>
        <pt x="420" y="917" on="0"/>
        <pt x="420" y="887" on="0"/>
        <pt x="399" y="867" on="0"/>
        <pt x="385" y="867" on="1"/>
        <pt x="176" y="867" on="1"/>
        <pt x="161" y="867" on="0"/>
      </contour>
      <contour>
        <pt x="181" y="249" on="1"/>
        <pt x="381" y="249" on="1"/>
        <pt x="281" y="592" on="1"/>
      </contour>
    </TTGlyph>
    <TTGlyph name="Aogonek" xMin="14" yMin="-208" xMax="549" yMax="737">
      <contour>
        <pt x="14" y="44" on="1"/>
        <pt x="14" y="50" on="0"/>
        <pt x="15" y="53" on="1"/>
        <pt x="214" y="701" on="1"/>
        <pt x="226" y="737" on="0"/>
        <pt x="281" y="737" on="1"/>
        <pt x="337" y="737" on="0"/>
        <pt x="349" y="701" on="1"/>
        <pt x="547" y="53" on="1"/>
        <pt x="549" y="47" on="0"/>
        <pt x="549" y="44" on="1"/>
        <pt x="549" y="32" on="0"/>
        <pt x="527" y="11" on="0"/>
        <pt x="511" y="5" on="1"/>
        <pt x="436" y="-49" on="0"/>
        <pt x="436" y="-115" on="1"/>
        <pt x="436" y="-161" on="0"/>
        <pt x="496" y="-161" on="1"/>
        <pt x="518" y="-161" on="0"/>
        <pt x="518" y="-186" on="1"/>
        <pt x="518" y="-208" on="0"/>
        <pt x="490" y="-208" on="1"/>
        <pt x="440" y="-208" on="0"/>
        <pt x="381" y="-163" on="0"/>
        <pt x="381" y="-124" on="1"/>
        <pt x="381" y="-48" on="0"/>
        <pt x="452" y="10" on="1"/>
        <pt x="448" y="14" on="0"/>
        <pt x="446" y="22" on="1"/>
        <pt x="405" y="164" on="1"/>
        <pt x="158" y="164" on="1"/>
        <pt x="117" y="22" on="1"/>
        <pt x="110" y="0" on="0"/>
        <pt x="80" y="0" on="1"/>
        <pt x="56" y="0" on="0"/>
        <pt x="14" y="26" on="0"/>
      </contour>
      <contour>
        <pt x="181" y="249" on="1"/>
        <pt x="381" y="249" on="1"/>
        <pt x="281" y="592" on="1"/>
      </contour>
    </TTGlyph>
    <TTGlyph name="Aring" xMin="14" yMin="0" xMax="549" yMax="1016">
      <contour>
        <pt x="14" y="44" on="1"/>
        <pt x="14" y="50" on="0"/>
        <pt x="15" y="53" on="1"/>
        <pt x="214" y="701" on="1"/>
        <pt x="226" y="737" on="0"/>
        <pt x="281" y="737" on="1"/>
        <pt x="337" y="737" on="0"/>
        <pt x="349" y="701" on="1"/>
        <pt x="547" y="53" on="1"/>
        <pt x="549" y="47" on="0"/>
        <pt x="549" y="44" on="1"/>
        <pt x="549" y="26" on="0"/>
        <pt x="506" y="0" on="0"/>
        <pt x="482" y="0" on="1"/>
        <pt x="453" y="0" on="0"/>
        <pt x="446" y="22" on="1"/>
        <pt x="405" y="164" on="1"/>
        <pt x="158" y="164" on="1"/>
        <pt x="117" y="22" on="1"/>
        <pt x="110" y="0" on="0"/>
        <pt x="80" y="0" on="1"/>
        <pt x="56" y="0" on="0"/>
        <pt x="14" y="26" on="0"/>
      </contour>
      <contour>
        <pt x="181" y="249" on="1"/>
        <pt x="381" y="249" on="1"/>
        <pt x="281" y="592" on="1"/>
      </contour>
      <contour>
        <pt x="185" y="919" on="1"/>
        <pt x="185" y="957" on="0"/>
        <pt x="241" y="1016" on="0"/>
        <pt x="280" y="1016" on="1"/>
        <pt x="318" y="1016" on="0"/>
        <pt x="377" y="957" on="0"/>
        <pt x="377" y="919" on="1"/>
        <pt x="377" y="880" on="0"/>
        <pt x="318" y="820" on="0"/>
        <pt x="280" y="820" on="1"/>
        <pt x="241" y="820" on="0"/>
        <pt x="185" y="880" on="0"/>
      </contour>
      <contour>
        <pt x="229" y="918" on="1"/>
        <pt x="229" y="898" on="0"/>
        <pt x="260" y="864" on="0"/>
        <pt x="281" y="864" on="1"/>
        <pt x="301" y="864" on="0"/>
        <pt x="331" y="897" on="0"/>
        <pt x="331" y="918" on="1"/>
        <pt x="331" y="937" on="0"/>
        <pt x="301" y="968" on="0"/>
        <pt x="281" y="968" on="1"/>
        <pt x="260" y="968" on="0"/>
        <pt x="229" y="937" on="0"/>
      </contour>
    </TTGlyph>
    <TTGlyph name="Atilde" xMin="14" yMin="0" xMax="549" yMax="947">
      <contour>
        <pt x="14" y="44" on="1"/>
        <pt x="14" y="50" on="0"/>
        <pt x="15" y="53" on="1"/>
        <pt x="214" y="701" on="1"/>
        <pt x="226" y="737" on="0"/>
        <pt x="281" y="737" on="1"/>
        <pt x="337" y="737" on="0"/>
        <pt x="349" y="701" on="1"/>
        <pt x="547" y="53" on="1"/>
        <pt x="549" y="47" on="0"/>
        <pt x="549" y="44" on="1"/>
        <pt x="549" y="26" on="0"/>
        <pt x="506" y="0" on="0"/>
        <pt x="482" y="0" on="1"/>
        <pt x="453" y="0" on="0"/>
        <pt x="446" y="22" on="1"/>
        <pt x="405" y="164" on="1"/>
        <pt x="158" y="164" on="1"/>
        <pt x="117" y="22" on="1"/>
        <pt x="110" y="0" on="0"/>
        <pt x="80" y="0" on="1"/>
        <pt x="56" y="0" on="0"/>
        <pt x="14" y="26" on="0"/>
      </contour>
      <contour>
        <pt x="116" y="883" on="1"/>
        <pt x="116" y="917" on="0"/>
        <pt x="174" y="947" on="0"/>
        <pt x="203" y="947" on="1"/>
        <pt x="231" y="947" on="0"/>
        <pt x="314" y="916" on="0"/>
        <pt x="341" y="916" on="1"/>
        <pt x="365" y="916" on="0"/>
        <pt x="411" y="941" on="0"/>
        <pt x="418" y="941" on="1"/>
        <pt x="432" y="941" on="0"/>
        <pt x="446" y="917" on="0"/>
        <pt x="446" y="907" on="1"/>
        <pt x="446" y="871" on="0"/>
        <pt x="390" y="843" on="0"/>
        <pt x="361" y="843" on="1"/>
        <pt x="329" y="843" on="0"/>
        <pt x="247" y="874" on="0"/>
        <pt x="222" y="874" on="1"/>
        <pt x="198" y="874" on="0"/>
        <pt x="151" y="847" on="0"/>
        <pt x="144" y="847" on="1"/>
        <pt x="130" y="847" on="0"/>
        <pt x="116" y="872" on="0"/>
      </contour>
      <contour>
        <pt x="181" y="249" on="1"/>
        <pt x="381" y="249" on="1"/>
        <pt x="281" y="592" on="1"/>
      </contour>
    </TTGlyph>
    <TTGlyph name="B" xMin="66" yMin="0" xMax="515" yMax="731">
      <contour>
        <pt x="66" y="34" on="1"/>
        <pt x="66" y="696" on="1"/>
        <pt x="66" y="712" on="0"/>
        <pt x="94" y="731" on="0"/>
        <pt x="113" y="731" on="1"/>
        <pt x="295" y="731" on="1"/>
        <pt x="387" y="731" on="0"/>
        <pt x="497" y="655" on="0"/>
        <pt x="497" y="558" on="1"/>
        <pt x="497" y="434" on="0"/>
        <pt x="412" y="396" on="1"/>
        <pt x="463" y="376" on="0"/>
        <pt x="515" y="301" on="0"/>
        <pt x="515" y="229" on="1"/>
        <pt x="515" y="210" on="1"/>
        <pt x="515" y="100" on="0"/>
        <pt x="407" y="0" on="0"/>
        <pt x="316" y="0" on="1"/>
        <pt x="113" y="0" on="1"/>
        <pt x="92" y="0" on="0"/>
        <pt x="66" y="20" on="0"/>
      </contour>
      <contour>
        <pt x="171" y="94" on="1"/>
        <pt x="296" y="94" on="1"/>
        <pt x="409" y="94" on="0"/>
        <pt x="409" y="218" on="1"/>
        <pt x="409" y="234" on="1"/>
        <pt x="409" y="298" on="0"/>
        <pt x="352" y="354" on="0"/>
        <pt x="296" y="354" on="1"/>
        <pt x="171" y="354" on="1"/>
      </contour>
      <contour>
        <pt x="171" y="438" on="1"/>
        <pt x="290" y="438" on="1"/>
        <pt x="391" y="438" on="0"/>
        <pt x="391" y="541" on="1"/>
        <pt x="391" y="637" on="0"/>
        <pt x="288" y="637" on="1"/>
        <pt x="171" y="637" on="1"/>
      </contour>
    </TTGlyph>
    <TTGlyph name="C" xMin="59" yMin="-6" xMax="508" yMax="731">
      <contour>
        <pt x="59" y="217" on="1"/>
        <pt x="59" y="508" on="1"/>
        <pt x="59" y="623" on="0"/>
        <pt x="182" y="731" on="0"/>
        <pt x="281" y="731" on="1"/>
        <pt x="383" y="731" on="0"/>
        <pt x="508" y="630" on="0"/>
        <pt x="508" y="550" on="1"/>
        <pt x="508" y="518" on="0"/>
        <pt x="484" y="495" on="0"/>
        <pt x="455" y="495" on="1"/>
        <pt x="403" y="495" on="0"/>
        <pt x="402" y="530" on="1"/>
        <pt x="396" y="637" on="0"/>
        <pt x="285" y="637" on="1"/>
        <pt x="165" y="637" on="0"/>
        <pt x="165" y="508" on="1"/>
        <pt x="165" y="217" on="1"/>
        <pt x="165" y="88" on="0"/>
        <pt x="287" y="88" on="1"/>
        <pt x="323" y="88" on="0"/>
        <pt x="371" y="109" on="0"/>
        <pt x="392" y="149" on="0"/>
        <pt x="400" y="179" on="0"/>
        <pt x="402" y="201" on="1"/>
        <pt x="405" y="236" on="0"/>
        <pt x="454" y="236" on="1"/>
        <pt x="483" y="236" on="0"/>
        <pt x="508" y="213" on="0"/>
        <pt x="508" y="181" on="1"/>
        <pt x="508" y="98" on="0"/>
        <pt x="382" y="-6" on="0"/>
        <pt x="280" y="-6" on="1"/>
        <pt x="181" y="-6" on="0"/>
        <pt x="59" y="102" on="0"/>
      </contour>
    </TTGlyph>
    <TTGlyph name="Cacute" xMin="59" yMin="-6" xMax="508" yMax="956">
      <contour>
        <pt x="59" y="217" on="1"/>
        <pt x="59" y="508" on="1"/>
        <pt x="59" y="623" on="0"/>
        <pt x="182" y="731" on="0"/>
        <pt x="281" y="731" on="1"/>
        <pt x="383" y="731" on="0"/>
        <pt x="508" y="630" on="0"/>
        <pt x="508" y="550" on="1"/>
        <pt x="508" y="518" on="0"/>
        <pt x="484" y="495" on="0"/>
        <pt x="455" y="495" on="1"/>
        <pt x="403" y="495" on="0"/>
        <pt x="402" y="530" on="1"/>
        <pt x="396" y="637" on="0"/>
        <pt x="285" y="637" on="1"/>
        <pt x="165" y="637" on="0"/>
        <pt x="165" y="508" on="1"/>
        <pt x="165" y="217" on="1"/>
        <pt x="165" y="88" on="0"/>
        <pt x="287" y="88" on="1"/>
        <pt x="323" y="88" on="0"/>
        <pt x="371" y="109" on="0"/>
        <pt x="392" y="149" on="0"/>
        <pt x="400" y="179" on="0"/>
        <pt x="402" y="201" on="1"/>
        <pt x="405" y="236" on="0"/>
        <pt x="454" y="236" on="1"/>
        <pt x="483" y="236" on="0"/>
        <pt x="508" y="213" on="0"/>
        <pt x="508" y="181" on="1"/>
        <pt x="508" y="98" on="0"/>
        <pt x="382" y="-6" on="0"/>
        <pt x="280" y="-6" on="1"/>
        <pt x="181" y="-6" on="0"/>
        <pt x="59" y="102" on="0"/>
      </contour>
      <contour>
        <pt x="205" y="865" on="1"/>
        <pt x="205" y="883" on="0"/>
        <pt x="220" y="891" on="1"/>
        <pt x="344" y="954" on="1"/>
        <pt x="352" y="956" on="0"/>
        <pt x="355" y="956" on="1"/>
        <pt x="369" y="956" on="0"/>
        <pt x="389" y="930" on="0"/>
        <pt x="389" y="915" on="1"/>
        <pt x="389" y="895" on="0"/>
        <pt x="373" y="888" on="1"/>
        <pt x="252" y="827" on="1"/>
        <pt x="246" y="824" on="0"/>
        <pt x="240" y="824" on="1"/>
        <pt x="226" y="824" on="0"/>
        <pt x="205" y="850" on="0"/>
      </contour>
    </TTGlyph>
    <TTGlyph name="Ccaron" xMin="59" yMin="-6" xMax="508" yMax="979">
      <contour>
        <pt x="59" y="217" on="1"/>
        <pt x="59" y="508" on="1"/>
        <pt x="59" y="623" on="0"/>
        <pt x="182" y="731" on="0"/>
        <pt x="281" y="731" on="1"/>
        <pt x="383" y="731" on="0"/>
        <pt x="508" y="630" on="0"/>
        <pt x="508" y="550" on="1"/>
        <pt x="508" y="518" on="0"/>
        <pt x="484" y="495" on="0"/>
        <pt x="455" y="495" on="1"/>
        <pt x="403" y="495" on="0"/>
        <pt x="402" y="530" on="1"/>
        <pt x="396" y="637" on="0"/>
        <pt x="285" y="637" on="1"/>
        <pt x="165" y="637" on="0"/>
        <pt x="165" y="508" on="1"/>
        <pt x="165" y="217" on="1"/>
        <pt x="165" y="88" on="0"/>
        <pt x="287" y="88" on="1"/>
        <pt x="323" y="88" on="0"/>
        <pt x="371" y="109" on="0"/>
        <pt x="392" y="149" on="0"/>
        <pt x="400" y="179" on="0"/>
        <pt x="402" y="201" on="1"/>
        <pt x="405" y="236" on="0"/>
        <pt x="454" y="236" on="1"/>
        <pt x="483" y="236" on="0"/>
        <pt x="508" y="213" on="0"/>
        <pt x="508" y="181" on="1"/>
        <pt x="508" y="98" on="0"/>
        <pt x="382" y="-6" on="0"/>
        <pt x="280" y="-6" on="1"/>
        <pt x="181" y="-6" on="0"/>
        <pt x="59" y="102" on="0"/>
      </contour>
      <contour>
        <pt x="143" y="946" on="1"/>
        <pt x="143" y="959" on="0"/>
        <pt x="157" y="979" on="0"/>
        <pt x="167" y="979" on="1"/>
        <pt x="174" y="979" on="0"/>
        <pt x="180" y="973" on="1"/>
        <pt x="281" y="898" on="1"/>
        <pt x="383" y="973" on="1"/>
        <pt x="389" y="979" on="0"/>
        <pt x="396" y="979" on="1"/>
        <pt x="406" y="979" on="0"/>
        <pt x="420" y="959" on="0"/>
        <pt x="420" y="946" on="1"/>
        <pt x="420" y="925" on="0"/>
        <pt x="402" y="913" on="1"/>
        <pt x="300" y="838" on="1"/>
        <pt x="290" y="831" on="0"/>
        <pt x="281" y="831" on="1"/>
        <pt x="274" y="831" on="0"/>
        <pt x="263" y="838" on="1"/>
        <pt x="160" y="913" on="1"/>
        <pt x="143" y="926" on="0"/>
      </contour>
    </TTGlyph>
    <TTGlyph name="Ccedilla" xMin="58" yMin="-214" xMax="507" yMax="731">
      <contour>
        <pt x="58" y="217" on="1"/>
        <pt x="58" y="508" on="1"/>
        <pt x="58" y="623" on="0"/>
        <pt x="181" y="731" on="0"/>
        <pt x="280" y="731" on="1"/>
        <pt x="382" y="731" on="0"/>
        <pt x="507" y="630" on="0"/>
        <pt x="507" y="550" on="1"/>
        <pt x="507" y="518" on="0"/>
        <pt x="483" y="495" on="0"/>
        <pt x="454" y="495" on="1"/>
        <pt x="402" y="495" on="0"/>
        <pt x="401" y="530" on="1"/>
        <pt x="395" y="637" on="0"/>
        <pt x="284" y="637" on="1"/>
        <pt x="164" y="637" on="0"/>
        <pt x="164" y="508" on="1"/>
        <pt x="164" y="217" on="1"/>
        <pt x="164" y="88" on="0"/>
        <pt x="286" y="88" on="1"/>
        <pt x="322" y="88" on="0"/>
        <pt x="370" y="109" on="0"/>
        <pt x="391" y="149" on="0"/>
        <pt x="399" y="179" on="0"/>
        <pt x="401" y="201" on="1"/>
        <pt x="404" y="236" on="0"/>
        <pt x="453" y="236" on="1"/>
        <pt x="482" y="236" on="0"/>
        <pt x="507" y="213" on="0"/>
        <pt x="507" y="181" on="1"/>
        <pt x="507" y="106" on="0"/>
        <pt x="403" y="5" on="0"/>
        <pt x="315" y="-4" on="1"/>
        <pt x="301" y="-55" on="1"/>
        <pt x="349" y="-56" on="0"/>
        <pt x="398" y="-99" on="0"/>
        <pt x="398" y="-130" on="1"/>
        <pt x="398" y="-162" on="0"/>
        <pt x="349" y="-214" on="0"/>
        <pt x="299" y="-214" on="1"/>
        <pt x="271" y="-214" on="0"/>
        <pt x="217" y="-199" on="0"/>
        <pt x="217" y="-186" on="1"/>
        <pt x="217" y="-178" on="0"/>
        <pt x="228" y="-154" on="0"/>
        <pt x="237" y="-154" on="1"/>
        <pt x="239" y="-154" on="0"/>
        <pt x="275" y="-168" on="0"/>
        <pt x="294" y="-168" on="1"/>
        <pt x="344" y="-168" on="0"/>
        <pt x="344" y="-132" on="1"/>
        <pt x="344" y="-99" on="0"/>
        <pt x="290" y="-94" on="1"/>
        <pt x="242" y="-89" on="1"/>
        <pt x="264" y="-5" on="1"/>
        <pt x="171" y="-1" on="0"/>
        <pt x="58" y="107" on="0"/>
      </contour>
    </TTGlyph>
    <TTGlyph name="Ccircumflex" xMin="59" yMin="-6" xMax="508" yMax="956">
      <contour>
        <pt x="59" y="217" on="1"/>
        <pt x="59" y="508" on="1"/>
        <pt x="59" y="623" on="0"/>
        <pt x="182" y="731" on="0"/>
        <pt x="281" y="731" on="1"/>
        <pt x="383" y="731" on="0"/>
        <pt x="508" y="630" on="0"/>
        <pt x="508" y="550" on="1"/>
        <pt x="508" y="518" on="0"/>
        <pt x="484" y="495" on="0"/>
        <pt x="455" y="495" on="1"/>
        <pt x="403" y="495" on="0"/>
        <pt x="402" y="530" on="1"/>
        <pt x="396" y="637" on="0"/>
        <pt x="285" y="637" on="1"/>
        <pt x="165" y="637" on="0"/>
        <pt x="165" y="508" on="1"/>
        <pt x="165" y="217" on="1"/>
        <pt x="165" y="88" on="0"/>
        <pt x="287" y="88" on="1"/>
        <pt x="323" y="88" on="0"/>
        <pt x="371" y="109" on="0"/>
        <pt x="392" y="149" on="0"/>
        <pt x="400" y="179" on="0"/>
        <pt x="402" y="201" on="1"/>
        <pt x="405" y="236" on="0"/>
        <pt x="454" y="236" on="1"/>
        <pt x="483" y="236" on="0"/>
        <pt x="508" y="213" on="0"/>
        <pt x="508" y="181" on="1"/>
        <pt x="508" y="98" on="0"/>
        <pt x="382" y="-6" on="0"/>
        <pt x="280" y="-6" on="1"/>
        <pt x="181" y="-6" on="0"/>
        <pt x="59" y="102" on="0"/>
      </contour>
      <contour>
        <pt x="143" y="864" on="1"/>
        <pt x="143" y="885" on="0"/>
        <pt x="161" y="895" on="1"/>
        <pt x="265" y="951" on="1"/>
        <pt x="275" y="956" on="0"/>
        <pt x="282" y="956" on="1"/>
        <pt x="291" y="956" on="0"/>
        <pt x="299" y="951" on="1"/>
        <pt x="403" y="896" on="1"/>
        <pt x="422" y="884" on="0"/>
        <pt x="422" y="863" on="1"/>
        <pt x="422" y="850" on="0"/>
        <pt x="407" y="829" on="0"/>
        <pt x="396" y="829" on="1"/>
        <pt x="394" y="829" on="0"/>
        <pt x="390" y="830" on="1"/>
        <pt x="388" y="832" on="0"/>
        <pt x="386" y="832" on="1"/>
        <pt x="282" y="888" on="1"/>
        <pt x="178" y="832" on="1"/>
        <pt x="174" y="829" on="0"/>
        <pt x="169" y="829" on="1"/>
        <pt x="158" y="829" on="0"/>
        <pt x="143" y="850" on="0"/>
      </contour>
    </TTGlyph>
    <TTGlyph name="Cdotaccent" xMin="59" yMin="-6" xMax="508" yMax="923">
      <contour>
        <pt x="59" y="217" on="1"/>
        <pt x="59" y="508" on="1"/>
        <pt x="59" y="623" on="0"/>
        <pt x="182" y="731" on="0"/>
        <pt x="281" y="731" on="1"/>
        <pt x="383" y="731" on="0"/>
        <pt x="508" y="630" on="0"/>
        <pt x="508" y="550" on="1"/>
        <pt x="508" y="518" on="0"/>
        <pt x="484" y="495" on="0"/>
        <pt x="455" y="495" on="1"/>
        <pt x="403" y="495" on="0"/>
        <pt x="402" y="530" on="1"/>
        <pt x="396" y="637" on="0"/>
        <pt x="285" y="637" on="1"/>
        <pt x="165" y="637" on="0"/>
        <pt x="165" y="508" on="1"/>
        <pt x="165" y="217" on="1"/>
        <pt x="165" y="88" on="0"/>
        <pt x="287" y="88" on="1"/>
        <pt x="323" y="88" on="0"/>
        <pt x="371" y="109" on="0"/>
        <pt x="392" y="149" on="0"/>
        <pt x="400" y="179" on="0"/>
        <pt x="402" y="201" on="1"/>
        <pt x="405" y="236" on="0"/>
        <pt x="454" y="236" on="1"/>
        <pt x="483" y="236" on="0"/>
        <pt x="508" y="213" on="0"/>
        <pt x="508" y="181" on="1"/>
        <pt x="508" y="98" on="0"/>
        <pt x="382" y="-6" on="0"/>
        <pt x="280" y="-6" on="1"/>
        <pt x="181" y="-6" on="0"/>
        <pt x="59" y="102" on="0"/>
      </contour>
      <contour>
        <pt x="239" y="858" on="0"/>
        <pt x="239" y="896" on="0"/>
        <pt x="265" y="923" on="0"/>
        <pt x="303" y="923" on="0"/>
        <pt x="329" y="896" on="0"/>
        <pt x="329" y="858" on="0"/>
        <pt x="303" y="830" on="0"/>
        <pt x="265" y="830" on="0"/>
      </contour>
    </TTGlyph>
    <TTGlyph name="D" xMin="66" yMin="0" xMax="515" yMax="731">
      <contour>
        <pt x="66" y="34" on="1"/>
        <pt x="66" y="697" on="1"/>
        <pt x="66" y="711" on="0"/>
        <pt x="93" y="731" on="0"/>
        <pt x="113" y="731" on="1"/>
        <pt x="290" y="731" on="1"/>
        <pt x="392" y="731" on="0"/>
        <pt x="515" y="623" on="0"/>
        <pt x="515" y="508" on="1"/>
        <pt x="515" y="223" on="1"/>
        <pt x="515" y="108" on="0"/>
        <pt x="392" y="0" on="0"/>
        <pt x="290" y="0" on="1"/>
        <pt x="113" y="0" on="1"/>
        <pt x="93" y="0" on="0"/>
        <pt x="66" y="20" on="0"/>
      </contour>
      <contour>
        <pt x="172" y="94" on="1"/>
        <pt x="290" y="94" on="1"/>
        <pt x="409" y="94" on="0"/>
        <pt x="409" y="223" on="1"/>
        <pt x="409" y="508" on="1"/>
        <pt x="409" y="637" on="0"/>
        <pt x="290" y="637" on="1"/>
        <pt x="172" y="637" on="1"/>
      </contour>
    </TTGlyph>
    <TTGlyph name="Dcaron" xMin="66" yMin="0" xMax="515" yMax="979">
      <contour>
        <pt x="66" y="34" on="1"/>
        <pt x="66" y="697" on="1"/>
        <pt x="66" y="711" on="0"/>
        <pt x="93" y="731" on="0"/>
        <pt x="113" y="731" on="1"/>
        <pt x="290" y="731" on="1"/>
        <pt x="392" y="731" on="0"/>
        <pt x="515" y="623" on="0"/>
        <pt x="515" y="508" on="1"/>
        <pt x="515" y="223" on="1"/>
        <pt x="515" y="108" on="0"/>
        <pt x="392" y="0" on="0"/>
        <pt x="290" y="0" on="1"/>
        <pt x="113" y="0" on="1"/>
        <pt x="93" y="0" on="0"/>
        <pt x="66" y="20" on="0"/>
      </contour>
      <contour>
        <pt x="137" y="946" on="1"/>
        <pt x="137" y="959" on="0"/>
        <pt x="151" y="979" on="0"/>
        <pt x="161" y="979" on="1"/>
        <pt x="168" y="979" on="0"/>
        <pt x="174" y="973" on="1"/>
        <pt x="275" y="898" on="1"/>
        <pt x="377" y="973" on="1"/>
        <pt x="383" y="979" on="0"/>
        <pt x="390" y="979" on="1"/>
        <pt x="400" y="979" on="0"/>
        <pt x="414" y="959" on="0"/>
        <pt x="414" y="946" on="1"/>
        <pt x="414" y="925" on="0"/>
        <pt x="396" y="913" on="1"/>
        <pt x="294" y="838" on="1"/>
        <pt x="284" y="831" on="0"/>
        <pt x="275" y="831" on="1"/>
        <pt x="268" y="831" on="0"/>
        <pt x="257" y="838" on="1"/>
        <pt x="154" y="913" on="1"/>
        <pt x="137" y="926" on="0"/>
      </contour>
      <contour>
        <pt x="172" y="94" on="1"/>
        <pt x="290" y="94" on="1"/>
        <pt x="409" y="94" on="0"/>
        <pt x="409" y="223" on="1"/>
        <pt x="409" y="508" on="1"/>
        <pt x="409" y="637" on="0"/>
        <pt x="290" y="637" on="1"/>
        <pt x="172" y="637" on="1"/>
      </contour>
    </TTGlyph>
    <TTGlyph name="Dcroat" xMin="-4" yMin="0" xMax="523" yMax="731">
      <contour>
        <pt x="-4" y="367" on="0"/>
        <pt x="-4" y="399" on="0"/>
        <pt x="12" y="422" on="0"/>
        <pt x="25" y="422" on="1"/>
        <pt x="74" y="422" on="1"/>
        <pt x="74" y="697" on="1"/>
        <pt x="74" y="711" on="0"/>
        <pt x="101" y="731" on="0"/>
        <pt x="121" y="731" on="1"/>
        <pt x="298" y="731" on="1"/>
        <pt x="400" y="731" on="0"/>
        <pt x="523" y="623" on="0"/>
        <pt x="523" y="508" on="1"/>
        <pt x="523" y="223" on="1"/>
        <pt x="523" y="108" on="0"/>
        <pt x="400" y="0" on="0"/>
        <pt x="298" y="0" on="1"/>
        <pt x="121" y="0" on="1"/>
        <pt x="101" y="0" on="0"/>
        <pt x="74" y="20" on="0"/>
        <pt x="74" y="34" on="1"/>
        <pt x="74" y="344" on="1"/>
        <pt x="25" y="344" on="1"/>
        <pt x="12" y="344" on="0"/>
      </contour>
      <contour>
        <pt x="180" y="94" on="1"/>
        <pt x="298" y="94" on="1"/>
        <pt x="417" y="94" on="0"/>
        <pt x="417" y="223" on="1"/>
        <pt x="417" y="508" on="1"/>
        <pt x="417" y="637" on="0"/>
        <pt x="298" y="637" on="1"/>
        <pt x="180" y="637" on="1"/>
        <pt x="180" y="422" on="1"/>
        <pt x="271" y="422" on="1"/>
        <pt x="285" y="422" on="0"/>
        <pt x="301" y="399" on="0"/>
        <pt x="301" y="367" on="0"/>
        <pt x="285" y="344" on="0"/>
        <pt x="271" y="344" on="1"/>
        <pt x="180" y="344" on="1"/>
      </contour>
    </TTGlyph>
    <TTGlyph name="E" xMin="66" yMin="0" xMax="504" yMax="731">
      <contour>
        <pt x="66" y="35" on="1"/>
        <pt x="66" y="696" on="1"/>
        <pt x="66" y="712" on="0"/>
        <pt x="94" y="731" on="0"/>
        <pt x="113" y="731" on="1"/>
        <pt x="469" y="731" on="1"/>
        <pt x="486" y="731" on="0"/>
        <pt x="504" y="703" on="0"/>
        <pt x="504" y="685" on="1"/>
        <pt x="504" y="665" on="0"/>
        <pt x="485" y="637" on="0"/>
        <pt x="469" y="637" on="1"/>
        <pt x="172" y="637" on="1"/>
        <pt x="172" y="408" on="1"/>
        <pt x="326" y="408" on="1"/>
        <pt x="342" y="408" on="0"/>
        <pt x="361" y="383" on="0"/>
        <pt x="361" y="365" on="1"/>
        <pt x="361" y="349" on="0"/>
        <pt x="343" y="324" on="0"/>
        <pt x="326" y="324" on="1"/>
        <pt x="172" y="324" on="1"/>
        <pt x="172" y="94" on="1"/>
        <pt x="469" y="94" on="1"/>
        <pt x="485" y="94" on="0"/>
        <pt x="504" y="66" on="0"/>
        <pt x="504" y="46" on="1"/>
        <pt x="504" y="28" on="0"/>
        <pt x="486" y="0" on="0"/>
        <pt x="469" y="0" on="1"/>
        <pt x="113" y="0" on="1"/>
        <pt x="94" y="0" on="0"/>
        <pt x="66" y="19" on="0"/>
      </contour>
    </TTGlyph>
    <TTGlyph name="Eacute" xMin="66" yMin="0" xMax="504" yMax="956">
      <contour>
        <pt x="66" y="35" on="1"/>
        <pt x="66" y="696" on="1"/>
        <pt x="66" y="712" on="0"/>
        <pt x="94" y="731" on="0"/>
        <pt x="113" y="731" on="1"/>
        <pt x="469" y="731" on="1"/>
        <pt x="486" y="731" on="0"/>
        <pt x="504" y="703" on="0"/>
        <pt x="504" y="685" on="1"/>
        <pt x="504" y="665" on="0"/>
        <pt x="485" y="637" on="0"/>
        <pt x="469" y="637" on="1"/>
        <pt x="172" y="637" on="1"/>
        <pt x="172" y="408" on="1"/>
        <pt x="326" y="408" on="1"/>
        <pt x="342" y="408" on="0"/>
        <pt x="361" y="383" on="0"/>
        <pt x="361" y="365" on="1"/>
        <pt x="361" y="349" on="0"/>
        <pt x="343" y="324" on="0"/>
        <pt x="326" y="324" on="1"/>
        <pt x="172" y="324" on="1"/>
        <pt x="172" y="94" on="1"/>
        <pt x="469" y="94" on="1"/>
        <pt x="485" y="94" on="0"/>
        <pt x="504" y="66" on="0"/>
        <pt x="504" y="46" on="1"/>
        <pt x="504" y="28" on="0"/>
        <pt x="486" y="0" on="0"/>
        <pt x="469" y="0" on="1"/>
        <pt x="113" y="0" on="1"/>
        <pt x="94" y="0" on="0"/>
        <pt x="66" y="19" on="0"/>
      </contour>
      <contour>
        <pt x="207" y="865" on="1"/>
        <pt x="207" y="883" on="0"/>
        <pt x="222" y="891" on="1"/>
        <pt x="346" y="954" on="1"/>
        <pt x="354" y="956" on="0"/>
        <pt x="357" y="956" on="1"/>
        <pt x="371" y="956" on="0"/>
        <pt x="391" y="930" on="0"/>
        <pt x="391" y="915" on="1"/>
        <pt x="391" y="895" on="0"/>
        <pt x="375" y="888" on="1"/>
        <pt x="254" y="827" on="1"/>
        <pt x="248" y="824" on="0"/>
        <pt x="242" y="824" on="1"/>
        <pt x="228" y="824" on="0"/>
        <pt x="207" y="850" on="0"/>
      </contour>
    </TTGlyph>
    <TTGlyph name="Ebreve" xMin="66" yMin="0" xMax="504" yMax="965">
      <contour>
        <pt x="66" y="35" on="1"/>
        <pt x="66" y="696" on="1"/>
        <pt x="66" y="712" on="0"/>
        <pt x="94" y="731" on="0"/>
        <pt x="113" y="731" on="1"/>
        <pt x="469" y="731" on="1"/>
        <pt x="486" y="731" on="0"/>
        <pt x="504" y="703" on="0"/>
        <pt x="504" y="685" on="1"/>
        <pt x="504" y="665" on="0"/>
        <pt x="485" y="637" on="0"/>
        <pt x="469" y="637" on="1"/>
        <pt x="172" y="637" on="1"/>
        <pt x="172" y="408" on="1"/>
        <pt x="326" y="408" on="1"/>
        <pt x="342" y="408" on="0"/>
        <pt x="361" y="383" on="0"/>
        <pt x="361" y="365" on="1"/>
        <pt x="361" y="349" on="0"/>
        <pt x="343" y="324" on="0"/>
        <pt x="326" y="324" on="1"/>
        <pt x="172" y="324" on="1"/>
        <pt x="172" y="94" on="1"/>
        <pt x="469" y="94" on="1"/>
        <pt x="485" y="94" on="0"/>
        <pt x="504" y="66" on="0"/>
        <pt x="504" y="46" on="1"/>
        <pt x="504" y="28" on="0"/>
        <pt x="486" y="0" on="0"/>
        <pt x="469" y="0" on="1"/>
        <pt x="113" y="0" on="1"/>
        <pt x="94" y="0" on="0"/>
        <pt x="66" y="19" on="0"/>
      </contour>
      <contour>
        <pt x="157" y="965" on="1"/>
        <pt x="217" y="965" on="1"/>
        <pt x="217" y="933" on="0"/>
        <pt x="258" y="888" on="0"/>
        <pt x="310" y="888" on="0"/>
        <pt x="350" y="933" on="0"/>
        <pt x="350" y="965" on="1"/>
        <pt x="411" y="965" on="1"/>
        <pt x="411" y="915" on="0"/>
        <pt x="333" y="839" on="0"/>
        <pt x="284" y="839" on="1"/>
        <pt x="234" y="839" on="0"/>
        <pt x="157" y="914" on="0"/>
      </contour>
    </TTGlyph>
    <TTGlyph name="Ecaron" xMin="66" yMin="0" xMax="504" yMax="979">
      <contour>
        <pt x="66" y="35" on="1"/>
        <pt x="66" y="696" on="1"/>
        <pt x="66" y="712" on="0"/>
        <pt x="94" y="731" on="0"/>
        <pt x="113" y="731" on="1"/>
        <pt x="469" y="731" on="1"/>
        <pt x="486" y="731" on="0"/>
        <pt x="504" y="703" on="0"/>
        <pt x="504" y="685" on="1"/>
        <pt x="504" y="665" on="0"/>
        <pt x="485" y="637" on="0"/>
        <pt x="469" y="637" on="1"/>
        <pt x="172" y="637" on="1"/>
        <pt x="172" y="408" on="1"/>
        <pt x="326" y="408" on="1"/>
        <pt x="342" y="408" on="0"/>
        <pt x="361" y="383" on="0"/>
        <pt x="361" y="365" on="1"/>
        <pt x="361" y="349" on="0"/>
        <pt x="343" y="324" on="0"/>
        <pt x="326" y="324" on="1"/>
        <pt x="172" y="324" on="1"/>
        <pt x="172" y="94" on="1"/>
        <pt x="469" y="94" on="1"/>
        <pt x="485" y="94" on="0"/>
        <pt x="504" y="66" on="0"/>
        <pt x="504" y="46" on="1"/>
        <pt x="504" y="28" on="0"/>
        <pt x="486" y="0" on="0"/>
        <pt x="469" y="0" on="1"/>
        <pt x="113" y="0" on="1"/>
        <pt x="94" y="0" on="0"/>
        <pt x="66" y="19" on="0"/>
      </contour>
      <contour>
        <pt x="145" y="946" on="1"/>
        <pt x="145" y="959" on="0"/>
        <pt x="159" y="979" on="0"/>
        <pt x="169" y="979" on="1"/>
        <pt x="176" y="979" on="0"/>
        <pt x="182" y="973" on="1"/>
        <pt x="283" y="898" on="1"/>
        <pt x="385" y="973" on="1"/>
        <pt x="391" y="979" on="0"/>
        <pt x="398" y="979" on="1"/>
        <pt x="408" y="979" on="0"/>
        <pt x="422" y="959" on="0"/>
        <pt x="422" y="946" on="1"/>
        <pt x="422" y="925" on="0"/>
        <pt x="404" y="913" on="1"/>
        <pt x="302" y="838" on="1"/>
        <pt x="292" y="831" on="0"/>
        <pt x="283" y="831" on="1"/>
        <pt x="276" y="831" on="0"/>
        <pt x="265" y="838" on="1"/>
        <pt x="162" y="913" on="1"/>
        <pt x="145" y="926" on="0"/>
      </contour>
    </TTGlyph>
    <TTGlyph name="Ecircumflex" xMin="66" yMin="0" xMax="504" yMax="956">
      <contour>
        <pt x="66" y="35" on="1"/>
        <pt x="66" y="696" on="1"/>
        <pt x="66" y="712" on="0"/>
        <pt x="94" y="731" on="0"/>
        <pt x="113" y="731" on="1"/>
        <pt x="469" y="731" on="1"/>
        <pt x="486" y="731" on="0"/>
        <pt x="504" y="703" on="0"/>
        <pt x="504" y="685" on="1"/>
        <pt x="504" y="665" on="0"/>
        <pt x="485" y="637" on="0"/>
        <pt x="469" y="637" on="1"/>
        <pt x="172" y="637" on="1"/>
        <pt x="172" y="408" on="1"/>
        <pt x="326" y="408" on="1"/>
        <pt x="342" y="408" on="0"/>
        <pt x="361" y="383" on="0"/>
        <pt x="361" y="365" on="1"/>
        <pt x="361" y="349" on="0"/>
        <pt x="343" y="324" on="0"/>
        <pt x="326" y="324" on="1"/>
        <pt x="172" y="324" on="1"/>
        <pt x="172" y="94" on="1"/>
        <pt x="469" y="94" on="1"/>
        <pt x="485" y="94" on="0"/>
        <pt x="504" y="66" on="0"/>
        <pt x="504" y="46" on="1"/>
        <pt x="504" y="28" on="0"/>
        <pt x="486" y="0" on="0"/>
        <pt x="469" y="0" on="1"/>
        <pt x="113" y="0" on="1"/>
        <pt x="94" y="0" on="0"/>
        <pt x="66" y="19" on="0"/>
      </contour>
      <contour>
        <pt x="151" y="864" on="1"/>
        <pt x="151" y="885" on="0"/>
        <pt x="169" y="895" on="1"/>
        <pt x="273" y="951" on="1"/>
        <pt x="283" y="956" on="0"/>
        <pt x="290" y="956" on="1"/>
        <pt x="299" y="956" on="0"/>
        <pt x="307" y="951" on="1"/>
        <pt x="411" y="896" on="1"/>
        <pt x="430" y="884" on="0"/>
        <pt x="430" y="863" on="1"/>
        <pt x="430" y="850" on="0"/>
        <pt x="415" y="829" on="0"/>
        <pt x="404" y="829" on="1"/>
        <pt x="402" y="829" on="0"/>
        <pt x="398" y="830" on="1"/>
        <pt x="396" y="832" on="0"/>
        <pt x="394" y="832" on="1"/>
        <pt x="290" y="888" on="1"/>
        <pt x="186" y="832" on="1"/>
        <pt x="182" y="829" on="0"/>
        <pt x="177" y="829" on="1"/>
        <pt x="166" y="829" on="0"/>
        <pt x="151" y="850" on="0"/>
      </contour>
    </TTGlyph>
    <TTGlyph name="Edieresis" xMin="66" yMin="0" xMax="504" yMax="923">
      <contour>
        <pt x="66" y="35" on="1"/>
        <pt x="66" y="696" on="1"/>
        <pt x="66" y="712" on="0"/>
        <pt x="94" y="731" on="0"/>
        <pt x="113" y="731" on="1"/>
        <pt x="469" y="731" on="1"/>
        <pt x="486" y="731" on="0"/>
        <pt x="504" y="703" on="0"/>
        <pt x="504" y="685" on="1"/>
        <pt x="504" y="665" on="0"/>
        <pt x="485" y="637" on="0"/>
        <pt x="469" y="637" on="1"/>
        <pt x="172" y="637" on="1"/>
        <pt x="172" y="408" on="1"/>
        <pt x="326" y="408" on="1"/>
        <pt x="342" y="408" on="0"/>
        <pt x="361" y="383" on="0"/>
        <pt x="361" y="365" on="1"/>
        <pt x="361" y="349" on="0"/>
        <pt x="343" y="324" on="0"/>
        <pt x="326" y="324" on="1"/>
        <pt x="172" y="324" on="1"/>
        <pt x="172" y="94" on="1"/>
        <pt x="469" y="94" on="1"/>
        <pt x="485" y="94" on="0"/>
        <pt x="504" y="66" on="0"/>
        <pt x="504" y="46" on="1"/>
        <pt x="504" y="28" on="0"/>
        <pt x="486" y="0" on="0"/>
        <pt x="469" y="0" on="1"/>
        <pt x="113" y="0" on="1"/>
        <pt x="94" y="0" on="0"/>
        <pt x="66" y="19" on="0"/>
      </contour>
      <contour>
        <pt x="171" y="858" on="0"/>
        <pt x="171" y="896" on="0"/>
        <pt x="198" y="923" on="0"/>
        <pt x="236" y="923" on="0"/>
        <pt x="261" y="896" on="0"/>
        <pt x="261" y="858" on="0"/>
        <pt x="235" y="830" on="0"/>
        <pt x="217" y="830" on="1"/>
        <pt x="198" y="830" on="0"/>
      </contour>
      <contour>
        <pt x="311" y="858" on="0"/>
        <pt x="311" y="896" on="0"/>
        <pt x="337" y="923" on="0"/>
        <pt x="375" y="923" on="0"/>
        <pt x="401" y="896" on="0"/>
        <pt x="401" y="858" on="0"/>
        <pt x="375" y="830" on="0"/>
        <pt x="337" y="830" on="0"/>
      </contour>
    </TTGlyph>
    <TTGlyph name="Edotaccent" xMin="66" yMin="0" xMax="504" yMax="923">
      <contour>
        <pt x="66" y="35" on="1"/>
        <pt x="66" y="696" on="1"/>
        <pt x="66" y="712" on="0"/>
        <pt x="94" y="731" on="0"/>
        <pt x="113" y="731" on="1"/>
        <pt x="469" y="731" on="1"/>
        <pt x="486" y="731" on="0"/>
        <pt x="504" y="703" on="0"/>
        <pt x="504" y="685" on="1"/>
        <pt x="504" y="665" on="0"/>
        <pt x="485" y="637" on="0"/>
        <pt x="469" y="637" on="1"/>
        <pt x="172" y="637" on="1"/>
        <pt x="172" y="408" on="1"/>
        <pt x="326" y="408" on="1"/>
        <pt x="342" y="408" on="0"/>
        <pt x="361" y="383" on="0"/>
        <pt x="361" y="365" on="1"/>
        <pt x="361" y="349" on="0"/>
        <pt x="343" y="324" on="0"/>
        <pt x="326" y="324" on="1"/>
        <pt x="172" y="324" on="1"/>
        <pt x="172" y="94" on="1"/>
        <pt x="469" y="94" on="1"/>
        <pt x="485" y="94" on="0"/>
        <pt x="504" y="66" on="0"/>
        <pt x="504" y="46" on="1"/>
        <pt x="504" y="28" on="0"/>
        <pt x="486" y="0" on="0"/>
        <pt x="469" y="0" on="1"/>
        <pt x="113" y="0" on="1"/>
        <pt x="94" y="0" on="0"/>
        <pt x="66" y="19" on="0"/>
      </contour>
      <contour>
        <pt x="248" y="858" on="0"/>
        <pt x="248" y="896" on="0"/>
        <pt x="274" y="923" on="0"/>
        <pt x="312" y="923" on="0"/>
        <pt x="338" y="896" on="0"/>
        <pt x="338" y="858" on="0"/>
        <pt x="312" y="830" on="0"/>
        <pt x="274" y="830" on="0"/>
      </contour>
    </TTGlyph>
    <TTGlyph name="Egrave" xMin="66" yMin="0" xMax="504" yMax="956">
      <contour>
        <pt x="66" y="35" on="1"/>
        <pt x="66" y="696" on="1"/>
        <pt x="66" y="712" on="0"/>
        <pt x="94" y="731" on="0"/>
        <pt x="113" y="731" on="1"/>
        <pt x="469" y="731" on="1"/>
        <pt x="486" y="731" on="0"/>
        <pt x="504" y="703" on="0"/>
        <pt x="504" y="685" on="1"/>
        <pt x="504" y="665" on="0"/>
        <pt x="485" y="637" on="0"/>
        <pt x="469" y="637" on="1"/>
        <pt x="172" y="637" on="1"/>
        <pt x="172" y="408" on="1"/>
        <pt x="326" y="408" on="1"/>
        <pt x="342" y="408" on="0"/>
        <pt x="361" y="383" on="0"/>
        <pt x="361" y="365" on="1"/>
        <pt x="361" y="349" on="0"/>
        <pt x="343" y="324" on="0"/>
        <pt x="326" y="324" on="1"/>
        <pt x="172" y="324" on="1"/>
        <pt x="172" y="94" on="1"/>
        <pt x="469" y="94" on="1"/>
        <pt x="485" y="94" on="0"/>
        <pt x="504" y="66" on="0"/>
        <pt x="504" y="46" on="1"/>
        <pt x="504" y="28" on="0"/>
        <pt x="486" y="0" on="0"/>
        <pt x="469" y="0" on="1"/>
        <pt x="113" y="0" on="1"/>
        <pt x="94" y="0" on="0"/>
        <pt x="66" y="19" on="0"/>
      </contour>
      <contour>
        <pt x="189" y="915" on="1"/>
        <pt x="189" y="930" on="0"/>
        <pt x="209" y="956" on="0"/>
        <pt x="223" y="956" on="1"/>
        <pt x="226" y="956" on="0"/>
        <pt x="234" y="954" on="1"/>
        <pt x="358" y="891" on="1"/>
        <pt x="373" y="883" on="0"/>
        <pt x="373" y="865" on="1"/>
        <pt x="373" y="850" on="0"/>
        <pt x="353" y="824" on="0"/>
        <pt x="339" y="824" on="1"/>
        <pt x="332" y="824" on="0"/>
        <pt x="326" y="827" on="1"/>
        <pt x="205" y="888" on="1"/>
        <pt x="189" y="895" on="0"/>
      </contour>
    </TTGlyph>
    <TTGlyph name="Emacron" xMin="66" yMin="0" xMax="504" yMax="939">
      <contour>
        <pt x="66" y="35" on="1"/>
        <pt x="66" y="696" on="1"/>
        <pt x="66" y="712" on="0"/>
        <pt x="94" y="731" on="0"/>
        <pt x="113" y="731" on="1"/>
        <pt x="469" y="731" on="1"/>
        <pt x="486" y="731" on="0"/>
        <pt x="504" y="703" on="0"/>
        <pt x="504" y="685" on="1"/>
        <pt x="504" y="665" on="0"/>
        <pt x="485" y="637" on="0"/>
        <pt x="469" y="637" on="1"/>
        <pt x="172" y="637" on="1"/>
        <pt x="172" y="408" on="1"/>
        <pt x="326" y="408" on="1"/>
        <pt x="342" y="408" on="0"/>
        <pt x="361" y="383" on="0"/>
        <pt x="361" y="365" on="1"/>
        <pt x="361" y="349" on="0"/>
        <pt x="343" y="324" on="0"/>
        <pt x="326" y="324" on="1"/>
        <pt x="172" y="324" on="1"/>
        <pt x="172" y="94" on="1"/>
        <pt x="469" y="94" on="1"/>
        <pt x="485" y="94" on="0"/>
        <pt x="504" y="66" on="0"/>
        <pt x="504" y="46" on="1"/>
        <pt x="504" y="28" on="0"/>
        <pt x="486" y="0" on="0"/>
        <pt x="469" y="0" on="1"/>
        <pt x="113" y="0" on="1"/>
        <pt x="94" y="0" on="0"/>
        <pt x="66" y="19" on="0"/>
      </contour>
      <contour>
        <pt x="149" y="886" on="0"/>
        <pt x="149" y="918" on="0"/>
        <pt x="168" y="939" on="0"/>
        <pt x="183" y="939" on="1"/>
        <pt x="392" y="939" on="1"/>
        <pt x="406" y="939" on="0"/>
        <pt x="427" y="917" on="0"/>
        <pt x="427" y="887" on="0"/>
        <pt x="406" y="867" on="0"/>
        <pt x="392" y="867" on="1"/>
        <pt x="183" y="867" on="1"/>
        <pt x="168" y="867" on="0"/>
      </contour>
    </TTGlyph>
    <TTGlyph name="Eng" xMin="66" yMin="-225" xMax="527" yMax="731">
      <contour>
        <pt x="66" y="35" on="1"/>
        <pt x="66" y="696" on="1"/>
        <pt x="66" y="731" on="0"/>
        <pt x="119" y="731" on="1"/>
        <pt x="147" y="731" on="0"/>
        <pt x="181" y="706" on="0"/>
        <pt x="199" y="671" on="1"/>
        <pt x="421" y="238" on="1"/>
        <pt x="421" y="697" on="1"/>
        <pt x="421" y="714" on="0"/>
        <pt x="452" y="731" on="0"/>
        <pt x="496" y="731" on="0"/>
        <pt x="527" y="714" on="0"/>
        <pt x="527" y="697" on="1"/>
        <pt x="527" y="-36" on="1"/>
        <pt x="527" y="-123" on="0"/>
        <pt x="454" y="-225" on="0"/>
        <pt x="383" y="-225" on="1"/>
        <pt x="329" y="-225" on="0"/>
        <pt x="329" y="-181" on="1"/>
        <pt x="329" y="-160" on="0"/>
        <pt x="352" y="-135" on="0"/>
        <pt x="370" y="-135" on="1"/>
        <pt x="401" y="-135" on="0"/>
        <pt x="422" y="-85" on="0"/>
        <pt x="422" y="-36" on="1"/>
        <pt x="422" y="5" on="1"/>
        <pt x="422" y="21" on="0"/>
        <pt x="411" y="39" on="1"/>
        <pt x="172" y="494" on="1"/>
        <pt x="172" y="35" on="1"/>
        <pt x="172" y="19" on="0"/>
        <pt x="141" y="0" on="0"/>
        <pt x="119" y="0" on="1"/>
        <pt x="98" y="0" on="0"/>
        <pt x="66" y="19" on="0"/>
      </contour>
    </TTGlyph>
    <TTGlyph name="Eogonek" xMin="66" yMin="-208" xMax="504" yMax="731">
      <contour>
        <pt x="66" y="35" on="1"/>
        <pt x="66" y="696" on="1"/>
        <pt x="66" y="712" on="0"/>
        <pt x="94" y="731" on="0"/>
        <pt x="113" y="731" on="1"/>
        <pt x="469" y="731" on="1"/>
        <pt x="486" y="731" on="0"/>
        <pt x="504" y="703" on="0"/>
        <pt x="504" y="685" on="1"/>
        <pt x="504" y="665" on="0"/>
        <pt x="485" y="637" on="0"/>
        <pt x="469" y="637" on="1"/>
        <pt x="172" y="637" on="1"/>
        <pt x="172" y="408" on="1"/>
        <pt x="326" y="408" on="1"/>
        <pt x="342" y="408" on="0"/>
        <pt x="361" y="383" on="0"/>
        <pt x="361" y="365" on="1"/>
        <pt x="361" y="349" on="0"/>
        <pt x="343" y="324" on="0"/>
        <pt x="326" y="324" on="1"/>
        <pt x="172" y="324" on="1"/>
        <pt x="172" y="94" on="1"/>
        <pt x="469" y="94" on="1"/>
        <pt x="485" y="94" on="0"/>
        <pt x="504" y="66" on="0"/>
        <pt x="504" y="46" on="1"/>
        <pt x="504" y="15" on="0"/>
        <pt x="483" y="3" on="1"/>
        <pt x="411" y="-50" on="0"/>
        <pt x="411" y="-115" on="1"/>
        <pt x="411" y="-161" on="0"/>
        <pt x="471" y="-161" on="1"/>
        <pt x="493" y="-161" on="0"/>
        <pt x="493" y="-186" on="1"/>
        <pt x="493" y="-208" on="0"/>
        <pt x="465" y="-208" on="1"/>
        <pt x="415" y="-208" on="0"/>
        <pt x="356" y="-163" on="0"/>
        <pt x="356" y="-124" on="1"/>
        <pt x="356" y="-56" on="0"/>
        <pt x="415" y="0" on="1"/>
        <pt x="113" y="0" on="1"/>
        <pt x="94" y="0" on="0"/>
        <pt x="66" y="19" on="0"/>
      </contour>
    </TTGlyph>
    <TTGlyph name="Eth" xMin="-4" yMin="0" xMax="523" yMax="731">
      <contour>
        <pt x="-4" y="367" on="0"/>
        <pt x="-4" y="399" on="0"/>
        <pt x="12" y="422" on="0"/>
        <pt x="25" y="422" on="1"/>
        <pt x="74" y="422" on="1"/>
        <pt x="74" y="697" on="1"/>
        <pt x="74" y="711" on="0"/>
        <pt x="101" y="731" on="0"/>
        <pt x="121" y="731" on="1"/>
        <pt x="298" y="731" on="1"/>
        <pt x="400" y="731" on="0"/>
        <pt x="523" y="623" on="0"/>
        <pt x="523" y="508" on="1"/>
        <pt x="523" y="223" on="1"/>
        <pt x="523" y="108" on="0"/>
        <pt x="400" y="0" on="0"/>
        <pt x="298" y="0" on="1"/>
        <pt x="121" y="0" on="1"/>
        <pt x="101" y="0" on="0"/>
        <pt x="74" y="20" on="0"/>
        <pt x="74" y="34" on="1"/>
        <pt x="74" y="344" on="1"/>
        <pt x="25" y="344" on="1"/>
        <pt x="12" y="344" on="0"/>
      </contour>
      <contour>
        <pt x="180" y="94" on="1"/>
        <pt x="298" y="94" on="1"/>
        <pt x="417" y="94" on="0"/>
        <pt x="417" y="223" on="1"/>
        <pt x="417" y="508" on="1"/>
        <pt x="417" y="637" on="0"/>
        <pt x="298" y="637" on="1"/>
        <pt x="180" y="637" on="1"/>
        <pt x="180" y="422" on="1"/>
        <pt x="271" y="422" on="1"/>
        <pt x="285" y="422" on="0"/>
        <pt x="301" y="399" on="0"/>
        <pt x="301" y="367" on="0"/>
        <pt x="285" y="344" on="0"/>
        <pt x="271" y="344" on="1"/>
        <pt x="180" y="344" on="1"/>
      </contour>
    </TTGlyph>
    <TTGlyph name="Euro" xMin="25" yMin="-6" xMax="561" yMax="731">
      <contour>
        <pt x="25" y="273" on="1"/>
        <pt x="25" y="290" on="0"/>
        <pt x="44" y="313" on="0"/>
        <pt x="59" y="313" on="1"/>
        <pt x="112" y="313" on="1"/>
        <pt x="112" y="393" on="1"/>
        <pt x="59" y="393" on="1"/>
        <pt x="44" y="393" on="0"/>
        <pt x="25" y="414" on="0"/>
        <pt x="25" y="430" on="1"/>
        <pt x="25" y="447" on="0"/>
        <pt x="44" y="470" on="0"/>
        <pt x="59" y="470" on="1"/>
        <pt x="112" y="470" on="1"/>
        <pt x="112" y="508" on="1"/>
        <pt x="112" y="623" on="0"/>
        <pt x="234" y="731" on="0"/>
        <pt x="334" y="731" on="1"/>
        <pt x="435" y="731" on="0"/>
        <pt x="561" y="630" on="0"/>
        <pt x="561" y="546" on="1"/>
        <pt x="561" y="518" on="0"/>
        <pt x="536" y="497" on="0"/>
        <pt x="508" y="497" on="1"/>
        <pt x="455" y="497" on="0"/>
        <pt x="455" y="530" on="1"/>
        <pt x="455" y="574" on="0"/>
        <pt x="397" y="637" on="0"/>
        <pt x="337" y="637" on="1"/>
        <pt x="218" y="637" on="0"/>
        <pt x="218" y="508" on="1"/>
        <pt x="218" y="470" on="1"/>
        <pt x="340" y="470" on="1"/>
        <pt x="354" y="470" on="0"/>
        <pt x="376" y="447" on="0"/>
        <pt x="376" y="415" on="0"/>
        <pt x="354" y="393" on="0"/>
        <pt x="340" y="393" on="1"/>
        <pt x="218" y="393" on="1"/>
        <pt x="218" y="313" on="1"/>
        <pt x="340" y="313" on="1"/>
        <pt x="354" y="313" on="0"/>
        <pt x="376" y="290" on="0"/>
        <pt x="376" y="258" on="0"/>
        <pt x="354" y="236" on="0"/>
        <pt x="340" y="236" on="1"/>
        <pt x="218" y="236" on="1"/>
        <pt x="218" y="207" on="1"/>
        <pt x="218" y="159" on="0"/>
        <pt x="276" y="88" on="0"/>
        <pt x="338" y="88" on="1"/>
        <pt x="397" y="88" on="0"/>
        <pt x="454" y="152" on="0"/>
        <pt x="455" y="201" on="1"/>
        <pt x="455" y="234" on="0"/>
        <pt x="508" y="234" on="1"/>
        <pt x="537" y="234" on="0"/>
        <pt x="561" y="213" on="0"/>
        <pt x="561" y="184" on="1"/>
        <pt x="561" y="98" on="0"/>
        <pt x="435" y="-6" on="0"/>
        <pt x="334" y="-6" on="1"/>
        <pt x="230" y="-6" on="0"/>
        <pt x="112" y="107" on="0"/>
        <pt x="112" y="207" on="1"/>
        <pt x="112" y="236" on="1"/>
        <pt x="59" y="236" on="1"/>
        <pt x="44" y="236" on="0"/>
        <pt x="25" y="257" on="0"/>
      </contour>
    </TTGlyph>
    <TTGlyph name="F" xMin="66" yMin="0" xMax="498" yMax="731">
      <contour>
        <pt x="66" y="35" on="1"/>
        <pt x="66" y="696" on="1"/>
        <pt x="66" y="712" on="0"/>
        <pt x="94" y="731" on="0"/>
        <pt x="113" y="731" on="1"/>
        <pt x="464" y="731" on="1"/>
        <pt x="481" y="731" on="0"/>
        <pt x="498" y="704" on="0"/>
        <pt x="498" y="685" on="1"/>
        <pt x="498" y="665" on="0"/>
        <pt x="480" y="637" on="0"/>
        <pt x="464" y="637" on="1"/>
        <pt x="172" y="637" on="1"/>
        <pt x="172" y="408" on="1"/>
        <pt x="327" y="408" on="1"/>
        <pt x="343" y="408" on="0"/>
        <pt x="361" y="383" on="0"/>
        <pt x="361" y="365" on="1"/>
        <pt x="361" y="349" on="0"/>
        <pt x="344" y="324" on="0"/>
        <pt x="327" y="324" on="1"/>
        <pt x="172" y="324" on="1"/>
        <pt x="172" y="35" on="1"/>
        <pt x="172" y="18" on="0"/>
        <pt x="141" y="0" on="0"/>
        <pt x="119" y="0" on="1"/>
        <pt x="98" y="0" on="0"/>
        <pt x="66" y="18" on="0"/>
      </contour>
    </TTGlyph>
    <TTGlyph name="G" xMin="59" yMin="-6" xMax="508" yMax="731">
      <contour>
        <pt x="59" y="217" on="1"/>
        <pt x="59" y="508" on="1"/>
        <pt x="59" y="623" on="0"/>
        <pt x="181" y="731" on="0"/>
        <pt x="280" y="731" on="1"/>
        <pt x="381" y="731" on="0"/>
        <pt x="508" y="630" on="0"/>
        <pt x="508" y="546" on="1"/>
        <pt x="508" y="517" on="0"/>
        <pt x="483" y="495" on="0"/>
        <pt x="455" y="495" on="1"/>
        <pt x="403" y="495" on="0"/>
        <pt x="402" y="530" on="1"/>
        <pt x="391" y="637" on="0"/>
        <pt x="283" y="637" on="1"/>
        <pt x="165" y="637" on="0"/>
        <pt x="165" y="508" on="1"/>
        <pt x="165" y="217" on="1"/>
        <pt x="165" y="88" on="0"/>
        <pt x="283" y="88" on="1"/>
        <pt x="340" y="88" on="0"/>
        <pt x="402" y="152" on="0"/>
        <pt x="402" y="217" on="1"/>
        <pt x="402" y="299" on="1"/>
        <pt x="301" y="299" on="1"/>
        <pt x="285" y="299" on="0"/>
        <pt x="267" y="324" on="0"/>
        <pt x="267" y="342" on="1"/>
        <pt x="267" y="358" on="0"/>
        <pt x="285" y="384" on="0"/>
        <pt x="301" y="384" on="1"/>
        <pt x="473" y="384" on="1"/>
        <pt x="489" y="384" on="0"/>
        <pt x="508" y="363" on="0"/>
        <pt x="508" y="348" on="1"/>
        <pt x="508" y="217" on="1"/>
        <pt x="508" y="102" on="0"/>
        <pt x="385" y="-6" on="0"/>
        <pt x="181" y="-6" on="0"/>
        <pt x="59" y="102" on="0"/>
      </contour>
    </TTGlyph>
    <TTGlyph name="Gbreve" xMin="59" yMin="-6" xMax="508" yMax="965">
      <contour>
        <pt x="59" y="217" on="1"/>
        <pt x="59" y="508" on="1"/>
        <pt x="59" y="623" on="0"/>
        <pt x="181" y="731" on="0"/>
        <pt x="280" y="731" on="1"/>
        <pt x="381" y="731" on="0"/>
        <pt x="508" y="630" on="0"/>
        <pt x="508" y="546" on="1"/>
        <pt x="508" y="517" on="0"/>
        <pt x="483" y="495" on="0"/>
        <pt x="455" y="495" on="1"/>
        <pt x="403" y="495" on="0"/>
        <pt x="402" y="530" on="1"/>
        <pt x="391" y="637" on="0"/>
        <pt x="283" y="637" on="1"/>
        <pt x="165" y="637" on="0"/>
        <pt x="165" y="508" on="1"/>
        <pt x="165" y="217" on="1"/>
        <pt x="165" y="88" on="0"/>
        <pt x="283" y="88" on="1"/>
        <pt x="340" y="88" on="0"/>
        <pt x="402" y="152" on="0"/>
        <pt x="402" y="217" on="1"/>
        <pt x="402" y="299" on="1"/>
        <pt x="301" y="299" on="1"/>
        <pt x="285" y="299" on="0"/>
        <pt x="267" y="324" on="0"/>
        <pt x="267" y="342" on="1"/>
        <pt x="267" y="358" on="0"/>
        <pt x="285" y="384" on="0"/>
        <pt x="301" y="384" on="1"/>
        <pt x="473" y="384" on="1"/>
        <pt x="489" y="384" on="0"/>
        <pt x="508" y="363" on="0"/>
        <pt x="508" y="348" on="1"/>
        <pt x="508" y="217" on="1"/>
        <pt x="508" y="102" on="0"/>
        <pt x="385" y="-6" on="0"/>
        <pt x="181" y="-6" on="0"/>
        <pt x="59" y="102" on="0"/>
      </contour>
      <contour>
        <pt x="155" y="965" on="1"/>
        <pt x="215" y="965" on="1"/>
        <pt x="215" y="933" on="0"/>
        <pt x="256" y="888" on="0"/>
        <pt x="308" y="888" on="0"/>
        <pt x="348" y="933" on="0"/>
        <pt x="348" y="965" on="1"/>
        <pt x="409" y="965" on="1"/>
        <pt x="409" y="915" on="0"/>
        <pt x="331" y="839" on="0"/>
        <pt x="282" y="839" on="1"/>
        <pt x="232" y="839" on="0"/>
        <pt x="155" y="914" on="0"/>
      </contour>
    </TTGlyph>
    <TTGlyph name="Gcircumflex" xMin="59" yMin="-6" xMax="508" yMax="956">
      <contour>
        <pt x="59" y="217" on="1"/>
        <pt x="59" y="508" on="1"/>
        <pt x="59" y="623" on="0"/>
        <pt x="181" y="731" on="0"/>
        <pt x="280" y="731" on="1"/>
        <pt x="381" y="731" on="0"/>
        <pt x="508" y="630" on="0"/>
        <pt x="508" y="546" on="1"/>
        <pt x="508" y="517" on="0"/>
        <pt x="483" y="495" on="0"/>
        <pt x="455" y="495" on="1"/>
        <pt x="403" y="495" on="0"/>
        <pt x="402" y="530" on="1"/>
        <pt x="391" y="637" on="0"/>
        <pt x="283" y="637" on="1"/>
        <pt x="165" y="637" on="0"/>
        <pt x="165" y="508" on="1"/>
        <pt x="165" y="217" on="1"/>
        <pt x="165" y="88" on="0"/>
        <pt x="283" y="88" on="1"/>
        <pt x="340" y="88" on="0"/>
        <pt x="402" y="152" on="0"/>
        <pt x="402" y="217" on="1"/>
        <pt x="402" y="299" on="1"/>
        <pt x="301" y="299" on="1"/>
        <pt x="285" y="299" on="0"/>
        <pt x="267" y="324" on="0"/>
        <pt x="267" y="342" on="1"/>
        <pt x="267" y="358" on="0"/>
        <pt x="285" y="384" on="0"/>
        <pt x="301" y="384" on="1"/>
        <pt x="473" y="384" on="1"/>
        <pt x="489" y="384" on="0"/>
        <pt x="508" y="363" on="0"/>
        <pt x="508" y="348" on="1"/>
        <pt x="508" y="217" on="1"/>
        <pt x="508" y="102" on="0"/>
        <pt x="385" y="-6" on="0"/>
        <pt x="181" y="-6" on="0"/>
        <pt x="59" y="102" on="0"/>
      </contour>
      <contour>
        <pt x="135" y="864" on="1"/>
        <pt x="135" y="885" on="0"/>
        <pt x="153" y="895" on="1"/>
        <pt x="257" y="951" on="1"/>
        <pt x="267" y="956" on="0"/>
        <pt x="274" y="956" on="1"/>
        <pt x="283" y="956" on="0"/>
        <pt x="291" y="951" on="1"/>
        <pt x="395" y="896" on="1"/>
        <pt x="414" y="884" on="0"/>
        <pt x="414" y="863" on="1"/>
        <pt x="414" y="850" on="0"/>
        <pt x="399" y="829" on="0"/>
        <pt x="388" y="829" on="1"/>
        <pt x="386" y="829" on="0"/>
        <pt x="382" y="830" on="1"/>
        <pt x="380" y="832" on="0"/>
        <pt x="378" y="832" on="1"/>
        <pt x="274" y="888" on="1"/>
        <pt x="170" y="832" on="1"/>
        <pt x="166" y="829" on="0"/>
        <pt x="161" y="829" on="1"/>
        <pt x="150" y="829" on="0"/>
        <pt x="135" y="850" on="0"/>
      </contour>
    </TTGlyph>
    <TTGlyph name="Gcommaaccent" xMin="58" yMin="-181" xMax="507" yMax="731">
      <contour>
        <pt x="58" y="217" on="1"/>
        <pt x="58" y="508" on="1"/>
        <pt x="58" y="623" on="0"/>
        <pt x="180" y="731" on="0"/>
        <pt x="279" y="731" on="1"/>
        <pt x="380" y="731" on="0"/>
        <pt x="507" y="630" on="0"/>
        <pt x="507" y="546" on="1"/>
        <pt x="507" y="517" on="0"/>
        <pt x="482" y="495" on="0"/>
        <pt x="454" y="495" on="1"/>
        <pt x="402" y="495" on="0"/>
        <pt x="401" y="530" on="1"/>
        <pt x="390" y="637" on="0"/>
        <pt x="282" y="637" on="1"/>
        <pt x="164" y="637" on="0"/>
        <pt x="164" y="508" on="1"/>
        <pt x="164" y="217" on="1"/>
        <pt x="164" y="88" on="0"/>
        <pt x="282" y="88" on="1"/>
        <pt x="339" y="88" on="0"/>
        <pt x="401" y="152" on="0"/>
        <pt x="401" y="217" on="1"/>
        <pt x="401" y="299" on="1"/>
        <pt x="300" y="299" on="1"/>
        <pt x="284" y="299" on="0"/>
        <pt x="266" y="324" on="0"/>
        <pt x="266" y="342" on="1"/>
        <pt x="266" y="358" on="0"/>
        <pt x="284" y="384" on="0"/>
        <pt x="300" y="384" on="1"/>
        <pt x="472" y="384" on="1"/>
        <pt x="488" y="384" on="0"/>
        <pt x="507" y="363" on="0"/>
        <pt x="507" y="348" on="1"/>
        <pt x="507" y="217" on="1"/>
        <pt x="507" y="102" on="0"/>
        <pt x="384" y="-6" on="0"/>
        <pt x="180" y="-6" on="0"/>
        <pt x="58" y="102" on="0"/>
      </contour>
      <contour>
        <pt x="188" y="-139" on="1"/>
        <pt x="188" y="-121" on="0"/>
        <pt x="203" y="-113" on="1"/>
        <pt x="327" y="-51" on="1"/>
        <pt x="333" y="-48" on="0"/>
        <pt x="338" y="-48" on="1"/>
        <pt x="352" y="-48" on="0"/>
        <pt x="372" y="-74" on="0"/>
        <pt x="372" y="-89" on="1"/>
        <pt x="372" y="-108" on="0"/>
        <pt x="356" y="-117" on="1"/>
        <pt x="235" y="-177" on="1"/>
        <pt x="227" y="-181" on="0"/>
        <pt x="223" y="-181" on="1"/>
        <pt x="209" y="-181" on="0"/>
        <pt x="188" y="-155" on="0"/>
      </contour>
    </TTGlyph>
    <TTGlyph name="Gdotaccent" xMin="59" yMin="-6" xMax="508" yMax="923">
      <contour>
        <pt x="59" y="217" on="1"/>
        <pt x="59" y="508" on="1"/>
        <pt x="59" y="623" on="0"/>
        <pt x="181" y="731" on="0"/>
        <pt x="280" y="731" on="1"/>
        <pt x="381" y="731" on="0"/>
        <pt x="508" y="630" on="0"/>
        <pt x="508" y="546" on="1"/>
        <pt x="508" y="517" on="0"/>
        <pt x="483" y="495" on="0"/>
        <pt x="455" y="495" on="1"/>
        <pt x="403" y="495" on="0"/>
        <pt x="402" y="530" on="1"/>
        <pt x="391" y="637" on="0"/>
        <pt x="283" y="637" on="1"/>
        <pt x="165" y="637" on="0"/>
        <pt x="165" y="508" on="1"/>
        <pt x="165" y="217" on="1"/>
        <pt x="165" y="88" on="0"/>
        <pt x="283" y="88" on="1"/>
        <pt x="340" y="88" on="0"/>
        <pt x="402" y="152" on="0"/>
        <pt x="402" y="217" on="1"/>
        <pt x="402" y="299" on="1"/>
        <pt x="301" y="299" on="1"/>
        <pt x="285" y="299" on="0"/>
        <pt x="267" y="324" on="0"/>
        <pt x="267" y="342" on="1"/>
        <pt x="267" y="358" on="0"/>
        <pt x="285" y="384" on="0"/>
        <pt x="301" y="384" on="1"/>
        <pt x="473" y="384" on="1"/>
        <pt x="489" y="384" on="0"/>
        <pt x="508" y="363" on="0"/>
        <pt x="508" y="348" on="1"/>
        <pt x="508" y="217" on="1"/>
        <pt x="508" y="102" on="0"/>
        <pt x="385" y="-6" on="0"/>
        <pt x="181" y="-6" on="0"/>
        <pt x="59" y="102" on="0"/>
      </contour>
      <contour>
        <pt x="235" y="858" on="0"/>
        <pt x="235" y="896" on="0"/>
        <pt x="261" y="923" on="0"/>
        <pt x="299" y="923" on="0"/>
        <pt x="325" y="896" on="0"/>
        <pt x="325" y="858" on="0"/>
        <pt x="299" y="830" on="0"/>
        <pt x="261" y="830" on="0"/>
      </contour>
    </TTGlyph>
    <TTGlyph name="H" xMin="66" yMin="0" xMax="527" yMax="731">
      <contour>
        <pt x="66" y="35" on="1"/>
        <pt x="66" y="697" on="1"/>
        <pt x="66" y="714" on="0"/>
        <pt x="97" y="731" on="0"/>
        <pt x="141" y="731" on="0"/>
        <pt x="172" y="714" on="0"/>
        <pt x="172" y="697" on="1"/>
        <pt x="172" y="421" on="1"/>
        <pt x="421" y="421" on="1"/>
        <pt x="421" y="697" on="1"/>
        <pt x="421" y="714" on="0"/>
        <pt x="452" y="731" on="0"/>
        <pt x="496" y="731" on="0"/>
        <pt x="527" y="714" on="0"/>
        <pt x="527" y="697" on="1"/>
        <pt x="527" y="35" on="1"/>
        <pt x="527" y="19" on="0"/>
        <pt x="496" y="0" on="0"/>
        <pt x="474" y="0" on="1"/>
        <pt x="453" y="0" on="0"/>
        <pt x="421" y="19" on="0"/>
        <pt x="421" y="35" on="1"/>
        <pt x="421" y="337" on="1"/>
        <pt x="172" y="337" on="1"/>
        <pt x="172" y="35" on="1"/>
        <pt x="172" y="19" on="0"/>
        <pt x="141" y="0" on="0"/>
        <pt x="119" y="0" on="1"/>
        <pt x="98" y="0" on="0"/>
        <pt x="66" y="19" on="0"/>
      </contour>
    </TTGlyph>
    <TTGlyph name="Hbar" xMin="19" yMin="0" xMax="579" yMax="731">
      <contour>
        <pt x="19" y="557" on="0"/>
        <pt x="19" y="587" on="0"/>
        <pt x="34" y="608" on="0"/>
        <pt x="48" y="608" on="1"/>
        <pt x="68" y="608" on="1"/>
        <pt x="68" y="697" on="1"/>
        <pt x="68" y="714" on="0"/>
        <pt x="99" y="731" on="0"/>
        <pt x="143" y="731" on="0"/>
        <pt x="174" y="714" on="0"/>
        <pt x="174" y="697" on="1"/>
        <pt x="174" y="608" on="1"/>
        <pt x="423" y="608" on="1"/>
        <pt x="423" y="697" on="1"/>
        <pt x="423" y="714" on="0"/>
        <pt x="454" y="731" on="0"/>
        <pt x="498" y="731" on="0"/>
        <pt x="529" y="714" on="0"/>
        <pt x="529" y="697" on="1"/>
        <pt x="529" y="608" on="1"/>
        <pt x="549" y="608" on="1"/>
        <pt x="562" y="608" on="0"/>
        <pt x="579" y="586" on="0"/>
        <pt x="579" y="572" on="1"/>
        <pt x="579" y="557" on="0"/>
        <pt x="562" y="537" on="0"/>
        <pt x="549" y="537" on="1"/>
        <pt x="529" y="537" on="1"/>
        <pt x="529" y="35" on="1"/>
        <pt x="529" y="19" on="0"/>
        <pt x="498" y="0" on="0"/>
        <pt x="476" y="0" on="1"/>
        <pt x="455" y="0" on="0"/>
        <pt x="423" y="19" on="0"/>
        <pt x="423" y="35" on="1"/>
        <pt x="423" y="337" on="1"/>
        <pt x="174" y="337" on="1"/>
        <pt x="174" y="35" on="1"/>
        <pt x="174" y="19" on="0"/>
        <pt x="143" y="0" on="0"/>
        <pt x="121" y="0" on="1"/>
        <pt x="100" y="0" on="0"/>
        <pt x="68" y="19" on="0"/>
        <pt x="68" y="35" on="1"/>
        <pt x="68" y="537" on="1"/>
        <pt x="48" y="537" on="1"/>
        <pt x="34" y="537" on="0"/>
      </contour>
      <contour>
        <pt x="174" y="421" on="1"/>
        <pt x="423" y="421" on="1"/>
        <pt x="423" y="537" on="1"/>
        <pt x="174" y="537" on="1"/>
      </contour>
    </TTGlyph>
    <TTGlyph name="Hcircumflex" xMin="66" yMin="0" xMax="527" yMax="956">
      <contour>
        <pt x="66" y="35" on="1"/>
        <pt x="66" y="697" on="1"/>
        <pt x="66" y="714" on="0"/>
        <pt x="97" y="731" on="0"/>
        <pt x="141" y="731" on="0"/>
        <pt x="172" y="714" on="0"/>
        <pt x="172" y="697" on="1"/>
        <pt x="172" y="421" on="1"/>
        <pt x="421" y="421" on="1"/>
        <pt x="421" y="697" on="1"/>
        <pt x="421" y="714" on="0"/>
        <pt x="452" y="731" on="0"/>
        <pt x="496" y="731" on="0"/>
        <pt x="527" y="714" on="0"/>
        <pt x="527" y="697" on="1"/>
        <pt x="527" y="35" on="1"/>
        <pt x="527" y="19" on="0"/>
        <pt x="496" y="0" on="0"/>
        <pt x="474" y="0" on="1"/>
        <pt x="453" y="0" on="0"/>
        <pt x="421" y="19" on="0"/>
        <pt x="421" y="35" on="1"/>
        <pt x="421" y="337" on="1"/>
        <pt x="172" y="337" on="1"/>
        <pt x="172" y="35" on="1"/>
        <pt x="172" y="19" on="0"/>
        <pt x="141" y="0" on="0"/>
        <pt x="119" y="0" on="1"/>
        <pt x="98" y="0" on="0"/>
        <pt x="66" y="19" on="0"/>
      </contour>
      <contour>
        <pt x="158" y="864" on="1"/>
        <pt x="158" y="885" on="0"/>
        <pt x="176" y="895" on="1"/>
        <pt x="280" y="951" on="1"/>
        <pt x="290" y="956" on="0"/>
        <pt x="297" y="956" on="1"/>
        <pt x="306" y="956" on="0"/>
        <pt x="314" y="951" on="1"/>
        <pt x="418" y="896" on="1"/>
        <pt x="437" y="884" on="0"/>
        <pt x="437" y="863" on="1"/>
        <pt x="437" y="850" on="0"/>
        <pt x="422" y="829" on="0"/>
        <pt x="411" y="829" on="1"/>
        <pt x="409" y="829" on="0"/>
        <pt x="405" y="830" on="1"/>
        <pt x="403" y="832" on="0"/>
        <pt x="401" y="832" on="1"/>
        <pt x="297" y="888" on="1"/>
        <pt x="193" y="832" on="1"/>
        <pt x="188" y="829" on="0"/>
        <pt x="184" y="829" on="1"/>
        <pt x="173" y="829" on="0"/>
        <pt x="158" y="850" on="0"/>
      </contour>
    </TTGlyph>
    <TTGlyph name="I" xMin="66" yMin="0" xMax="172" yMax="731">
      <contour>
        <pt x="66" y="35" on="1"/>
        <pt x="66" y="697" on="1"/>
        <pt x="66" y="714" on="0"/>
        <pt x="97" y="731" on="0"/>
        <pt x="141" y="731" on="0"/>
        <pt x="172" y="714" on="0"/>
        <pt x="172" y="697" on="1"/>
        <pt x="172" y="35" on="1"/>
        <pt x="172" y="19" on="0"/>
        <pt x="141" y="0" on="0"/>
        <pt x="119" y="0" on="1"/>
        <pt x="98" y="0" on="0"/>
        <pt x="66" y="19" on="0"/>
      </contour>
    </TTGlyph>
    <TTGlyph name="IJ" xMin="66" yMin="-6" xMax="697" yMax="731">
      <contour>
        <pt x="66" y="35" on="1"/>
        <pt x="66" y="697" on="1"/>
        <pt x="66" y="714" on="0"/>
        <pt x="97" y="731" on="0"/>
        <pt x="141" y="731" on="0"/>
        <pt x="172" y="714" on="0"/>
        <pt x="172" y="697" on="1"/>
        <pt x="172" y="35" on="1"/>
        <pt x="172" y="19" on="0"/>
        <pt x="141" y="0" on="0"/>
        <pt x="119" y="0" on="1"/>
        <pt x="98" y="0" on="0"/>
        <pt x="66" y="19" on="0"/>
      </contour>
      <contour>
        <pt x="247" y="185" on="1"/>
        <pt x="247" y="214" on="0"/>
        <pt x="273" y="236" on="0"/>
        <pt x="301" y="236" on="1"/>
        <pt x="352" y="236" on="0"/>
        <pt x="353" y="201" on="1"/>
        <pt x="355" y="152" on="0"/>
        <pt x="413" y="88" on="0"/>
        <pt x="471" y="88" on="1"/>
        <pt x="591" y="88" on="0"/>
        <pt x="591" y="217" on="1"/>
        <pt x="591" y="637" on="1"/>
        <pt x="474" y="637" on="1"/>
        <pt x="458" y="637" on="0"/>
        <pt x="439" y="665" on="0"/>
        <pt x="439" y="685" on="1"/>
        <pt x="439" y="704" on="0"/>
        <pt x="457" y="731" on="0"/>
        <pt x="474" y="731" on="1"/>
        <pt x="650" y="731" on="1"/>
        <pt x="669" y="731" on="0"/>
        <pt x="697" y="712" on="0"/>
        <pt x="697" y="696" on="1"/>
        <pt x="697" y="217" on="1"/>
        <pt x="697" y="102" on="0"/>
        <pt x="575" y="-6" on="0"/>
        <pt x="475" y="-6" on="1"/>
        <pt x="374" y="-6" on="0"/>
        <pt x="247" y="99" on="0"/>
      </contour>
    </TTGlyph>
    <TTGlyph name="Iacute" xMin="32" yMin="0" xMax="216" yMax="956">
      <contour>
        <pt x="32" y="865" on="1"/>
        <pt x="32" y="883" on="0"/>
        <pt x="47" y="891" on="1"/>
        <pt x="171" y="954" on="1"/>
        <pt x="179" y="956" on="0"/>
        <pt x="182" y="956" on="1"/>
        <pt x="196" y="956" on="0"/>
        <pt x="216" y="930" on="0"/>
        <pt x="216" y="915" on="1"/>
        <pt x="216" y="895" on="0"/>
        <pt x="200" y="888" on="1"/>
        <pt x="79" y="827" on="1"/>
        <pt x="73" y="824" on="0"/>
        <pt x="67" y="824" on="1"/>
        <pt x="53" y="824" on="0"/>
        <pt x="32" y="850" on="0"/>
      </contour>
      <contour>
        <pt x="66" y="35" on="1"/>
        <pt x="66" y="697" on="1"/>
        <pt x="66" y="714" on="0"/>
        <pt x="97" y="731" on="0"/>
        <pt x="141" y="731" on="0"/>
        <pt x="172" y="714" on="0"/>
        <pt x="172" y="697" on="1"/>
        <pt x="172" y="35" on="1"/>
        <pt x="172" y="19" on="0"/>
        <pt x="141" y="0" on="0"/>
        <pt x="119" y="0" on="1"/>
        <pt x="98" y="0" on="0"/>
        <pt x="66" y="19" on="0"/>
      </contour>
    </TTGlyph>
    <TTGlyph name="Ibreve" xMin="-7" yMin="0" xMax="247" yMax="965">
      <contour>
        <pt x="-7" y="965" on="1"/>
        <pt x="53" y="965" on="1"/>
        <pt x="53" y="933" on="0"/>
        <pt x="94" y="888" on="0"/>
        <pt x="146" y="888" on="0"/>
        <pt x="186" y="933" on="0"/>
        <pt x="186" y="965" on="1"/>
        <pt x="247" y="965" on="1"/>
        <pt x="247" y="915" on="0"/>
        <pt x="169" y="839" on="0"/>
        <pt x="120" y="839" on="1"/>
        <pt x="70" y="839" on="0"/>
        <pt x="-7" y="914" on="0"/>
      </contour>
      <contour>
        <pt x="66" y="35" on="1"/>
        <pt x="66" y="697" on="1"/>
        <pt x="66" y="714" on="0"/>
        <pt x="97" y="731" on="0"/>
        <pt x="141" y="731" on="0"/>
        <pt x="172" y="714" on="0"/>
        <pt x="172" y="697" on="1"/>
        <pt x="172" y="35" on="1"/>
        <pt x="172" y="19" on="0"/>
        <pt x="141" y="0" on="0"/>
        <pt x="119" y="0" on="1"/>
        <pt x="98" y="0" on="0"/>
        <pt x="66" y="19" on="0"/>
      </contour>
    </TTGlyph>
    <TTGlyph name="Icircumflex" xMin="-19" yMin="0" xMax="260" yMax="956">
      <contour>
        <pt x="-19" y="864" on="1"/>
        <pt x="-19" y="885" on="0"/>
        <pt x="-1" y="895" on="1"/>
        <pt x="103" y="951" on="1"/>
        <pt x="113" y="956" on="0"/>
        <pt x="120" y="956" on="1"/>
        <pt x="129" y="956" on="0"/>
        <pt x="137" y="951" on="1"/>
        <pt x="241" y="896" on="1"/>
        <pt x="260" y="884" on="0"/>
        <pt x="260" y="863" on="1"/>
        <pt x="260" y="850" on="0"/>
        <pt x="245" y="829" on="0"/>
        <pt x="234" y="829" on="1"/>
        <pt x="232" y="829" on="0"/>
        <pt x="228" y="830" on="1"/>
        <pt x="226" y="832" on="0"/>
        <pt x="224" y="832" on="1"/>
        <pt x="120" y="888" on="1"/>
        <pt x="16" y="832" on="1"/>
        <pt x="12" y="829" on="0"/>
        <pt x="7" y="829" on="1"/>
        <pt x="-4" y="829" on="0"/>
        <pt x="-19" y="850" on="0"/>
      </contour>
      <contour>
        <pt x="66" y="35" on="1"/>
        <pt x="66" y="697" on="1"/>
        <pt x="66" y="714" on="0"/>
        <pt x="97" y="731" on="0"/>
        <pt x="141" y="731" on="0"/>
        <pt x="172" y="714" on="0"/>
        <pt x="172" y="697" on="1"/>
        <pt x="172" y="35" on="1"/>
        <pt x="172" y="19" on="0"/>
        <pt x="141" y="0" on="0"/>
        <pt x="119" y="0" on="1"/>
        <pt x="98" y="0" on="0"/>
        <pt x="66" y="19" on="0"/>
      </contour>
    </TTGlyph>
    <TTGlyph name="Idieresis" xMin="5" yMin="0" xMax="235" yMax="923">
      <contour>
        <pt x="5" y="858" on="0"/>
        <pt x="5" y="896" on="0"/>
        <pt x="32" y="923" on="0"/>
        <pt x="70" y="923" on="0"/>
        <pt x="95" y="896" on="0"/>
        <pt x="95" y="858" on="0"/>
        <pt x="69" y="830" on="0"/>
        <pt x="51" y="830" on="1"/>
        <pt x="32" y="830" on="0"/>
      </contour>
      <contour>
        <pt x="66" y="35" on="1"/>
        <pt x="66" y="697" on="1"/>
        <pt x="66" y="714" on="0"/>
        <pt x="97" y="731" on="0"/>
        <pt x="141" y="731" on="0"/>
        <pt x="172" y="714" on="0"/>
        <pt x="172" y="697" on="1"/>
        <pt x="172" y="35" on="1"/>
        <pt x="172" y="19" on="0"/>
        <pt x="141" y="0" on="0"/>
        <pt x="119" y="0" on="1"/>
        <pt x="98" y="0" on="0"/>
        <pt x="66" y="19" on="0"/>
      </contour>
      <contour>
        <pt x="145" y="858" on="0"/>
        <pt x="145" y="896" on="0"/>
        <pt x="171" y="923" on="0"/>
        <pt x="209" y="923" on="0"/>
        <pt x="235" y="896" on="0"/>
        <pt x="235" y="858" on="0"/>
        <pt x="209" y="830" on="0"/>
        <pt x="171" y="830" on="0"/>
      </contour>
    </TTGlyph>
    <TTGlyph name="Idotaccent" xMin="66" yMin="0" xMax="172" yMax="923">
      <contour>
        <pt x="66" y="35" on="1"/>
        <pt x="66" y="697" on="1"/>
        <pt x="66" y="714" on="0"/>
        <pt x="97" y="731" on="0"/>
        <pt x="141" y="731" on="0"/>
        <pt x="172" y="714" on="0"/>
        <pt x="172" y="697" on="1"/>
        <pt x="172" y="35" on="1"/>
        <pt x="172" y="19" on="0"/>
        <pt x="141" y="0" on="0"/>
        <pt x="119" y="0" on="1"/>
        <pt x="98" y="0" on="0"/>
        <pt x="66" y="19" on="0"/>
      </contour>
      <contour>
        <pt x="74" y="858" on="0"/>
        <pt x="74" y="896" on="0"/>
        <pt x="100" y="923" on="0"/>
        <pt x="138" y="923" on="0"/>
        <pt x="164" y="896" on="0"/>
        <pt x="164" y="858" on="0"/>
        <pt x="138" y="830" on="0"/>
        <pt x="100" y="830" on="0"/>
      </contour>
    </TTGlyph>
    <TTGlyph name="Igrave" xMin="22" yMin="0" xMax="206" yMax="956">
      <contour>
        <pt x="22" y="915" on="1"/>
        <pt x="22" y="930" on="0"/>
        <pt x="42" y="956" on="0"/>
        <pt x="56" y="956" on="1"/>
        <pt x="59" y="956" on="0"/>
        <pt x="67" y="954" on="1"/>
        <pt x="191" y="891" on="1"/>
        <pt x="206" y="883" on="0"/>
        <pt x="206" y="865" on="1"/>
        <pt x="206" y="850" on="0"/>
        <pt x="186" y="824" on="0"/>
        <pt x="172" y="824" on="1"/>
        <pt x="165" y="824" on="0"/>
        <pt x="159" y="827" on="1"/>
        <pt x="38" y="888" on="1"/>
        <pt x="22" y="895" on="0"/>
      </contour>
      <contour>
        <pt x="66" y="35" on="1"/>
        <pt x="66" y="697" on="1"/>
        <pt x="66" y="714" on="0"/>
        <pt x="97" y="731" on="0"/>
        <pt x="141" y="731" on="0"/>
        <pt x="172" y="714" on="0"/>
        <pt x="172" y="697" on="1"/>
        <pt x="172" y="35" on="1"/>
        <pt x="172" y="19" on="0"/>
        <pt x="141" y="0" on="0"/>
        <pt x="119" y="0" on="1"/>
        <pt x="98" y="0" on="0"/>
        <pt x="66" y="19" on="0"/>
      </contour>
    </TTGlyph>
    <TTGlyph name="Imacron" xMin="-20" yMin="0" xMax="258" yMax="939">
      <contour>
        <pt x="-20" y="886" on="0"/>
        <pt x="-20" y="918" on="0"/>
        <pt x="-1" y="939" on="0"/>
        <pt x="14" y="939" on="1"/>
        <pt x="223" y="939" on="1"/>
        <pt x="237" y="939" on="0"/>
        <pt x="258" y="917" on="0"/>
        <pt x="258" y="887" on="0"/>
        <pt x="237" y="867" on="0"/>
        <pt x="223" y="867" on="1"/>
        <pt x="14" y="867" on="1"/>
        <pt x="-1" y="867" on="0"/>
      </contour>
      <contour>
        <pt x="66" y="35" on="1"/>
        <pt x="66" y="697" on="1"/>
        <pt x="66" y="714" on="0"/>
        <pt x="97" y="731" on="0"/>
        <pt x="141" y="731" on="0"/>
        <pt x="172" y="714" on="0"/>
        <pt x="172" y="697" on="1"/>
        <pt x="172" y="35" on="1"/>
        <pt x="172" y="19" on="0"/>
        <pt x="141" y="0" on="0"/>
        <pt x="119" y="0" on="1"/>
        <pt x="98" y="0" on="0"/>
        <pt x="66" y="19" on="0"/>
      </contour>
    </TTGlyph>
    <TTGlyph name="Iogonek" xMin="21" yMin="-206" xMax="172" yMax="731">
      <contour>
        <pt x="21" y="-122" on="1"/>
        <pt x="21" y="-52" on="0"/>
        <pt x="86" y="7" on="1"/>
        <pt x="66" y="17" on="0"/>
        <pt x="66" y="35" on="1"/>
        <pt x="66" y="697" on="1"/>
        <pt x="66" y="714" on="0"/>
        <pt x="97" y="731" on="0"/>
        <pt x="141" y="731" on="0"/>
        <pt x="172" y="714" on="0"/>
        <pt x="172" y="697" on="1"/>
        <pt x="172" y="35" on="1"/>
        <pt x="172" y="14" on="0"/>
        <pt x="148" y="5" on="1"/>
        <pt x="76" y="-49" on="0"/>
        <pt x="76" y="-113" on="1"/>
        <pt x="76" y="-159" on="0"/>
        <pt x="136" y="-159" on="1"/>
        <pt x="158" y="-159" on="0"/>
        <pt x="158" y="-184" on="1"/>
        <pt x="158" y="-206" on="0"/>
        <pt x="130" y="-206" on="1"/>
        <pt x="80" y="-206" on="0"/>
        <pt x="21" y="-161" on="0"/>
      </contour>
    </TTGlyph>
    <TTGlyph name="Itilde" xMin="-46" yMin="0" xMax="284" yMax="947">
      <contour>
        <pt x="-46" y="883" on="1"/>
        <pt x="-46" y="917" on="0"/>
        <pt x="12" y="947" on="0"/>
        <pt x="41" y="947" on="1"/>
        <pt x="69" y="947" on="0"/>
        <pt x="152" y="916" on="0"/>
        <pt x="179" y="916" on="1"/>
        <pt x="203" y="916" on="0"/>
        <pt x="249" y="941" on="0"/>
        <pt x="256" y="941" on="1"/>
        <pt x="270" y="941" on="0"/>
        <pt x="284" y="917" on="0"/>
        <pt x="284" y="907" on="1"/>
        <pt x="284" y="871" on="0"/>
        <pt x="228" y="843" on="0"/>
        <pt x="199" y="843" on="1"/>
        <pt x="167" y="843" on="0"/>
        <pt x="85" y="874" on="0"/>
        <pt x="60" y="874" on="1"/>
        <pt x="36" y="874" on="0"/>
        <pt x="-11" y="847" on="0"/>
        <pt x="-18" y="847" on="1"/>
        <pt x="-32" y="847" on="0"/>
        <pt x="-46" y="872" on="0"/>
      </contour>
      <contour>
        <pt x="66" y="35" on="1"/>
        <pt x="66" y="697" on="1"/>
        <pt x="66" y="714" on="0"/>
        <pt x="97" y="731" on="0"/>
        <pt x="141" y="731" on="0"/>
        <pt x="172" y="714" on="0"/>
        <pt x="172" y="697" on="1"/>
        <pt x="172" y="35" on="1"/>
        <pt x="172" y="19" on="0"/>
        <pt x="141" y="0" on="0"/>
        <pt x="119" y="0" on="1"/>
        <pt x="98" y="0" on="0"/>
        <pt x="66" y="19" on="0"/>
      </contour>
    </TTGlyph>
    <TTGlyph name="J" xMin="17" yMin="-6" xMax="467" yMax="731">
      <contour>
        <pt x="17" y="185" on="1"/>
        <pt x="17" y="214" on="0"/>
        <pt x="43" y="236" on="0"/>
        <pt x="71" y="236" on="1"/>
        <pt x="122" y="236" on="0"/>
        <pt x="123" y="201" on="1"/>
        <pt x="125" y="152" on="0"/>
        <pt x="183" y="88" on="0"/>
        <pt x="241" y="88" on="1"/>
        <pt x="361" y="88" on="0"/>
        <pt x="361" y="217" on="1"/>
        <pt x="361" y="637" on="1"/>
        <pt x="244" y="637" on="1"/>
        <pt x="228" y="637" on="0"/>
        <pt x="209" y="665" on="0"/>
        <pt x="209" y="685" on="1"/>
        <pt x="209" y="704" on="0"/>
        <pt x="227" y="731" on="0"/>
        <pt x="244" y="731" on="1"/>
        <pt x="420" y="731" on="1"/>
        <pt x="439" y="731" on="0"/>
        <pt x="467" y="712" on="0"/>
        <pt x="467" y="696" on="1"/>
        <pt x="467" y="217" on="1"/>
        <pt x="467" y="102" on="0"/>
        <pt x="345" y="-6" on="0"/>
        <pt x="245" y="-6" on="1"/>
        <pt x="144" y="-6" on="0"/>
        <pt x="17" y="99" on="0"/>
      </contour>
    </TTGlyph>
    <TTGlyph name="Jcircumflex" xMin="17" yMin="-6" xMax="467" yMax="956">
      <contour>
        <pt x="17" y="185" on="1"/>
        <pt x="17" y="214" on="0"/>
        <pt x="43" y="236" on="0"/>
        <pt x="71" y="236" on="1"/>
        <pt x="122" y="236" on="0"/>
        <pt x="123" y="201" on="1"/>
        <pt x="125" y="152" on="0"/>
        <pt x="183" y="88" on="0"/>
        <pt x="241" y="88" on="1"/>
        <pt x="361" y="88" on="0"/>
        <pt x="361" y="217" on="1"/>
        <pt x="361" y="637" on="1"/>
        <pt x="244" y="637" on="1"/>
        <pt x="228" y="637" on="0"/>
        <pt x="209" y="665" on="0"/>
        <pt x="209" y="685" on="1"/>
        <pt x="209" y="704" on="0"/>
        <pt x="227" y="731" on="0"/>
        <pt x="244" y="731" on="1"/>
        <pt x="420" y="731" on="1"/>
        <pt x="439" y="731" on="0"/>
        <pt x="467" y="712" on="0"/>
        <pt x="467" y="696" on="1"/>
        <pt x="467" y="217" on="1"/>
        <pt x="467" y="102" on="0"/>
        <pt x="345" y="-6" on="0"/>
        <pt x="245" y="-6" on="1"/>
        <pt x="144" y="-6" on="0"/>
        <pt x="17" y="99" on="0"/>
      </contour>
      <contour>
        <pt x="127" y="864" on="1"/>
        <pt x="127" y="885" on="0"/>
        <pt x="145" y="895" on="1"/>
        <pt x="249" y="951" on="1"/>
        <pt x="259" y="956" on="0"/>
        <pt x="266" y="956" on="1"/>
        <pt x="275" y="956" on="0"/>
        <pt x="283" y="951" on="1"/>
        <pt x="387" y="896" on="1"/>
        <pt x="406" y="884" on="0"/>
        <pt x="406" y="863" on="1"/>
        <pt x="406" y="850" on="0"/>
        <pt x="391" y="829" on="0"/>
        <pt x="380" y="829" on="1"/>
        <pt x="378" y="829" on="0"/>
        <pt x="374" y="830" on="1"/>
        <pt x="372" y="832" on="0"/>
        <pt x="370" y="832" on="1"/>
        <pt x="266" y="888" on="1"/>
        <pt x="162" y="832" on="1"/>
        <pt x="158" y="829" on="0"/>
        <pt x="153" y="829" on="1"/>
        <pt x="142" y="829" on="0"/>
        <pt x="127" y="850" on="0"/>
      </contour>
    </TTGlyph>
    <TTGlyph name="K" xMin="66" yMin="-3" xMax="541" yMax="731">
      <contour>
        <pt x="66" y="35" on="1"/>
        <pt x="66" y="697" on="1"/>
        <pt x="66" y="714" on="0"/>
        <pt x="97" y="731" on="0"/>
        <pt x="141" y="731" on="0"/>
        <pt x="172" y="714" on="0"/>
        <pt x="172" y="697" on="1"/>
        <pt x="172" y="393" on="1"/>
        <pt x="416" y="716" on="1"/>
        <pt x="426" y="731" on="0"/>
        <pt x="446" y="731" on="1"/>
        <pt x="467" y="731" on="0"/>
        <pt x="507" y="696" on="0"/>
        <pt x="507" y="676" on="1"/>
        <pt x="507" y="664" on="0"/>
        <pt x="499" y="655" on="1"/>
        <pt x="307" y="415" on="1"/>
        <pt x="535" y="68" on="1"/>
        <pt x="541" y="59" on="0"/>
        <pt x="541" y="49" on="1"/>
        <pt x="541" y="30" on="0"/>
        <pt x="502" y="-3" on="0"/>
        <pt x="479" y="-3" on="1"/>
        <pt x="454" y="-3" on="0"/>
        <pt x="441" y="17" on="1"/>
        <pt x="237" y="326" on="1"/>
        <pt x="172" y="244" on="1"/>
        <pt x="172" y="35" on="1"/>
        <pt x="172" y="19" on="0"/>
        <pt x="141" y="0" on="0"/>
        <pt x="119" y="0" on="1"/>
        <pt x="98" y="0" on="0"/>
        <pt x="66" y="19" on="0"/>
      </contour>
    </TTGlyph>
    <TTGlyph name="Kcommaaccent" xMin="66" yMin="-181" xMax="541" yMax="731">
      <contour>
        <pt x="66" y="35" on="1"/>
        <pt x="66" y="697" on="1"/>
        <pt x="66" y="714" on="0"/>
        <pt x="97" y="731" on="0"/>
        <pt x="141" y="731" on="0"/>
        <pt x="172" y="714" on="0"/>
        <pt x="172" y="697" on="1"/>
        <pt x="172" y="393" on="1"/>
        <pt x="416" y="716" on="1"/>
        <pt x="426" y="731" on="0"/>
        <pt x="446" y="731" on="1"/>
        <pt x="467" y="731" on="0"/>
        <pt x="507" y="696" on="0"/>
        <pt x="507" y="676" on="1"/>
        <pt x="507" y="664" on="0"/>
        <pt x="499" y="655" on="1"/>
        <pt x="307" y="415" on="1"/>
        <pt x="535" y="68" on="1"/>
        <pt x="541" y="59" on="0"/>
        <pt x="541" y="49" on="1"/>
        <pt x="541" y="30" on="0"/>
        <pt x="502" y="-3" on="0"/>
        <pt x="479" y="-3" on="1"/>
        <pt x="454" y="-3" on="0"/>
        <pt x="441" y="17" on="1"/>
        <pt x="237" y="326" on="1"/>
        <pt x="172" y="244" on="1"/>
        <pt x="172" y="35" on="1"/>
        <pt x="172" y="19" on="0"/>
        <pt x="141" y="0" on="0"/>
        <pt x="119" y="0" on="1"/>
        <pt x="98" y="0" on="0"/>
        <pt x="66" y="19" on="0"/>
      </contour>
      <contour>
        <pt x="181" y="-139" on="1"/>
        <pt x="181" y="-121" on="0"/>
        <pt x="196" y="-113" on="1"/>
        <pt x="320" y="-51" on="1"/>
        <pt x="326" y="-48" on="0"/>
        <pt x="331" y="-48" on="1"/>
        <pt x="345" y="-48" on="0"/>
        <pt x="365" y="-74" on="0"/>
        <pt x="365" y="-89" on="1"/>
        <pt x="365" y="-108" on="0"/>
        <pt x="349" y="-117" on="1"/>
        <pt x="228" y="-177" on="1"/>
        <pt x="220" y="-181" on="0"/>
        <pt x="216" y="-181" on="1"/>
        <pt x="202" y="-181" on="0"/>
        <pt x="181" y="-155" on="0"/>
      </contour>
    </TTGlyph>
    <TTGlyph name="L" xMin="66" yMin="0" xMax="464" yMax="731">
      <contour>
        <pt x="66" y="35" on="1"/>
        <pt x="66" y="697" on="1"/>
        <pt x="66" y="714" on="0"/>
        <pt x="97" y="731" on="0"/>
        <pt x="141" y="731" on="0"/>
        <pt x="172" y="714" on="0"/>
        <pt x="172" y="697" on="1"/>
        <pt x="172" y="94" on="1"/>
        <pt x="432" y="94" on="1"/>
        <pt x="447" y="94" on="0"/>
        <pt x="464" y="66" on="0"/>
        <pt x="464" y="28" on="0"/>
        <pt x="447" y="0" on="0"/>
        <pt x="432" y="0" on="1"/>
        <pt x="113" y="0" on="1"/>
        <pt x="94" y="0" on="0"/>
        <pt x="66" y="19" on="0"/>
      </contour>
    </TTGlyph>
    <TTGlyph name="Lacute" xMin="66" yMin="0" xMax="464" yMax="956">
      <contour>
        <pt x="66" y="35" on="1"/>
        <pt x="66" y="697" on="1"/>
        <pt x="66" y="714" on="0"/>
        <pt x="97" y="731" on="0"/>
        <pt x="141" y="731" on="0"/>
        <pt x="172" y="714" on="0"/>
        <pt x="172" y="697" on="1"/>
        <pt x="172" y="94" on="1"/>
        <pt x="432" y="94" on="1"/>
        <pt x="447" y="94" on="0"/>
        <pt x="464" y="66" on="0"/>
        <pt x="464" y="28" on="0"/>
        <pt x="447" y="0" on="0"/>
        <pt x="432" y="0" on="1"/>
        <pt x="113" y="0" on="1"/>
        <pt x="94" y="0" on="0"/>
        <pt x="66" y="19" on="0"/>
      </contour>
      <contour>
        <pt x="166" y="865" on="1"/>
        <pt x="166" y="883" on="0"/>
        <pt x="181" y="891" on="1"/>
        <pt x="305" y="954" on="1"/>
        <pt x="313" y="956" on="0"/>
        <pt x="316" y="956" on="1"/>
        <pt x="330" y="956" on="0"/>
        <pt x="350" y="930" on="0"/>
        <pt x="350" y="915" on="1"/>
        <pt x="350" y="895" on="0"/>
        <pt x="334" y="888" on="1"/>
        <pt x="213" y="827" on="1"/>
        <pt x="207" y="824" on="0"/>
        <pt x="201" y="824" on="1"/>
        <pt x="187" y="824" on="0"/>
        <pt x="166" y="850" on="0"/>
      </contour>
    </TTGlyph>
    <TTGlyph name="Lcaron" xMin="66" yMin="0" xMax="464" yMax="741">
      <contour>
        <pt x="66" y="35" on="1"/>
        <pt x="66" y="697" on="1"/>
        <pt x="66" y="714" on="0"/>
        <pt x="97" y="731" on="0"/>
        <pt x="141" y="731" on="0"/>
        <pt x="172" y="714" on="0"/>
        <pt x="172" y="697" on="1"/>
        <pt x="172" y="94" on="1"/>
        <pt x="432" y="94" on="1"/>
        <pt x="447" y="94" on="0"/>
        <pt x="464" y="66" on="0"/>
        <pt x="464" y="28" on="0"/>
        <pt x="447" y="0" on="0"/>
        <pt x="432" y="0" on="1"/>
        <pt x="113" y="0" on="1"/>
        <pt x="94" y="0" on="0"/>
        <pt x="66" y="19" on="0"/>
      </contour>
      <contour>
        <pt x="303" y="681" on="1"/>
        <pt x="303" y="706" on="0"/>
        <pt x="337" y="741" on="0"/>
        <pt x="387" y="741" on="0"/>
        <pt x="422" y="706" on="0"/>
        <pt x="422" y="682" on="1"/>
        <pt x="422" y="661" on="0"/>
        <pt x="372" y="548" on="1"/>
        <pt x="365" y="533" on="0"/>
        <pt x="349" y="533" on="1"/>
        <pt x="336" y="533" on="0"/>
        <pt x="313" y="549" on="0"/>
        <pt x="313" y="562" on="1"/>
        <pt x="313" y="570" on="0"/>
        <pt x="315" y="574" on="1"/>
        <pt x="338" y="627" on="1"/>
        <pt x="303" y="644" on="0"/>
      </contour>
    </TTGlyph>
    <TTGlyph name="Lcommaaccent" xMin="66" yMin="-181" xMax="464" yMax="731">
      <contour>
        <pt x="66" y="35" on="1"/>
        <pt x="66" y="697" on="1"/>
        <pt x="66" y="714" on="0"/>
        <pt x="97" y="731" on="0"/>
        <pt x="141" y="731" on="0"/>
        <pt x="172" y="714" on="0"/>
        <pt x="172" y="697" on="1"/>
        <pt x="172" y="94" on="1"/>
        <pt x="432" y="94" on="1"/>
        <pt x="447" y="94" on="0"/>
        <pt x="464" y="66" on="0"/>
        <pt x="464" y="28" on="0"/>
        <pt x="447" y="0" on="0"/>
        <pt x="432" y="0" on="1"/>
        <pt x="113" y="0" on="1"/>
        <pt x="94" y="0" on="0"/>
        <pt x="66" y="19" on="0"/>
      </contour>
      <contour>
        <pt x="165" y="-139" on="1"/>
        <pt x="165" y="-121" on="0"/>
        <pt x="180" y="-113" on="1"/>
        <pt x="304" y="-51" on="1"/>
        <pt x="310" y="-48" on="0"/>
        <pt x="315" y="-48" on="1"/>
        <pt x="329" y="-48" on="0"/>
        <pt x="349" y="-74" on="0"/>
        <pt x="349" y="-89" on="1"/>
        <pt x="349" y="-108" on="0"/>
        <pt x="333" y="-117" on="1"/>
        <pt x="212" y="-177" on="1"/>
        <pt x="204" y="-181" on="0"/>
        <pt x="200" y="-181" on="1"/>
        <pt x="186" y="-181" on="0"/>
        <pt x="165" y="-155" on="0"/>
      </contour>
    </TTGlyph>
    <TTGlyph name="Ldot" xMin="66" yMin="0" xMax="464" yMax="731">
      <contour>
        <pt x="66" y="35" on="1"/>
        <pt x="66" y="697" on="1"/>
        <pt x="66" y="714" on="0"/>
        <pt x="97" y="731" on="0"/>
        <pt x="141" y="731" on="0"/>
        <pt x="172" y="714" on="0"/>
        <pt x="172" y="697" on="1"/>
        <pt x="172" y="94" on="1"/>
        <pt x="432" y="94" on="1"/>
        <pt x="447" y="94" on="0"/>
        <pt x="464" y="66" on="0"/>
        <pt x="464" y="28" on="0"/>
        <pt x="447" y="0" on="0"/>
        <pt x="432" y="0" on="1"/>
        <pt x="113" y="0" on="1"/>
        <pt x="94" y="0" on="0"/>
        <pt x="66" y="19" on="0"/>
      </contour>
      <contour>
        <pt x="294" y="398" on="0"/>
        <pt x="294" y="444" on="0"/>
        <pt x="330" y="477" on="0"/>
        <pt x="357" y="477" on="1"/>
        <pt x="382" y="477" on="0"/>
        <pt x="419" y="444" on="0"/>
        <pt x="419" y="398" on="0"/>
        <pt x="382" y="364" on="0"/>
        <pt x="357" y="364" on="1"/>
        <pt x="330" y="364" on="0"/>
      </contour>
    </TTGlyph>
    <TTGlyph name="Lslash" xMin="-3" yMin="0" xMax="470" yMax="731">
      <contour>
        <pt x="-3" y="304" on="1"/>
        <pt x="-3" y="323" on="0"/>
        <pt x="11" y="330" on="1"/>
        <pt x="72" y="361" on="1"/>
        <pt x="72" y="697" on="1"/>
        <pt x="72" y="714" on="0"/>
        <pt x="103" y="731" on="0"/>
        <pt x="147" y="731" on="0"/>
        <pt x="178" y="714" on="0"/>
        <pt x="178" y="697" on="1"/>
        <pt x="178" y="415" on="1"/>
        <pt x="252" y="453" on="1"/>
        <pt x="256" y="455" on="0"/>
        <pt x="263" y="455" on="1"/>
        <pt x="278" y="455" on="0"/>
        <pt x="302" y="424" on="0"/>
        <pt x="302" y="408" on="1"/>
        <pt x="302" y="390" on="0"/>
        <pt x="287" y="382" on="1"/>
        <pt x="178" y="326" on="1"/>
        <pt x="178" y="94" on="1"/>
        <pt x="438" y="94" on="1"/>
        <pt x="453" y="94" on="0"/>
        <pt x="470" y="66" on="0"/>
        <pt x="470" y="28" on="0"/>
        <pt x="453" y="0" on="0"/>
        <pt x="438" y="0" on="1"/>
        <pt x="119" y="0" on="1"/>
        <pt x="100" y="0" on="0"/>
        <pt x="72" y="19" on="0"/>
        <pt x="72" y="35" on="1"/>
        <pt x="72" y="272" on="1"/>
        <pt x="46" y="259" on="1"/>
        <pt x="40" y="256" on="0"/>
        <pt x="34" y="256" on="1"/>
        <pt x="20" y="256" on="0"/>
        <pt x="-3" y="286" on="0"/>
      </contour>
    </TTGlyph>
    <TTGlyph name="M" xMin="66" yMin="0" xMax="621" yMax="731">
      <contour>
        <pt x="66" y="35" on="1"/>
        <pt x="66" y="678" on="1"/>
        <pt x="66" y="705" on="0"/>
        <pt x="96" y="731" on="0"/>
        <pt x="119" y="731" on="1"/>
        <pt x="148" y="731" on="0"/>
        <pt x="185" y="706" on="0"/>
        <pt x="203" y="671" on="1"/>
        <pt x="343" y="406" on="1"/>
        <pt x="485" y="671" on="1"/>
        <pt x="503" y="706" on="0"/>
        <pt x="539" y="731" on="0"/>
        <pt x="568" y="731" on="1"/>
        <pt x="591" y="731" on="0"/>
        <pt x="621" y="705" on="0"/>
        <pt x="621" y="678" on="1"/>
        <pt x="621" y="35" on="1"/>
        <pt x="621" y="19" on="0"/>
        <pt x="590" y="0" on="0"/>
        <pt x="568" y="0" on="1"/>
        <pt x="547" y="0" on="0"/>
        <pt x="515" y="19" on="0"/>
        <pt x="515" y="35" on="1"/>
        <pt x="515" y="515" on="1"/>
        <pt x="381" y="267" on="1"/>
        <pt x="366" y="243" on="0"/>
        <pt x="318" y="243" on="0"/>
        <pt x="306" y="267" on="1"/>
        <pt x="172" y="521" on="1"/>
        <pt x="172" y="35" on="1"/>
        <pt x="172" y="19" on="0"/>
        <pt x="141" y="0" on="0"/>
        <pt x="119" y="0" on="1"/>
        <pt x="98" y="0" on="0"/>
        <pt x="66" y="19" on="0"/>
      </contour>
    </TTGlyph>
    <TTGlyph name="N" xMin="66" yMin="0" xMax="527" yMax="731">
      <contour>
        <pt x="66" y="35" on="1"/>
        <pt x="66" y="696" on="1"/>
        <pt x="66" y="731" on="0"/>
        <pt x="119" y="731" on="1"/>
        <pt x="147" y="731" on="0"/>
        <pt x="181" y="706" on="0"/>
        <pt x="199" y="671" on="1"/>
        <pt x="421" y="238" on="1"/>
        <pt x="421" y="697" on="1"/>
        <pt x="421" y="714" on="0"/>
        <pt x="452" y="731" on="0"/>
        <pt x="496" y="731" on="0"/>
        <pt x="527" y="714" on="0"/>
        <pt x="527" y="697" on="1"/>
        <pt x="527" y="35" on="1"/>
        <pt x="527" y="19" on="0"/>
        <pt x="496" y="0" on="0"/>
        <pt x="474" y="0" on="1"/>
        <pt x="432" y="0" on="0"/>
        <pt x="411" y="39" on="1"/>
        <pt x="172" y="494" on="1"/>
        <pt x="172" y="35" on="1"/>
        <pt x="172" y="19" on="0"/>
        <pt x="141" y="0" on="0"/>
        <pt x="119" y="0" on="1"/>
        <pt x="98" y="0" on="0"/>
        <pt x="66" y="19" on="0"/>
      </contour>
    </TTGlyph>
    <TTGlyph name="Nacute" xMin="66" yMin="0" xMax="527" yMax="956">
      <contour>
        <pt x="66" y="35" on="1"/>
        <pt x="66" y="696" on="1"/>
        <pt x="66" y="731" on="0"/>
        <pt x="119" y="731" on="1"/>
        <pt x="147" y="731" on="0"/>
        <pt x="181" y="706" on="0"/>
        <pt x="199" y="671" on="1"/>
        <pt x="421" y="238" on="1"/>
        <pt x="421" y="697" on="1"/>
        <pt x="421" y="714" on="0"/>
        <pt x="452" y="731" on="0"/>
        <pt x="496" y="731" on="0"/>
        <pt x="527" y="714" on="0"/>
        <pt x="527" y="697" on="1"/>
        <pt x="527" y="35" on="1"/>
        <pt x="527" y="19" on="0"/>
        <pt x="496" y="0" on="0"/>
        <pt x="474" y="0" on="1"/>
        <pt x="432" y="0" on="0"/>
        <pt x="411" y="39" on="1"/>
        <pt x="172" y="494" on="1"/>
        <pt x="172" y="35" on="1"/>
        <pt x="172" y="19" on="0"/>
        <pt x="141" y="0" on="0"/>
        <pt x="119" y="0" on="1"/>
        <pt x="98" y="0" on="0"/>
        <pt x="66" y="19" on="0"/>
      </contour>
      <contour>
        <pt x="196" y="865" on="1"/>
        <pt x="196" y="883" on="0"/>
        <pt x="211" y="891" on="1"/>
        <pt x="335" y="954" on="1"/>
        <pt x="343" y="956" on="0"/>
        <pt x="346" y="956" on="1"/>
        <pt x="360" y="956" on="0"/>
        <pt x="380" y="930" on="0"/>
        <pt x="380" y="915" on="1"/>
        <pt x="380" y="895" on="0"/>
        <pt x="364" y="888" on="1"/>
        <pt x="243" y="827" on="1"/>
        <pt x="237" y="824" on="0"/>
        <pt x="231" y="824" on="1"/>
        <pt x="217" y="824" on="0"/>
        <pt x="196" y="850" on="0"/>
      </contour>
    </TTGlyph>
    <TTGlyph name="Ncaron" xMin="66" yMin="0" xMax="527" yMax="979">
      <contour>
        <pt x="66" y="35" on="1"/>
        <pt x="66" y="696" on="1"/>
        <pt x="66" y="731" on="0"/>
        <pt x="119" y="731" on="1"/>
        <pt x="147" y="731" on="0"/>
        <pt x="181" y="706" on="0"/>
        <pt x="199" y="671" on="1"/>
        <pt x="421" y="238" on="1"/>
        <pt x="421" y="697" on="1"/>
        <pt x="421" y="714" on="0"/>
        <pt x="452" y="731" on="0"/>
        <pt x="496" y="731" on="0"/>
        <pt x="527" y="714" on="0"/>
        <pt x="527" y="697" on="1"/>
        <pt x="527" y="35" on="1"/>
        <pt x="527" y="19" on="0"/>
        <pt x="496" y="0" on="0"/>
        <pt x="474" y="0" on="1"/>
        <pt x="432" y="0" on="0"/>
        <pt x="411" y="39" on="1"/>
        <pt x="172" y="494" on="1"/>
        <pt x="172" y="35" on="1"/>
        <pt x="172" y="19" on="0"/>
        <pt x="141" y="0" on="0"/>
        <pt x="119" y="0" on="1"/>
        <pt x="98" y="0" on="0"/>
        <pt x="66" y="19" on="0"/>
      </contour>
      <contour>
        <pt x="158" y="946" on="1"/>
        <pt x="158" y="959" on="0"/>
        <pt x="172" y="979" on="0"/>
        <pt x="182" y="979" on="1"/>
        <pt x="189" y="979" on="0"/>
        <pt x="195" y="973" on="1"/>
        <pt x="296" y="898" on="1"/>
        <pt x="398" y="973" on="1"/>
        <pt x="404" y="979" on="0"/>
        <pt x="411" y="979" on="1"/>
        <pt x="421" y="979" on="0"/>
        <pt x="435" y="959" on="0"/>
        <pt x="435" y="946" on="1"/>
        <pt x="435" y="925" on="0"/>
        <pt x="417" y="913" on="1"/>
        <pt x="315" y="838" on="1"/>
        <pt x="304" y="831" on="0"/>
        <pt x="288" y="831" on="0"/>
        <pt x="278" y="838" on="1"/>
        <pt x="175" y="913" on="1"/>
        <pt x="158" y="926" on="0"/>
      </contour>
    </TTGlyph>
    <TTGlyph name="Ncommaaccent" xMin="66" yMin="-181" xMax="527" yMax="731">
      <contour>
        <pt x="66" y="35" on="1"/>
        <pt x="66" y="696" on="1"/>
        <pt x="66" y="731" on="0"/>
        <pt x="119" y="731" on="1"/>
        <pt x="147" y="731" on="0"/>
        <pt x="181" y="706" on="0"/>
        <pt x="199" y="671" on="1"/>
        <pt x="421" y="238" on="1"/>
        <pt x="421" y="697" on="1"/>
        <pt x="421" y="714" on="0"/>
        <pt x="452" y="731" on="0"/>
        <pt x="496" y="731" on="0"/>
        <pt x="527" y="714" on="0"/>
        <pt x="527" y="697" on="1"/>
        <pt x="527" y="35" on="1"/>
        <pt x="527" y="19" on="0"/>
        <pt x="496" y="0" on="0"/>
        <pt x="474" y="0" on="1"/>
        <pt x="432" y="0" on="0"/>
        <pt x="411" y="39" on="1"/>
        <pt x="172" y="494" on="1"/>
        <pt x="172" y="35" on="1"/>
        <pt x="172" y="19" on="0"/>
        <pt x="141" y="0" on="0"/>
        <pt x="119" y="0" on="1"/>
        <pt x="98" y="0" on="0"/>
        <pt x="66" y="19" on="0"/>
      </contour>
      <contour>
        <pt x="203" y="-139" on="1"/>
        <pt x="203" y="-121" on="0"/>
        <pt x="218" y="-113" on="1"/>
        <pt x="342" y="-51" on="1"/>
        <pt x="348" y="-48" on="0"/>
        <pt x="353" y="-48" on="1"/>
        <pt x="367" y="-48" on="0"/>
        <pt x="387" y="-74" on="0"/>
        <pt x="387" y="-89" on="1"/>
        <pt x="387" y="-108" on="0"/>
        <pt x="371" y="-117" on="1"/>
        <pt x="250" y="-177" on="1"/>
        <pt x="242" y="-181" on="0"/>
        <pt x="238" y="-181" on="1"/>
        <pt x="224" y="-181" on="0"/>
        <pt x="203" y="-155" on="0"/>
      </contour>
    </TTGlyph>
    <TTGlyph name="Ntilde" xMin="66" yMin="0" xMax="527" yMax="947">
      <contour>
        <pt x="66" y="35" on="1"/>
        <pt x="66" y="696" on="1"/>
        <pt x="66" y="731" on="0"/>
        <pt x="119" y="731" on="1"/>
        <pt x="147" y="731" on="0"/>
        <pt x="181" y="706" on="0"/>
        <pt x="199" y="671" on="1"/>
        <pt x="421" y="238" on="1"/>
        <pt x="421" y="697" on="1"/>
        <pt x="421" y="714" on="0"/>
        <pt x="452" y="731" on="0"/>
        <pt x="496" y="731" on="0"/>
        <pt x="527" y="714" on="0"/>
        <pt x="527" y="697" on="1"/>
        <pt x="527" y="35" on="1"/>
        <pt x="527" y="19" on="0"/>
        <pt x="496" y="0" on="0"/>
        <pt x="474" y="0" on="1"/>
        <pt x="432" y="0" on="0"/>
        <pt x="411" y="39" on="1"/>
        <pt x="172" y="494" on="1"/>
        <pt x="172" y="35" on="1"/>
        <pt x="172" y="19" on="0"/>
        <pt x="141" y="0" on="0"/>
        <pt x="119" y="0" on="1"/>
        <pt x="98" y="0" on="0"/>
        <pt x="66" y="19" on="0"/>
      </contour>
      <contour>
        <pt x="126" y="883" on="1"/>
        <pt x="126" y="917" on="0"/>
        <pt x="184" y="947" on="0"/>
        <pt x="213" y="947" on="1"/>
        <pt x="241" y="947" on="0"/>
        <pt x="324" y="916" on="0"/>
        <pt x="351" y="916" on="1"/>
        <pt x="375" y="916" on="0"/>
        <pt x="421" y="941" on="0"/>
        <pt x="428" y="941" on="1"/>
        <pt x="442" y="941" on="0"/>
        <pt x="456" y="917" on="0"/>
        <pt x="456" y="907" on="1"/>
        <pt x="456" y="871" on="0"/>
        <pt x="400" y="843" on="0"/>
        <pt x="371" y="843" on="1"/>
        <pt x="339" y="843" on="0"/>
        <pt x="257" y="874" on="0"/>
        <pt x="232" y="874" on="1"/>
        <pt x="208" y="874" on="0"/>
        <pt x="161" y="847" on="0"/>
        <pt x="154" y="847" on="1"/>
        <pt x="140" y="847" on="0"/>
        <pt x="126" y="872" on="0"/>
      </contour>
    </TTGlyph>
    <TTGlyph name="O" xMin="59" yMin="-6" xMax="508" yMax="731">
      <contour>
        <pt x="59" y="217" on="1"/>
        <pt x="59" y="508" on="1"/>
        <pt x="59" y="623" on="0"/>
        <pt x="181" y="731" on="0"/>
        <pt x="385" y="731" on="0"/>
        <pt x="508" y="623" on="0"/>
        <pt x="508" y="508" on="1"/>
        <pt x="508" y="217" on="1"/>
        <pt x="508" y="102" on="0"/>
        <pt x="385" y="-6" on="0"/>
        <pt x="181" y="-6" on="0"/>
        <pt x="59" y="102" on="0"/>
      </contour>
      <contour>
        <pt x="165" y="217" on="1"/>
        <pt x="165" y="88" on="0"/>
        <pt x="283" y="88" on="1"/>
        <pt x="340" y="88" on="0"/>
        <pt x="402" y="152" on="0"/>
        <pt x="402" y="217" on="1"/>
        <pt x="402" y="508" on="1"/>
        <pt x="402" y="573" on="0"/>
        <pt x="340" y="637" on="0"/>
        <pt x="283" y="637" on="1"/>
        <pt x="165" y="637" on="0"/>
        <pt x="165" y="508" on="1"/>
      </contour>
    </TTGlyph>
    <TTGlyph name="OE" xMin="60" yMin="-6" xMax="816" yMax="731">
      <contour>
        <pt x="60" y="217" on="1"/>
        <pt x="60" y="508" on="1"/>
        <pt x="60" y="624" on="0"/>
        <pt x="171" y="731" on="0"/>
        <pt x="266" y="731" on="1"/>
        <pt x="313" y="731" on="0"/>
        <pt x="394" y="694" on="0"/>
        <pt x="416" y="658" on="1"/>
        <pt x="416" y="696" on="1"/>
        <pt x="416" y="712" on="0"/>
        <pt x="444" y="731" on="0"/>
        <pt x="463" y="731" on="1"/>
        <pt x="782" y="731" on="1"/>
        <pt x="799" y="731" on="0"/>
        <pt x="816" y="704" on="0"/>
        <pt x="816" y="685" on="1"/>
        <pt x="816" y="665" on="0"/>
        <pt x="798" y="637" on="0"/>
        <pt x="782" y="637" on="1"/>
        <pt x="509" y="637" on="1"/>
        <pt x="509" y="408" on="1"/>
        <pt x="639" y="408" on="1"/>
        <pt x="655" y="408" on="0"/>
        <pt x="673" y="383" on="0"/>
        <pt x="673" y="365" on="1"/>
        <pt x="673" y="349" on="0"/>
        <pt x="656" y="324" on="0"/>
        <pt x="639" y="324" on="1"/>
        <pt x="509" y="324" on="1"/>
        <pt x="509" y="94" on="1"/>
        <pt x="782" y="94" on="1"/>
        <pt x="798" y="94" on="0"/>
        <pt x="816" y="66" on="0"/>
        <pt x="816" y="46" on="1"/>
        <pt x="816" y="27" on="0"/>
        <pt x="799" y="0" on="0"/>
        <pt x="782" y="0" on="1"/>
        <pt x="463" y="0" on="1"/>
        <pt x="444" y="0" on="0"/>
        <pt x="416" y="19" on="0"/>
        <pt x="416" y="35" on="1"/>
        <pt x="416" y="67" on="1"/>
        <pt x="394" y="31" on="0"/>
        <pt x="313" y="-6" on="0"/>
        <pt x="266" y="-6" on="1"/>
        <pt x="171" y="-6" on="0"/>
        <pt x="60" y="101" on="0"/>
      </contour>
      <contour>
        <pt x="166" y="217" on="1"/>
        <pt x="166" y="88" on="0"/>
        <pt x="284" y="88" on="1"/>
        <pt x="341" y="88" on="0"/>
        <pt x="403" y="152" on="0"/>
        <pt x="403" y="217" on="1"/>
        <pt x="403" y="508" on="1"/>
        <pt x="403" y="573" on="0"/>
        <pt x="341" y="637" on="0"/>
        <pt x="284" y="637" on="1"/>
        <pt x="166" y="637" on="0"/>
        <pt x="166" y="508" on="1"/>
      </contour>
    </TTGlyph>
    <TTGlyph name="Oacute" xMin="59" yMin="-6" xMax="508" yMax="956">
      <contour>
        <pt x="59" y="217" on="1"/>
        <pt x="59" y="508" on="1"/>
        <pt x="59" y="623" on="0"/>
        <pt x="181" y="731" on="0"/>
        <pt x="385" y="731" on="0"/>
        <pt x="508" y="623" on="0"/>
        <pt x="508" y="508" on="1"/>
        <pt x="508" y="217" on="1"/>
        <pt x="508" y="102" on="0"/>
        <pt x="385" y="-6" on="0"/>
        <pt x="181" y="-6" on="0"/>
        <pt x="59" y="102" on="0"/>
      </contour>
      <contour>
        <pt x="165" y="217" on="1"/>
        <pt x="165" y="88" on="0"/>
        <pt x="283" y="88" on="1"/>
        <pt x="340" y="88" on="0"/>
        <pt x="402" y="152" on="0"/>
        <pt x="402" y="217" on="1"/>
        <pt x="402" y="508" on="1"/>
        <pt x="402" y="573" on="0"/>
        <pt x="340" y="637" on="0"/>
        <pt x="283" y="637" on="1"/>
        <pt x="165" y="637" on="0"/>
        <pt x="165" y="508" on="1"/>
      </contour>
      <contour>
        <pt x="217" y="865" on="1"/>
        <pt x="217" y="883" on="0"/>
        <pt x="232" y="891" on="1"/>
        <pt x="356" y="954" on="1"/>
        <pt x="364" y="956" on="0"/>
        <pt x="367" y="956" on="1"/>
        <pt x="381" y="956" on="0"/>
        <pt x="401" y="930" on="0"/>
        <pt x="401" y="915" on="1"/>
        <pt x="401" y="895" on="0"/>
        <pt x="385" y="888" on="1"/>
        <pt x="264" y="827" on="1"/>
        <pt x="258" y="824" on="0"/>
        <pt x="252" y="824" on="1"/>
        <pt x="238" y="824" on="0"/>
        <pt x="217" y="850" on="0"/>
      </contour>
    </TTGlyph>
    <TTGlyph name="Obreve" xMin="59" yMin="-6" xMax="508" yMax="965">
      <contour>
        <pt x="59" y="217" on="1"/>
        <pt x="59" y="508" on="1"/>
        <pt x="59" y="623" on="0"/>
        <pt x="181" y="731" on="0"/>
        <pt x="385" y="731" on="0"/>
        <pt x="508" y="623" on="0"/>
        <pt x="508" y="508" on="1"/>
        <pt x="508" y="217" on="1"/>
        <pt x="508" y="102" on="0"/>
        <pt x="385" y="-6" on="0"/>
        <pt x="181" y="-6" on="0"/>
        <pt x="59" y="102" on="0"/>
      </contour>
      <contour>
        <pt x="156" y="965" on="1"/>
        <pt x="216" y="965" on="1"/>
        <pt x="216" y="933" on="0"/>
        <pt x="257" y="888" on="0"/>
        <pt x="309" y="888" on="0"/>
        <pt x="349" y="933" on="0"/>
        <pt x="349" y="965" on="1"/>
        <pt x="410" y="965" on="1"/>
        <pt x="410" y="915" on="0"/>
        <pt x="332" y="839" on="0"/>
        <pt x="283" y="839" on="1"/>
        <pt x="233" y="839" on="0"/>
        <pt x="156" y="914" on="0"/>
      </contour>
      <contour>
        <pt x="165" y="217" on="1"/>
        <pt x="165" y="88" on="0"/>
        <pt x="283" y="88" on="1"/>
        <pt x="340" y="88" on="0"/>
        <pt x="402" y="152" on="0"/>
        <pt x="402" y="217" on="1"/>
        <pt x="402" y="508" on="1"/>
        <pt x="402" y="573" on="0"/>
        <pt x="340" y="637" on="0"/>
        <pt x="283" y="637" on="1"/>
        <pt x="165" y="637" on="0"/>
        <pt x="165" y="508" on="1"/>
      </contour>
    </TTGlyph>
    <TTGlyph name="Ocircumflex" xMin="59" yMin="-6" xMax="508" yMax="956">
      <contour>
        <pt x="59" y="217" on="1"/>
        <pt x="59" y="508" on="1"/>
        <pt x="59" y="623" on="0"/>
        <pt x="181" y="731" on="0"/>
        <pt x="385" y="731" on="0"/>
        <pt x="508" y="623" on="0"/>
        <pt x="508" y="508" on="1"/>
        <pt x="508" y="217" on="1"/>
        <pt x="508" y="102" on="0"/>
        <pt x="385" y="-6" on="0"/>
        <pt x="181" y="-6" on="0"/>
        <pt x="59" y="102" on="0"/>
      </contour>
      <contour>
        <pt x="143" y="864" on="1"/>
        <pt x="143" y="885" on="0"/>
        <pt x="161" y="895" on="1"/>
        <pt x="265" y="951" on="1"/>
        <pt x="275" y="956" on="0"/>
        <pt x="282" y="956" on="1"/>
        <pt x="291" y="956" on="0"/>
        <pt x="299" y="951" on="1"/>
        <pt x="403" y="896" on="1"/>
        <pt x="422" y="884" on="0"/>
        <pt x="422" y="863" on="1"/>
        <pt x="422" y="850" on="0"/>
        <pt x="407" y="829" on="0"/>
        <pt x="396" y="829" on="1"/>
        <pt x="394" y="829" on="0"/>
        <pt x="390" y="830" on="1"/>
        <pt x="388" y="832" on="0"/>
        <pt x="386" y="832" on="1"/>
        <pt x="282" y="888" on="1"/>
        <pt x="178" y="832" on="1"/>
        <pt x="174" y="829" on="0"/>
        <pt x="169" y="829" on="1"/>
        <pt x="158" y="829" on="0"/>
        <pt x="143" y="850" on="0"/>
      </contour>
      <contour>
        <pt x="165" y="217" on="1"/>
        <pt x="165" y="88" on="0"/>
        <pt x="283" y="88" on="1"/>
        <pt x="340" y="88" on="0"/>
        <pt x="402" y="152" on="0"/>
        <pt x="402" y="217" on="1"/>
        <pt x="402" y="508" on="1"/>
        <pt x="402" y="573" on="0"/>
        <pt x="340" y="637" on="0"/>
        <pt x="283" y="637" on="1"/>
        <pt x="165" y="637" on="0"/>
        <pt x="165" y="508" on="1"/>
      </contour>
    </TTGlyph>
    <TTGlyph name="Odieresis" xMin="59" yMin="-6" xMax="508" yMax="923">
      <contour>
        <pt x="59" y="217" on="1"/>
        <pt x="59" y="508" on="1"/>
        <pt x="59" y="623" on="0"/>
        <pt x="181" y="731" on="0"/>
        <pt x="385" y="731" on="0"/>
        <pt x="508" y="623" on="0"/>
        <pt x="508" y="508" on="1"/>
        <pt x="508" y="217" on="1"/>
        <pt x="508" y="102" on="0"/>
        <pt x="385" y="-6" on="0"/>
        <pt x="181" y="-6" on="0"/>
        <pt x="59" y="102" on="0"/>
      </contour>
      <contour>
        <pt x="165" y="217" on="1"/>
        <pt x="165" y="88" on="0"/>
        <pt x="283" y="88" on="1"/>
        <pt x="340" y="88" on="0"/>
        <pt x="402" y="152" on="0"/>
        <pt x="402" y="217" on="1"/>
        <pt x="402" y="508" on="1"/>
        <pt x="402" y="573" on="0"/>
        <pt x="340" y="637" on="0"/>
        <pt x="283" y="637" on="1"/>
        <pt x="165" y="637" on="0"/>
        <pt x="165" y="508" on="1"/>
      </contour>
      <contour>
        <pt x="169" y="858" on="0"/>
        <pt x="169" y="896" on="0"/>
        <pt x="196" y="923" on="0"/>
        <pt x="234" y="923" on="0"/>
        <pt x="259" y="896" on="0"/>
        <pt x="259" y="858" on="0"/>
        <pt x="233" y="830" on="0"/>
        <pt x="215" y="830" on="1"/>
        <pt x="196" y="830" on="0"/>
      </contour>
      <contour>
        <pt x="309" y="858" on="0"/>
        <pt x="309" y="896" on="0"/>
        <pt x="335" y="923" on="0"/>
        <pt x="373" y="923" on="0"/>
        <pt x="399" y="896" on="0"/>
        <pt x="399" y="858" on="0"/>
        <pt x="373" y="830" on="0"/>
        <pt x="335" y="830" on="0"/>
      </contour>
    </TTGlyph>
    <TTGlyph name="Ograve" xMin="59" yMin="-6" xMax="508" yMax="956">
      <contour>
        <pt x="59" y="217" on="1"/>
        <pt x="59" y="508" on="1"/>
        <pt x="59" y="623" on="0"/>
        <pt x="181" y="731" on="0"/>
        <pt x="385" y="731" on="0"/>
        <pt x="508" y="623" on="0"/>
        <pt x="508" y="508" on="1"/>
        <pt x="508" y="217" on="1"/>
        <pt x="508" y="102" on="0"/>
        <pt x="385" y="-6" on="0"/>
        <pt x="181" y="-6" on="0"/>
        <pt x="59" y="102" on="0"/>
      </contour>
      <contour>
        <pt x="165" y="217" on="1"/>
        <pt x="165" y="88" on="0"/>
        <pt x="283" y="88" on="1"/>
        <pt x="340" y="88" on="0"/>
        <pt x="402" y="152" on="0"/>
        <pt x="402" y="217" on="1"/>
        <pt x="402" y="508" on="1"/>
        <pt x="402" y="573" on="0"/>
        <pt x="340" y="637" on="0"/>
        <pt x="283" y="637" on="1"/>
        <pt x="165" y="637" on="0"/>
        <pt x="165" y="508" on="1"/>
      </contour>
      <contour>
        <pt x="182" y="915" on="1"/>
        <pt x="182" y="930" on="0"/>
        <pt x="202" y="956" on="0"/>
        <pt x="216" y="956" on="1"/>
        <pt x="219" y="956" on="0"/>
        <pt x="227" y="954" on="1"/>
        <pt x="351" y="891" on="1"/>
        <pt x="366" y="883" on="0"/>
        <pt x="366" y="865" on="1"/>
        <pt x="366" y="850" on="0"/>
        <pt x="346" y="824" on="0"/>
        <pt x="332" y="824" on="1"/>
        <pt x="325" y="824" on="0"/>
        <pt x="319" y="827" on="1"/>
        <pt x="198" y="888" on="1"/>
        <pt x="182" y="895" on="0"/>
      </contour>
    </TTGlyph>
    <TTGlyph name="Ohungarumlaut" xMin="59" yMin="-6" xMax="508" yMax="957">
      <contour>
        <pt x="59" y="217" on="1"/>
        <pt x="59" y="508" on="1"/>
        <pt x="59" y="623" on="0"/>
        <pt x="181" y="731" on="0"/>
        <pt x="385" y="731" on="0"/>
        <pt x="508" y="623" on="0"/>
        <pt x="508" y="508" on="1"/>
        <pt x="508" y="217" on="1"/>
        <pt x="508" y="102" on="0"/>
        <pt x="385" y="-6" on="0"/>
        <pt x="181" y="-6" on="0"/>
        <pt x="59" y="102" on="0"/>
      </contour>
      <contour>
        <pt x="165" y="217" on="1"/>
        <pt x="165" y="88" on="0"/>
        <pt x="283" y="88" on="1"/>
        <pt x="340" y="88" on="0"/>
        <pt x="402" y="152" on="0"/>
        <pt x="402" y="217" on="1"/>
        <pt x="402" y="508" on="1"/>
        <pt x="402" y="573" on="0"/>
        <pt x="340" y="637" on="0"/>
        <pt x="283" y="637" on="1"/>
        <pt x="165" y="637" on="0"/>
        <pt x="165" y="508" on="1"/>
      </contour>
      <contour>
        <pt x="166" y="855" on="1"/>
        <pt x="166" y="864" on="0"/>
        <pt x="173" y="870" on="1"/>
        <pt x="262" y="951" on="1"/>
        <pt x="267" y="957" on="0"/>
        <pt x="278" y="957" on="1"/>
        <pt x="290" y="957" on="0"/>
        <pt x="310" y="936" on="0"/>
        <pt x="310" y="914" on="0"/>
        <pt x="302" y="907" on="1"/>
        <pt x="217" y="829" on="1"/>
        <pt x="210" y="822" on="0"/>
        <pt x="201" y="822" on="1"/>
        <pt x="188" y="822" on="0"/>
        <pt x="166" y="843" on="0"/>
      </contour>
      <contour>
        <pt x="321" y="855" on="1"/>
        <pt x="321" y="864" on="0"/>
        <pt x="328" y="870" on="1"/>
        <pt x="417" y="951" on="1"/>
        <pt x="422" y="957" on="0"/>
        <pt x="432" y="957" on="1"/>
        <pt x="444" y="957" on="0"/>
        <pt x="465" y="936" on="0"/>
        <pt x="465" y="925" on="1"/>
        <pt x="465" y="915" on="0"/>
        <pt x="457" y="907" on="1"/>
        <pt x="371" y="829" on="1"/>
        <pt x="365" y="822" on="0"/>
        <pt x="355" y="822" on="1"/>
        <pt x="342" y="822" on="0"/>
        <pt x="321" y="843" on="0"/>
      </contour>
    </TTGlyph>
    <TTGlyph name="Omacron" xMin="59" yMin="-6" xMax="508" yMax="939">
      <contour>
        <pt x="59" y="217" on="1"/>
        <pt x="59" y="508" on="1"/>
        <pt x="59" y="623" on="0"/>
        <pt x="181" y="731" on="0"/>
        <pt x="385" y="731" on="0"/>
        <pt x="508" y="623" on="0"/>
        <pt x="508" y="508" on="1"/>
        <pt x="508" y="217" on="1"/>
        <pt x="508" y="102" on="0"/>
        <pt x="385" y="-6" on="0"/>
        <pt x="181" y="-6" on="0"/>
        <pt x="59" y="102" on="0"/>
      </contour>
      <contour>
        <pt x="144" y="886" on="0"/>
        <pt x="144" y="918" on="0"/>
        <pt x="163" y="939" on="0"/>
        <pt x="178" y="939" on="1"/>
        <pt x="387" y="939" on="1"/>
        <pt x="401" y="939" on="0"/>
        <pt x="422" y="917" on="0"/>
        <pt x="422" y="887" on="0"/>
        <pt x="401" y="867" on="0"/>
        <pt x="387" y="867" on="1"/>
        <pt x="178" y="867" on="1"/>
        <pt x="163" y="867" on="0"/>
      </contour>
      <contour>
        <pt x="165" y="217" on="1"/>
        <pt x="165" y="88" on="0"/>
        <pt x="283" y="88" on="1"/>
        <pt x="340" y="88" on="0"/>
        <pt x="402" y="152" on="0"/>
        <pt x="402" y="217" on="1"/>
        <pt x="402" y="508" on="1"/>
        <pt x="402" y="573" on="0"/>
        <pt x="340" y="637" on="0"/>
        <pt x="283" y="637" on="1"/>
        <pt x="165" y="637" on="0"/>
        <pt x="165" y="508" on="1"/>
      </contour>
    </TTGlyph>
    <TTGlyph name="Oslash" xMin="59" yMin="-35" xMax="508" yMax="770">
      <contour>
        <pt x="59" y="217" on="1"/>
        <pt x="59" y="508" on="1"/>
        <pt x="59" y="623" on="0"/>
        <pt x="181" y="731" on="0"/>
        <pt x="283" y="731" on="1"/>
        <pt x="358" y="731" on="0"/>
        <pt x="410" y="702" on="1"/>
        <pt x="435" y="752" on="1"/>
        <pt x="443" y="770" on="0"/>
        <pt x="465" y="770" on="1"/>
        <pt x="481" y="770" on="0"/>
        <pt x="507" y="748" on="0"/>
        <pt x="507" y="732" on="1"/>
        <pt x="507" y="723" on="0"/>
        <pt x="503" y="716" on="1"/>
        <pt x="470" y="650" on="1"/>
        <pt x="508" y="595" on="0"/>
        <pt x="508" y="508" on="1"/>
        <pt x="508" y="217" on="1"/>
        <pt x="508" y="102" on="0"/>
        <pt x="385" y="-6" on="0"/>
        <pt x="283" y="-6" on="1"/>
        <pt x="208" y="-6" on="0"/>
        <pt x="155" y="22" on="1"/>
        <pt x="136" y="-16" on="1"/>
        <pt x="126" y="-35" on="0"/>
        <pt x="103" y="-35" on="1"/>
        <pt x="86" y="-35" on="0"/>
        <pt x="64" y="-12" on="0"/>
        <pt x="64" y="2" on="1"/>
        <pt x="64" y="10" on="0"/>
        <pt x="67" y="17" on="1"/>
        <pt x="96" y="75" on="1"/>
        <pt x="59" y="131" on="0"/>
      </contour>
      <contour>
        <pt x="165" y="212" on="1"/>
        <pt x="364" y="611" on="1"/>
        <pt x="333" y="637" on="0"/>
        <pt x="283" y="637" on="1"/>
        <pt x="165" y="637" on="0"/>
        <pt x="165" y="508" on="1"/>
      </contour>
      <contour>
        <pt x="201" y="114" on="1"/>
        <pt x="230" y="88" on="0"/>
        <pt x="283" y="88" on="1"/>
        <pt x="340" y="88" on="0"/>
        <pt x="402" y="152" on="0"/>
        <pt x="402" y="217" on="1"/>
        <pt x="402" y="514" on="1"/>
      </contour>
    </TTGlyph>
    <TTGlyph name="Oslashacute" xMin="59" yMin="-35" xMax="508" yMax="956">
      <contour>
        <pt x="59" y="217" on="1"/>
        <pt x="59" y="508" on="1"/>
        <pt x="59" y="623" on="0"/>
        <pt x="181" y="731" on="0"/>
        <pt x="283" y="731" on="1"/>
        <pt x="358" y="731" on="0"/>
        <pt x="410" y="702" on="1"/>
        <pt x="435" y="752" on="1"/>
        <pt x="443" y="770" on="0"/>
        <pt x="465" y="770" on="1"/>
        <pt x="481" y="770" on="0"/>
        <pt x="507" y="748" on="0"/>
        <pt x="507" y="732" on="1"/>
        <pt x="507" y="723" on="0"/>
        <pt x="503" y="716" on="1"/>
        <pt x="470" y="650" on="1"/>
        <pt x="508" y="595" on="0"/>
        <pt x="508" y="508" on="1"/>
        <pt x="508" y="217" on="1"/>
        <pt x="508" y="102" on="0"/>
        <pt x="385" y="-6" on="0"/>
        <pt x="283" y="-6" on="1"/>
        <pt x="208" y="-6" on="0"/>
        <pt x="155" y="22" on="1"/>
        <pt x="136" y="-16" on="1"/>
        <pt x="126" y="-35" on="0"/>
        <pt x="103" y="-35" on="1"/>
        <pt x="86" y="-35" on="0"/>
        <pt x="64" y="-12" on="0"/>
        <pt x="64" y="2" on="1"/>
        <pt x="64" y="10" on="0"/>
        <pt x="67" y="17" on="1"/>
        <pt x="96" y="75" on="1"/>
        <pt x="59" y="131" on="0"/>
      </contour>
      <contour>
        <pt x="165" y="212" on="1"/>
        <pt x="364" y="611" on="1"/>
        <pt x="333" y="637" on="0"/>
        <pt x="283" y="637" on="1"/>
        <pt x="165" y="637" on="0"/>
        <pt x="165" y="508" on="1"/>
      </contour>
      <contour>
        <pt x="201" y="114" on="1"/>
        <pt x="230" y="88" on="0"/>
        <pt x="283" y="88" on="1"/>
        <pt x="340" y="88" on="0"/>
        <pt x="402" y="152" on="0"/>
        <pt x="402" y="217" on="1"/>
        <pt x="402" y="514" on="1"/>
      </contour>
      <contour>
        <pt x="205" y="865" on="1"/>
        <pt x="205" y="883" on="0"/>
        <pt x="220" y="891" on="1"/>
        <pt x="344" y="954" on="1"/>
        <pt x="352" y="956" on="0"/>
        <pt x="355" y="956" on="1"/>
        <pt x="369" y="956" on="0"/>
        <pt x="389" y="930" on="0"/>
        <pt x="389" y="915" on="1"/>
        <pt x="389" y="895" on="0"/>
        <pt x="373" y="888" on="1"/>
        <pt x="252" y="827" on="1"/>
        <pt x="246" y="824" on="0"/>
        <pt x="240" y="824" on="1"/>
        <pt x="226" y="824" on="0"/>
        <pt x="205" y="850" on="0"/>
      </contour>
    </TTGlyph>
    <TTGlyph name="Otilde" xMin="59" yMin="-6" xMax="508" yMax="947">
      <contour>
        <pt x="59" y="217" on="1"/>
        <pt x="59" y="508" on="1"/>
        <pt x="59" y="623" on="0"/>
        <pt x="181" y="731" on="0"/>
        <pt x="385" y="731" on="0"/>
        <pt x="508" y="623" on="0"/>
        <pt x="508" y="508" on="1"/>
        <pt x="508" y="217" on="1"/>
        <pt x="508" y="102" on="0"/>
        <pt x="385" y="-6" on="0"/>
        <pt x="181" y="-6" on="0"/>
        <pt x="59" y="102" on="0"/>
      </contour>
      <contour>
        <pt x="118" y="883" on="1"/>
        <pt x="118" y="917" on="0"/>
        <pt x="176" y="947" on="0"/>
        <pt x="205" y="947" on="1"/>
        <pt x="233" y="947" on="0"/>
        <pt x="316" y="916" on="0"/>
        <pt x="343" y="916" on="1"/>
        <pt x="367" y="916" on="0"/>
        <pt x="413" y="941" on="0"/>
        <pt x="420" y="941" on="1"/>
        <pt x="434" y="941" on="0"/>
        <pt x="448" y="917" on="0"/>
        <pt x="448" y="907" on="1"/>
        <pt x="448" y="871" on="0"/>
        <pt x="392" y="843" on="0"/>
        <pt x="363" y="843" on="1"/>
        <pt x="331" y="843" on="0"/>
        <pt x="249" y="874" on="0"/>
        <pt x="224" y="874" on="1"/>
        <pt x="200" y="874" on="0"/>
        <pt x="153" y="847" on="0"/>
        <pt x="146" y="847" on="1"/>
        <pt x="132" y="847" on="0"/>
        <pt x="118" y="872" on="0"/>
      </contour>
      <contour>
        <pt x="165" y="217" on="1"/>
        <pt x="165" y="88" on="0"/>
        <pt x="283" y="88" on="1"/>
        <pt x="340" y="88" on="0"/>
        <pt x="402" y="152" on="0"/>
        <pt x="402" y="217" on="1"/>
        <pt x="402" y="508" on="1"/>
        <pt x="402" y="573" on="0"/>
        <pt x="340" y="637" on="0"/>
        <pt x="283" y="637" on="1"/>
        <pt x="165" y="637" on="0"/>
        <pt x="165" y="508" on="1"/>
      </contour>
    </TTGlyph>
    <TTGlyph name="P" xMin="66" yMin="0" xMax="521" yMax="731">
      <contour>
        <pt x="66" y="35" on="1"/>
        <pt x="66" y="697" on="1"/>
        <pt x="66" y="711" on="0"/>
        <pt x="89" y="731" on="0"/>
        <pt x="107" y="731" on="1"/>
        <pt x="302" y="731" on="1"/>
        <pt x="402" y="731" on="0"/>
        <pt x="521" y="625" on="0"/>
        <pt x="521" y="511" on="1"/>
        <pt x="521" y="503" on="1"/>
        <pt x="521" y="389" on="0"/>
        <pt x="398" y="282" on="0"/>
        <pt x="296" y="282" on="1"/>
        <pt x="172" y="282" on="1"/>
        <pt x="172" y="35" on="1"/>
        <pt x="172" y="19" on="0"/>
        <pt x="141" y="0" on="0"/>
        <pt x="119" y="0" on="1"/>
        <pt x="98" y="0" on="0"/>
        <pt x="66" y="19" on="0"/>
      </contour>
      <contour>
        <pt x="172" y="366" on="1"/>
        <pt x="296" y="366" on="1"/>
        <pt x="353" y="366" on="0"/>
        <pt x="415" y="431" on="0"/>
        <pt x="415" y="496" on="1"/>
        <pt x="415" y="508" on="1"/>
        <pt x="415" y="573" on="0"/>
        <pt x="353" y="637" on="0"/>
        <pt x="296" y="637" on="1"/>
        <pt x="172" y="637" on="1"/>
      </contour>
    </TTGlyph>
    <TTGlyph name="Q" xMin="59" yMin="-109" xMax="508" yMax="731">
      <contour>
        <pt x="59" y="217" on="1"/>
        <pt x="59" y="508" on="1"/>
        <pt x="59" y="624" on="0"/>
        <pt x="181" y="731" on="0"/>
        <pt x="385" y="731" on="0"/>
        <pt x="508" y="624" on="0"/>
        <pt x="508" y="508" on="1"/>
        <pt x="508" y="217" on="1"/>
        <pt x="508" y="112" on="0"/>
        <pt x="406" y="4" on="0"/>
        <pt x="319" y="-4" on="1"/>
        <pt x="319" y="-74" on="1"/>
        <pt x="319" y="-90" on="0"/>
        <pt x="298" y="-109" on="0"/>
        <pt x="283" y="-109" on="1"/>
        <pt x="269" y="-109" on="0"/>
        <pt x="248" y="-90" on="0"/>
        <pt x="248" y="-74" on="1"/>
        <pt x="248" y="-4" on="1"/>
        <pt x="161" y="4" on="0"/>
        <pt x="59" y="111" on="0"/>
      </contour>
      <contour>
        <pt x="165" y="217" on="1"/>
        <pt x="165" y="111" on="0"/>
        <pt x="248" y="94" on="1"/>
        <pt x="248" y="155" on="1"/>
        <pt x="248" y="189" on="0"/>
        <pt x="283" y="189" on="1"/>
        <pt x="298" y="189" on="0"/>
        <pt x="319" y="172" on="0"/>
        <pt x="319" y="155" on="1"/>
        <pt x="319" y="95" on="1"/>
        <pt x="402" y="113" on="0"/>
        <pt x="402" y="217" on="1"/>
        <pt x="402" y="508" on="1"/>
        <pt x="402" y="573" on="0"/>
        <pt x="340" y="637" on="0"/>
        <pt x="283" y="637" on="1"/>
        <pt x="165" y="637" on="0"/>
        <pt x="165" y="508" on="1"/>
      </contour>
    </TTGlyph>
    <TTGlyph name="R" xMin="66" yMin="-3" xMax="524" yMax="731">
      <contour>
        <pt x="66" y="35" on="1"/>
        <pt x="66" y="697" on="1"/>
        <pt x="66" y="711" on="0"/>
        <pt x="86" y="731" on="0"/>
        <pt x="101" y="731" on="1"/>
        <pt x="291" y="731" on="1"/>
        <pt x="521" y="731" on="0"/>
        <pt x="521" y="527" on="1"/>
        <pt x="521" y="442" on="0"/>
        <pt x="445" y="345" on="0"/>
        <pt x="380" y="329" on="1"/>
        <pt x="520" y="66" on="1"/>
        <pt x="524" y="59" on="0"/>
        <pt x="524" y="51" on="1"/>
        <pt x="524" y="31" on="0"/>
        <pt x="483" y="-3" on="0"/>
        <pt x="460" y="-3" on="1"/>
        <pt x="434" y="-3" on="0"/>
        <pt x="418" y="28" on="1"/>
        <pt x="272" y="314" on="1"/>
        <pt x="171" y="314" on="1"/>
        <pt x="171" y="35" on="1"/>
        <pt x="171" y="19" on="0"/>
        <pt x="140" y="0" on="0"/>
        <pt x="118" y="0" on="1"/>
        <pt x="97" y="0" on="0"/>
        <pt x="66" y="19" on="0"/>
      </contour>
      <contour>
        <pt x="171" y="399" on="1"/>
        <pt x="291" y="399" on="1"/>
        <pt x="415" y="399" on="0"/>
        <pt x="415" y="637" on="0"/>
        <pt x="291" y="637" on="1"/>
        <pt x="171" y="637" on="1"/>
      </contour>
    </TTGlyph>
    <TTGlyph name="Racute" xMin="66" yMin="-3" xMax="524" yMax="956">
      <contour>
        <pt x="66" y="35" on="1"/>
        <pt x="66" y="697" on="1"/>
        <pt x="66" y="711" on="0"/>
        <pt x="86" y="731" on="0"/>
        <pt x="101" y="731" on="1"/>
        <pt x="291" y="731" on="1"/>
        <pt x="521" y="731" on="0"/>
        <pt x="521" y="527" on="1"/>
        <pt x="521" y="442" on="0"/>
        <pt x="445" y="345" on="0"/>
        <pt x="380" y="329" on="1"/>
        <pt x="520" y="66" on="1"/>
        <pt x="524" y="59" on="0"/>
        <pt x="524" y="51" on="1"/>
        <pt x="524" y="31" on="0"/>
        <pt x="483" y="-3" on="0"/>
        <pt x="460" y="-3" on="1"/>
        <pt x="434" y="-3" on="0"/>
        <pt x="418" y="28" on="1"/>
        <pt x="272" y="314" on="1"/>
        <pt x="171" y="314" on="1"/>
        <pt x="171" y="35" on="1"/>
        <pt x="171" y="19" on="0"/>
        <pt x="140" y="0" on="0"/>
        <pt x="118" y="0" on="1"/>
        <pt x="97" y="0" on="0"/>
        <pt x="66" y="19" on="0"/>
      </contour>
      <contour>
        <pt x="171" y="399" on="1"/>
        <pt x="291" y="399" on="1"/>
        <pt x="415" y="399" on="0"/>
        <pt x="415" y="637" on="0"/>
        <pt x="291" y="637" on="1"/>
        <pt x="171" y="637" on="1"/>
      </contour>
      <contour>
        <pt x="215" y="865" on="1"/>
        <pt x="215" y="883" on="0"/>
        <pt x="230" y="891" on="1"/>
        <pt x="354" y="954" on="1"/>
        <pt x="362" y="956" on="0"/>
        <pt x="365" y="956" on="1"/>
        <pt x="379" y="956" on="0"/>
        <pt x="399" y="930" on="0"/>
        <pt x="399" y="915" on="1"/>
        <pt x="399" y="895" on="0"/>
        <pt x="383" y="888" on="1"/>
        <pt x="262" y="827" on="1"/>
        <pt x="256" y="824" on="0"/>
        <pt x="250" y="824" on="1"/>
        <pt x="236" y="824" on="0"/>
        <pt x="215" y="850" on="0"/>
      </contour>
    </TTGlyph>
    <TTGlyph name="Rcaron" xMin="66" yMin="-3" xMax="524" yMax="979">
      <contour>
        <pt x="66" y="35" on="1"/>
        <pt x="66" y="697" on="1"/>
        <pt x="66" y="711" on="0"/>
        <pt x="86" y="731" on="0"/>
        <pt x="101" y="731" on="1"/>
        <pt x="291" y="731" on="1"/>
        <pt x="521" y="731" on="0"/>
        <pt x="521" y="527" on="1"/>
        <pt x="521" y="442" on="0"/>
        <pt x="445" y="345" on="0"/>
        <pt x="380" y="329" on="1"/>
        <pt x="520" y="66" on="1"/>
        <pt x="524" y="59" on="0"/>
        <pt x="524" y="51" on="1"/>
        <pt x="524" y="31" on="0"/>
        <pt x="483" y="-3" on="0"/>
        <pt x="460" y="-3" on="1"/>
        <pt x="434" y="-3" on="0"/>
        <pt x="418" y="28" on="1"/>
        <pt x="272" y="314" on="1"/>
        <pt x="171" y="314" on="1"/>
        <pt x="171" y="35" on="1"/>
        <pt x="171" y="19" on="0"/>
        <pt x="140" y="0" on="0"/>
        <pt x="118" y="0" on="1"/>
        <pt x="97" y="0" on="0"/>
        <pt x="66" y="19" on="0"/>
      </contour>
      <contour>
        <pt x="136" y="946" on="1"/>
        <pt x="136" y="959" on="0"/>
        <pt x="150" y="979" on="0"/>
        <pt x="160" y="979" on="1"/>
        <pt x="167" y="979" on="0"/>
        <pt x="173" y="973" on="1"/>
        <pt x="274" y="898" on="1"/>
        <pt x="376" y="973" on="1"/>
        <pt x="382" y="979" on="0"/>
        <pt x="389" y="979" on="1"/>
        <pt x="399" y="979" on="0"/>
        <pt x="413" y="959" on="0"/>
        <pt x="413" y="946" on="1"/>
        <pt x="413" y="925" on="0"/>
        <pt x="395" y="913" on="1"/>
        <pt x="293" y="838" on="1"/>
        <pt x="282" y="831" on="0"/>
        <pt x="266" y="831" on="0"/>
        <pt x="256" y="838" on="1"/>
        <pt x="153" y="913" on="1"/>
        <pt x="136" y="926" on="0"/>
      </contour>
      <contour>
        <pt x="171" y="399" on="1"/>
        <pt x="291" y="399" on="1"/>
        <pt x="415" y="399" on="0"/>
        <pt x="415" y="637" on="0"/>
        <pt x="291" y="637" on="1"/>
        <pt x="171" y="637" on="1"/>
      </contour>
    </TTGlyph>
    <TTGlyph name="Rcommaaccent" xMin="66" yMin="-181" xMax="524" yMax="731">
      <contour>
        <pt x="66" y="35" on="1"/>
        <pt x="66" y="697" on="1"/>
        <pt x="66" y="711" on="0"/>
        <pt x="86" y="731" on="0"/>
        <pt x="101" y="731" on="1"/>
        <pt x="291" y="731" on="1"/>
        <pt x="521" y="731" on="0"/>
        <pt x="521" y="527" on="1"/>
        <pt x="521" y="442" on="0"/>
        <pt x="445" y="345" on="0"/>
        <pt x="380" y="329" on="1"/>
        <pt x="520" y="66" on="1"/>
        <pt x="524" y="59" on="0"/>
        <pt x="524" y="51" on="1"/>
        <pt x="524" y="31" on="0"/>
        <pt x="483" y="-3" on="0"/>
        <pt x="460" y="-3" on="1"/>
        <pt x="434" y="-3" on="0"/>
        <pt x="418" y="28" on="1"/>
        <pt x="272" y="314" on="1"/>
        <pt x="171" y="314" on="1"/>
        <pt x="171" y="35" on="1"/>
        <pt x="171" y="19" on="0"/>
        <pt x="140" y="0" on="0"/>
        <pt x="118" y="0" on="1"/>
        <pt x="97" y="0" on="0"/>
        <pt x="66" y="19" on="0"/>
      </contour>
      <contour>
        <pt x="171" y="399" on="1"/>
        <pt x="291" y="399" on="1"/>
        <pt x="415" y="399" on="0"/>
        <pt x="415" y="637" on="0"/>
        <pt x="291" y="637" on="1"/>
        <pt x="171" y="637" on="1"/>
      </contour>
      <contour>
        <pt x="179" y="-139" on="1"/>
        <pt x="179" y="-121" on="0"/>
        <pt x="194" y="-113" on="1"/>
        <pt x="318" y="-51" on="1"/>
        <pt x="324" y="-48" on="0"/>
        <pt x="329" y="-48" on="1"/>
        <pt x="343" y="-48" on="0"/>
        <pt x="363" y="-74" on="0"/>
        <pt x="363" y="-89" on="1"/>
        <pt x="363" y="-108" on="0"/>
        <pt x="347" y="-117" on="1"/>
        <pt x="226" y="-177" on="1"/>
        <pt x="218" y="-181" on="0"/>
        <pt x="214" y="-181" on="1"/>
        <pt x="200" y="-181" on="0"/>
        <pt x="179" y="-155" on="0"/>
      </contour>
    </TTGlyph>
    <TTGlyph name="S" xMin="29" yMin="-8" xMax="478" yMax="734">
      <contour>
        <pt x="29" y="110" on="1"/>
        <pt x="29" y="129" on="0"/>
        <pt x="57" y="167" on="0"/>
        <pt x="75" y="167" on="1"/>
        <pt x="86" y="167" on="0"/>
        <pt x="117" y="142" on="0"/>
        <pt x="147" y="113" on="0"/>
        <pt x="208" y="88" on="0"/>
        <pt x="246" y="88" on="1"/>
        <pt x="303" y="88" on="0"/>
        <pt x="372" y="142" on="0"/>
        <pt x="372" y="194" on="1"/>
        <pt x="372" y="242" on="0"/>
        <pt x="305" y="306" on="0"/>
        <pt x="210" y="344" on="0"/>
        <pt x="114" y="388" on="0"/>
        <pt x="47" y="476" on="0"/>
        <pt x="47" y="542" on="1"/>
        <pt x="47" y="595" on="0"/>
        <pt x="88" y="673" on="0"/>
        <pt x="158" y="715" on="0"/>
        <pt x="235" y="734" on="0"/>
        <pt x="278" y="734" on="1"/>
        <pt x="305" y="734" on="0"/>
        <pt x="364" y="727" on="0"/>
        <pt x="422" y="711" on="0"/>
        <pt x="460" y="681" on="0"/>
        <pt x="460" y="643" on="0"/>
        <pt x="436" y="605" on="0"/>
        <pt x="416" y="605" on="1"/>
        <pt x="406" y="605" on="0"/>
        <pt x="372" y="624" on="0"/>
        <pt x="315" y="643" on="0"/>
        <pt x="278" y="643" on="1"/>
        <pt x="221" y="643" on="0"/>
        <pt x="153" y="598" on="0"/>
        <pt x="153" y="552" on="1"/>
        <pt x="153" y="522" on="0"/>
        <pt x="189" y="479" on="0"/>
        <pt x="246" y="451" on="0"/>
        <pt x="316" y="424" on="0"/>
        <pt x="385" y="388" on="0"/>
        <pt x="442" y="341" on="0"/>
        <pt x="478" y="259" on="0"/>
        <pt x="478" y="205" on="1"/>
        <pt x="478" y="101" on="0"/>
        <pt x="353" y="-8" on="0"/>
        <pt x="250" y="-8" on="1"/>
        <pt x="158" y="-8" on="0"/>
        <pt x="29" y="69" on="0"/>
      </contour>
    </TTGlyph>
    <TTGlyph name="Sacute" xMin="29" yMin="-8" xMax="478" yMax="956">
      <contour>
        <pt x="29" y="110" on="1"/>
        <pt x="29" y="129" on="0"/>
        <pt x="57" y="167" on="0"/>
        <pt x="75" y="167" on="1"/>
        <pt x="86" y="167" on="0"/>
        <pt x="117" y="142" on="0"/>
        <pt x="147" y="113" on="0"/>
        <pt x="208" y="88" on="0"/>
        <pt x="246" y="88" on="1"/>
        <pt x="303" y="88" on="0"/>
        <pt x="372" y="142" on="0"/>
        <pt x="372" y="194" on="1"/>
        <pt x="372" y="242" on="0"/>
        <pt x="305" y="306" on="0"/>
        <pt x="210" y="344" on="0"/>
        <pt x="114" y="388" on="0"/>
        <pt x="47" y="476" on="0"/>
        <pt x="47" y="542" on="1"/>
        <pt x="47" y="595" on="0"/>
        <pt x="88" y="673" on="0"/>
        <pt x="158" y="715" on="0"/>
        <pt x="235" y="734" on="0"/>
        <pt x="278" y="734" on="1"/>
        <pt x="305" y="734" on="0"/>
        <pt x="364" y="727" on="0"/>
        <pt x="422" y="711" on="0"/>
        <pt x="460" y="681" on="0"/>
        <pt x="460" y="643" on="0"/>
        <pt x="436" y="605" on="0"/>
        <pt x="416" y="605" on="1"/>
        <pt x="406" y="605" on="0"/>
        <pt x="372" y="624" on="0"/>
        <pt x="315" y="643" on="0"/>
        <pt x="278" y="643" on="1"/>
        <pt x="221" y="643" on="0"/>
        <pt x="153" y="598" on="0"/>
        <pt x="153" y="552" on="1"/>
        <pt x="153" y="522" on="0"/>
        <pt x="189" y="479" on="0"/>
        <pt x="246" y="451" on="0"/>
        <pt x="316" y="424" on="0"/>
        <pt x="385" y="388" on="0"/>
        <pt x="442" y="341" on="0"/>
        <pt x="478" y="259" on="0"/>
        <pt x="478" y="205" on="1"/>
        <pt x="478" y="101" on="0"/>
        <pt x="353" y="-8" on="0"/>
        <pt x="250" y="-8" on="1"/>
        <pt x="158" y="-8" on="0"/>
        <pt x="29" y="69" on="0"/>
      </contour>
      <contour>
        <pt x="175" y="865" on="1"/>
        <pt x="175" y="883" on="0"/>
        <pt x="190" y="891" on="1"/>
        <pt x="314" y="954" on="1"/>
        <pt x="322" y="956" on="0"/>
        <pt x="325" y="956" on="1"/>
        <pt x="339" y="956" on="0"/>
        <pt x="359" y="930" on="0"/>
        <pt x="359" y="915" on="1"/>
        <pt x="359" y="895" on="0"/>
        <pt x="343" y="888" on="1"/>
        <pt x="222" y="827" on="1"/>
        <pt x="216" y="824" on="0"/>
        <pt x="210" y="824" on="1"/>
        <pt x="196" y="824" on="0"/>
        <pt x="175" y="850" on="0"/>
      </contour>
    </TTGlyph>
    <TTGlyph name="Scaron" xMin="29" yMin="-8" xMax="478" yMax="979">
      <contour>
        <pt x="29" y="110" on="1"/>
        <pt x="29" y="129" on="0"/>
        <pt x="57" y="167" on="0"/>
        <pt x="75" y="167" on="1"/>
        <pt x="86" y="167" on="0"/>
        <pt x="117" y="142" on="0"/>
        <pt x="147" y="113" on="0"/>
        <pt x="208" y="88" on="0"/>
        <pt x="246" y="88" on="1"/>
        <pt x="303" y="88" on="0"/>
        <pt x="372" y="142" on="0"/>
        <pt x="372" y="194" on="1"/>
        <pt x="372" y="242" on="0"/>
        <pt x="305" y="306" on="0"/>
        <pt x="210" y="344" on="0"/>
        <pt x="114" y="388" on="0"/>
        <pt x="47" y="476" on="0"/>
        <pt x="47" y="542" on="1"/>
        <pt x="47" y="595" on="0"/>
        <pt x="88" y="673" on="0"/>
        <pt x="158" y="715" on="0"/>
        <pt x="235" y="734" on="0"/>
        <pt x="278" y="734" on="1"/>
        <pt x="305" y="734" on="0"/>
        <pt x="364" y="727" on="0"/>
        <pt x="422" y="711" on="0"/>
        <pt x="460" y="681" on="0"/>
        <pt x="460" y="643" on="0"/>
        <pt x="436" y="605" on="0"/>
        <pt x="416" y="605" on="1"/>
        <pt x="406" y="605" on="0"/>
        <pt x="372" y="624" on="0"/>
        <pt x="315" y="643" on="0"/>
        <pt x="278" y="643" on="1"/>
        <pt x="221" y="643" on="0"/>
        <pt x="153" y="598" on="0"/>
        <pt x="153" y="552" on="1"/>
        <pt x="153" y="522" on="0"/>
        <pt x="189" y="479" on="0"/>
        <pt x="246" y="451" on="0"/>
        <pt x="316" y="424" on="0"/>
        <pt x="385" y="388" on="0"/>
        <pt x="442" y="341" on="0"/>
        <pt x="478" y="259" on="0"/>
        <pt x="478" y="205" on="1"/>
        <pt x="478" y="101" on="0"/>
        <pt x="353" y="-8" on="0"/>
        <pt x="250" y="-8" on="1"/>
        <pt x="158" y="-8" on="0"/>
        <pt x="29" y="69" on="0"/>
      </contour>
      <contour>
        <pt x="114" y="946" on="1"/>
        <pt x="114" y="959" on="0"/>
        <pt x="128" y="979" on="0"/>
        <pt x="138" y="979" on="1"/>
        <pt x="145" y="979" on="0"/>
        <pt x="151" y="973" on="1"/>
        <pt x="252" y="898" on="1"/>
        <pt x="354" y="973" on="1"/>
        <pt x="360" y="979" on="0"/>
        <pt x="367" y="979" on="1"/>
        <pt x="377" y="979" on="0"/>
        <pt x="391" y="959" on="0"/>
        <pt x="391" y="946" on="1"/>
        <pt x="391" y="925" on="0"/>
        <pt x="373" y="913" on="1"/>
        <pt x="271" y="838" on="1"/>
        <pt x="260" y="831" on="0"/>
        <pt x="244" y="831" on="0"/>
        <pt x="234" y="838" on="1"/>
        <pt x="131" y="913" on="1"/>
        <pt x="114" y="926" on="0"/>
      </contour>
    </TTGlyph>
    <TTGlyph name="Scedilla" xMin="29" yMin="-214" xMax="478" yMax="734">
      <contour>
        <pt x="29" y="110" on="1"/>
        <pt x="29" y="129" on="0"/>
        <pt x="57" y="167" on="0"/>
        <pt x="75" y="167" on="1"/>
        <pt x="86" y="167" on="0"/>
        <pt x="117" y="142" on="0"/>
        <pt x="147" y="113" on="0"/>
        <pt x="208" y="88" on="0"/>
        <pt x="246" y="88" on="1"/>
        <pt x="303" y="88" on="0"/>
        <pt x="372" y="142" on="0"/>
        <pt x="372" y="194" on="1"/>
        <pt x="372" y="242" on="0"/>
        <pt x="305" y="306" on="0"/>
        <pt x="210" y="344" on="0"/>
        <pt x="114" y="388" on="0"/>
        <pt x="47" y="476" on="0"/>
        <pt x="47" y="542" on="1"/>
        <pt x="47" y="595" on="0"/>
        <pt x="88" y="673" on="0"/>
        <pt x="158" y="715" on="0"/>
        <pt x="235" y="734" on="0"/>
        <pt x="278" y="734" on="1"/>
        <pt x="305" y="734" on="0"/>
        <pt x="364" y="727" on="0"/>
        <pt x="422" y="711" on="0"/>
        <pt x="460" y="681" on="0"/>
        <pt x="460" y="643" on="0"/>
        <pt x="436" y="605" on="0"/>
        <pt x="416" y="605" on="1"/>
        <pt x="406" y="605" on="0"/>
        <pt x="372" y="624" on="0"/>
        <pt x="315" y="643" on="0"/>
        <pt x="278" y="643" on="1"/>
        <pt x="221" y="643" on="0"/>
        <pt x="153" y="598" on="0"/>
        <pt x="153" y="552" on="1"/>
        <pt x="153" y="522" on="0"/>
        <pt x="189" y="479" on="0"/>
        <pt x="246" y="451" on="0"/>
        <pt x="316" y="424" on="0"/>
        <pt x="385" y="388" on="0"/>
        <pt x="442" y="341" on="0"/>
        <pt x="478" y="259" on="0"/>
        <pt x="478" y="205" on="1"/>
        <pt x="478" y="113" on="0"/>
        <pt x="380" y="7" on="0"/>
        <pt x="297" y="-5" on="1"/>
        <pt x="283" y="-55" on="1"/>
        <pt x="331" y="-56" on="0"/>
        <pt x="380" y="-99" on="0"/>
        <pt x="380" y="-130" on="1"/>
        <pt x="380" y="-162" on="0"/>
        <pt x="331" y="-214" on="0"/>
        <pt x="281" y="-214" on="1"/>
        <pt x="253" y="-214" on="0"/>
        <pt x="199" y="-199" on="0"/>
        <pt x="199" y="-186" on="1"/>
        <pt x="199" y="-178" on="0"/>
        <pt x="210" y="-154" on="0"/>
        <pt x="219" y="-154" on="1"/>
        <pt x="221" y="-154" on="0"/>
        <pt x="257" y="-168" on="0"/>
        <pt x="276" y="-168" on="1"/>
        <pt x="326" y="-168" on="0"/>
        <pt x="326" y="-132" on="1"/>
        <pt x="326" y="-99" on="0"/>
        <pt x="272" y="-94" on="1"/>
        <pt x="224" y="-89" on="1"/>
        <pt x="245" y="-8" on="1"/>
        <pt x="155" y="-7" on="0"/>
        <pt x="29" y="69" on="0"/>
      </contour>
    </TTGlyph>
    <TTGlyph name="Scircumflex" xMin="29" yMin="-8" xMax="478" yMax="956">
      <contour>
        <pt x="29" y="110" on="1"/>
        <pt x="29" y="129" on="0"/>
        <pt x="57" y="167" on="0"/>
        <pt x="75" y="167" on="1"/>
        <pt x="86" y="167" on="0"/>
        <pt x="117" y="142" on="0"/>
        <pt x="147" y="113" on="0"/>
        <pt x="208" y="88" on="0"/>
        <pt x="246" y="88" on="1"/>
        <pt x="303" y="88" on="0"/>
        <pt x="372" y="142" on="0"/>
        <pt x="372" y="194" on="1"/>
        <pt x="372" y="242" on="0"/>
        <pt x="305" y="306" on="0"/>
        <pt x="210" y="344" on="0"/>
        <pt x="114" y="388" on="0"/>
        <pt x="47" y="476" on="0"/>
        <pt x="47" y="542" on="1"/>
        <pt x="47" y="595" on="0"/>
        <pt x="88" y="673" on="0"/>
        <pt x="158" y="715" on="0"/>
        <pt x="235" y="734" on="0"/>
        <pt x="278" y="734" on="1"/>
        <pt x="305" y="734" on="0"/>
        <pt x="364" y="727" on="0"/>
        <pt x="422" y="711" on="0"/>
        <pt x="460" y="681" on="0"/>
        <pt x="460" y="643" on="0"/>
        <pt x="436" y="605" on="0"/>
        <pt x="416" y="605" on="1"/>
        <pt x="406" y="605" on="0"/>
        <pt x="372" y="624" on="0"/>
        <pt x="315" y="643" on="0"/>
        <pt x="278" y="643" on="1"/>
        <pt x="221" y="643" on="0"/>
        <pt x="153" y="598" on="0"/>
        <pt x="153" y="552" on="1"/>
        <pt x="153" y="522" on="0"/>
        <pt x="189" y="479" on="0"/>
        <pt x="246" y="451" on="0"/>
        <pt x="316" y="424" on="0"/>
        <pt x="385" y="388" on="0"/>
        <pt x="442" y="341" on="0"/>
        <pt x="478" y="259" on="0"/>
        <pt x="478" y="205" on="1"/>
        <pt x="478" y="101" on="0"/>
        <pt x="353" y="-8" on="0"/>
        <pt x="250" y="-8" on="1"/>
        <pt x="158" y="-8" on="0"/>
        <pt x="29" y="69" on="0"/>
      </contour>
      <contour>
        <pt x="113" y="864" on="1"/>
        <pt x="113" y="885" on="0"/>
        <pt x="131" y="895" on="1"/>
        <pt x="235" y="951" on="1"/>
        <pt x="245" y="956" on="0"/>
        <pt x="252" y="956" on="1"/>
        <pt x="261" y="956" on="0"/>
        <pt x="269" y="951" on="1"/>
        <pt x="373" y="896" on="1"/>
        <pt x="392" y="884" on="0"/>
        <pt x="392" y="863" on="1"/>
        <pt x="392" y="850" on="0"/>
        <pt x="377" y="829" on="0"/>
        <pt x="366" y="829" on="1"/>
        <pt x="364" y="829" on="0"/>
        <pt x="360" y="830" on="1"/>
        <pt x="358" y="832" on="0"/>
        <pt x="356" y="832" on="1"/>
        <pt x="252" y="888" on="1"/>
        <pt x="148" y="832" on="1"/>
        <pt x="144" y="829" on="0"/>
        <pt x="139" y="829" on="1"/>
        <pt x="128" y="829" on="0"/>
        <pt x="113" y="850" on="0"/>
      </contour>
    </TTGlyph>
    <TTGlyph name="Scommaaccent" xMin="29" yMin="-181" xMax="478" yMax="734">
      <contour>
        <pt x="29" y="110" on="1"/>
        <pt x="29" y="129" on="0"/>
        <pt x="57" y="167" on="0"/>
        <pt x="75" y="167" on="1"/>
        <pt x="86" y="167" on="0"/>
        <pt x="117" y="142" on="0"/>
        <pt x="147" y="113" on="0"/>
        <pt x="208" y="88" on="0"/>
        <pt x="246" y="88" on="1"/>
        <pt x="303" y="88" on="0"/>
        <pt x="372" y="142" on="0"/>
        <pt x="372" y="194" on="1"/>
        <pt x="372" y="242" on="0"/>
        <pt x="305" y="306" on="0"/>
        <pt x="210" y="344" on="0"/>
        <pt x="114" y="388" on="0"/>
        <pt x="47" y="476" on="0"/>
        <pt x="47" y="542" on="1"/>
        <pt x="47" y="595" on="0"/>
        <pt x="88" y="673" on="0"/>
        <pt x="158" y="715" on="0"/>
        <pt x="235" y="734" on="0"/>
        <pt x="278" y="734" on="1"/>
        <pt x="305" y="734" on="0"/>
        <pt x="364" y="727" on="0"/>
        <pt x="422" y="711" on="0"/>
        <pt x="460" y="681" on="0"/>
        <pt x="460" y="643" on="0"/>
        <pt x="436" y="605" on="0"/>
        <pt x="416" y="605" on="1"/>
        <pt x="406" y="605" on="0"/>
        <pt x="372" y="624" on="0"/>
        <pt x="315" y="643" on="0"/>
        <pt x="278" y="643" on="1"/>
        <pt x="221" y="643" on="0"/>
        <pt x="153" y="598" on="0"/>
        <pt x="153" y="552" on="1"/>
        <pt x="153" y="522" on="0"/>
        <pt x="189" y="479" on="0"/>
        <pt x="246" y="451" on="0"/>
        <pt x="316" y="424" on="0"/>
        <pt x="385" y="388" on="0"/>
        <pt x="442" y="341" on="0"/>
        <pt x="478" y="259" on="0"/>
        <pt x="478" y="205" on="1"/>
        <pt x="478" y="101" on="0"/>
        <pt x="353" y="-8" on="0"/>
        <pt x="250" y="-8" on="1"/>
        <pt x="158" y="-8" on="0"/>
        <pt x="29" y="69" on="0"/>
      </contour>
      <contour>
        <pt x="174" y="-139" on="1"/>
        <pt x="174" y="-121" on="0"/>
        <pt x="189" y="-113" on="1"/>
        <pt x="313" y="-51" on="1"/>
        <pt x="319" y="-48" on="0"/>
        <pt x="324" y="-48" on="1"/>
        <pt x="338" y="-48" on="0"/>
        <pt x="358" y="-74" on="0"/>
        <pt x="358" y="-89" on="1"/>
        <pt x="358" y="-108" on="0"/>
        <pt x="342" y="-117" on="1"/>
        <pt x="221" y="-177" on="1"/>
        <pt x="213" y="-181" on="0"/>
        <pt x="209" y="-181" on="1"/>
        <pt x="195" y="-181" on="0"/>
        <pt x="174" y="-155" on="0"/>
      </contour>
    </TTGlyph>
    <TTGlyph name="T" xMin="14" yMin="0" xMax="499" yMax="731">
      <contour>
        <pt x="14" y="683" on="1"/>
        <pt x="14" y="702" on="0"/>
        <pt x="32" y="731" on="0"/>
        <pt x="49" y="731" on="1"/>
        <pt x="464" y="731" on="1"/>
        <pt x="481" y="731" on="0"/>
        <pt x="499" y="703" on="0"/>
        <pt x="499" y="684" on="1"/>
        <pt x="499" y="663" on="0"/>
        <pt x="480" y="634" on="0"/>
        <pt x="464" y="634" on="1"/>
        <pt x="310" y="634" on="1"/>
        <pt x="310" y="35" on="1"/>
        <pt x="310" y="19" on="0"/>
        <pt x="278" y="0" on="0"/>
        <pt x="257" y="0" on="1"/>
        <pt x="235" y="0" on="0"/>
        <pt x="204" y="19" on="0"/>
        <pt x="204" y="35" on="1"/>
        <pt x="204" y="634" on="1"/>
        <pt x="49" y="634" on="1"/>
        <pt x="33" y="634" on="0"/>
        <pt x="14" y="663" on="0"/>
      </contour>
    </TTGlyph>
    <TTGlyph name="Tbar" xMin="14" yMin="0" xMax="499" yMax="731">
      <contour>
        <pt x="14" y="683" on="1"/>
        <pt x="14" y="702" on="0"/>
        <pt x="32" y="731" on="0"/>
        <pt x="49" y="731" on="1"/>
        <pt x="464" y="731" on="1"/>
        <pt x="481" y="731" on="0"/>
        <pt x="499" y="703" on="0"/>
        <pt x="499" y="684" on="1"/>
        <pt x="499" y="663" on="0"/>
        <pt x="480" y="634" on="0"/>
        <pt x="464" y="634" on="1"/>
        <pt x="310" y="634" on="1"/>
        <pt x="310" y="405" on="1"/>
        <pt x="410" y="405" on="1"/>
        <pt x="424" y="405" on="0"/>
        <pt x="440" y="381" on="0"/>
        <pt x="440" y="349" on="0"/>
        <pt x="424" y="325" on="0"/>
        <pt x="410" y="325" on="1"/>
        <pt x="310" y="325" on="1"/>
        <pt x="310" y="35" on="1"/>
        <pt x="310" y="19" on="0"/>
        <pt x="278" y="0" on="0"/>
        <pt x="257" y="0" on="1"/>
        <pt x="235" y="0" on="0"/>
        <pt x="204" y="19" on="0"/>
        <pt x="204" y="35" on="1"/>
        <pt x="204" y="325" on="1"/>
        <pt x="102" y="325" on="1"/>
        <pt x="88" y="325" on="0"/>
        <pt x="73" y="349" on="0"/>
        <pt x="73" y="381" on="0"/>
        <pt x="89" y="405" on="0"/>
        <pt x="102" y="405" on="1"/>
        <pt x="204" y="405" on="1"/>
        <pt x="204" y="634" on="1"/>
        <pt x="49" y="634" on="1"/>
        <pt x="33" y="634" on="0"/>
        <pt x="14" y="663" on="0"/>
      </contour>
    </TTGlyph>
    <TTGlyph name="Tcaron" xMin="14" yMin="0" xMax="499" yMax="979">
      <contour>
        <pt x="14" y="683" on="1"/>
        <pt x="14" y="702" on="0"/>
        <pt x="32" y="731" on="0"/>
        <pt x="49" y="731" on="1"/>
        <pt x="464" y="731" on="1"/>
        <pt x="481" y="731" on="0"/>
        <pt x="499" y="703" on="0"/>
        <pt x="499" y="684" on="1"/>
        <pt x="499" y="663" on="0"/>
        <pt x="480" y="634" on="0"/>
        <pt x="464" y="634" on="1"/>
        <pt x="310" y="634" on="1"/>
        <pt x="310" y="35" on="1"/>
        <pt x="310" y="19" on="0"/>
        <pt x="278" y="0" on="0"/>
        <pt x="257" y="0" on="1"/>
        <pt x="235" y="0" on="0"/>
        <pt x="204" y="19" on="0"/>
        <pt x="204" y="35" on="1"/>
        <pt x="204" y="634" on="1"/>
        <pt x="49" y="634" on="1"/>
        <pt x="33" y="634" on="0"/>
        <pt x="14" y="663" on="0"/>
      </contour>
      <contour>
        <pt x="117" y="946" on="1"/>
        <pt x="117" y="959" on="0"/>
        <pt x="131" y="979" on="0"/>
        <pt x="141" y="979" on="1"/>
        <pt x="148" y="979" on="0"/>
        <pt x="154" y="973" on="1"/>
        <pt x="255" y="898" on="1"/>
        <pt x="357" y="973" on="1"/>
        <pt x="363" y="979" on="0"/>
        <pt x="370" y="979" on="1"/>
        <pt x="380" y="979" on="0"/>
        <pt x="394" y="959" on="0"/>
        <pt x="394" y="946" on="1"/>
        <pt x="394" y="925" on="0"/>
        <pt x="376" y="913" on="1"/>
        <pt x="274" y="838" on="1"/>
        <pt x="264" y="831" on="0"/>
        <pt x="255" y="831" on="1"/>
        <pt x="248" y="831" on="0"/>
        <pt x="237" y="838" on="1"/>
        <pt x="134" y="913" on="1"/>
        <pt x="117" y="926" on="0"/>
      </contour>
    </TTGlyph>
    <TTGlyph name="Tcommaaccent" xMin="14" yMin="-181" xMax="499" yMax="731">
      <contour>
        <pt x="14" y="683" on="1"/>
        <pt x="14" y="702" on="0"/>
        <pt x="32" y="731" on="0"/>
        <pt x="49" y="731" on="1"/>
        <pt x="464" y="731" on="1"/>
        <pt x="481" y="731" on="0"/>
        <pt x="499" y="703" on="0"/>
        <pt x="499" y="684" on="1"/>
        <pt x="499" y="663" on="0"/>
        <pt x="480" y="634" on="0"/>
        <pt x="464" y="634" on="1"/>
        <pt x="310" y="634" on="1"/>
        <pt x="310" y="35" on="1"/>
        <pt x="310" y="19" on="0"/>
        <pt x="278" y="0" on="0"/>
        <pt x="257" y="0" on="1"/>
        <pt x="235" y="0" on="0"/>
        <pt x="204" y="19" on="0"/>
        <pt x="204" y="35" on="1"/>
        <pt x="204" y="634" on="1"/>
        <pt x="49" y="634" on="1"/>
        <pt x="33" y="634" on="0"/>
        <pt x="14" y="663" on="0"/>
      </contour>
      <contour>
        <pt x="162" y="-139" on="1"/>
        <pt x="162" y="-121" on="0"/>
        <pt x="177" y="-113" on="1"/>
        <pt x="301" y="-51" on="1"/>
        <pt x="307" y="-48" on="0"/>
        <pt x="312" y="-48" on="1"/>
        <pt x="326" y="-48" on="0"/>
        <pt x="346" y="-74" on="0"/>
        <pt x="346" y="-89" on="1"/>
        <pt x="346" y="-108" on="0"/>
        <pt x="330" y="-117" on="1"/>
        <pt x="209" y="-177" on="1"/>
        <pt x="201" y="-181" on="0"/>
        <pt x="197" y="-181" on="1"/>
        <pt x="183" y="-181" on="0"/>
        <pt x="162" y="-155" on="0"/>
      </contour>
    </TTGlyph>
    <TTGlyph name="Thorn" xMin="66" yMin="0" xMax="480" yMax="741">
      <contour>
        <pt x="66" y="35" on="1"/>
        <pt x="66" y="707" on="1"/>
        <pt x="66" y="722" on="0"/>
        <pt x="95" y="741" on="0"/>
        <pt x="117" y="741" on="1"/>
        <pt x="141" y="741" on="0"/>
        <pt x="171" y="722" on="0"/>
        <pt x="171" y="706" on="1"/>
        <pt x="171" y="545" on="1"/>
        <pt x="189" y="578" on="0"/>
        <pt x="258" y="621" on="0"/>
        <pt x="304" y="621" on="1"/>
        <pt x="377" y="621" on="0"/>
        <pt x="480" y="517" on="0"/>
        <pt x="480" y="438" on="1"/>
        <pt x="480" y="317" on="1"/>
        <pt x="480" y="240" on="0"/>
        <pt x="376" y="132" on="0"/>
        <pt x="309" y="132" on="1"/>
        <pt x="264" y="132" on="0"/>
        <pt x="186" y="178" on="0"/>
        <pt x="171" y="211" on="1"/>
        <pt x="171" y="35" on="1"/>
        <pt x="171" y="22" on="0"/>
        <pt x="140" y="0" on="0"/>
        <pt x="96" y="0" on="0"/>
        <pt x="66" y="22" on="0"/>
      </contour>
      <contour>
        <pt x="171" y="310" on="1"/>
        <pt x="171" y="282" on="0"/>
        <pt x="233" y="226" on="0"/>
        <pt x="276" y="226" on="1"/>
        <pt x="315" y="226" on="0"/>
        <pt x="375" y="277" on="0"/>
        <pt x="375" y="317" on="1"/>
        <pt x="375" y="438" on="1"/>
        <pt x="375" y="477" on="0"/>
        <pt x="315" y="528" on="0"/>
        <pt x="274" y="528" on="1"/>
        <pt x="232" y="528" on="0"/>
        <pt x="171" y="478" on="0"/>
        <pt x="171" y="438" on="1"/>
      </contour>
    </TTGlyph>
    <TTGlyph name="U" xMin="63" yMin="-6" xMax="520" yMax="731">
      <contour>
        <pt x="63" y="217" on="1"/>
        <pt x="63" y="697" on="1"/>
        <pt x="63" y="714" on="0"/>
        <pt x="94" y="731" on="0"/>
        <pt x="138" y="731" on="0"/>
        <pt x="169" y="714" on="0"/>
        <pt x="169" y="697" on="1"/>
        <pt x="169" y="217" on="1"/>
        <pt x="169" y="152" on="0"/>
        <pt x="233" y="88" on="0"/>
        <pt x="291" y="88" on="1"/>
        <pt x="414" y="88" on="0"/>
        <pt x="414" y="217" on="1"/>
        <pt x="414" y="697" on="1"/>
        <pt x="414" y="714" on="0"/>
        <pt x="445" y="731" on="0"/>
        <pt x="489" y="731" on="0"/>
        <pt x="520" y="714" on="0"/>
        <pt x="520" y="697" on="1"/>
        <pt x="520" y="217" on="1"/>
        <pt x="520" y="102" on="0"/>
        <pt x="395" y="-6" on="0"/>
        <pt x="291" y="-6" on="1"/>
        <pt x="188" y="-6" on="0"/>
        <pt x="63" y="102" on="0"/>
      </contour>
    </TTGlyph>
    <TTGlyph name="Uacute" xMin="63" yMin="-6" xMax="520" yMax="956">
      <contour>
        <pt x="63" y="217" on="1"/>
        <pt x="63" y="697" on="1"/>
        <pt x="63" y="714" on="0"/>
        <pt x="94" y="731" on="0"/>
        <pt x="138" y="731" on="0"/>
        <pt x="169" y="714" on="0"/>
        <pt x="169" y="697" on="1"/>
        <pt x="169" y="217" on="1"/>
        <pt x="169" y="152" on="0"/>
        <pt x="233" y="88" on="0"/>
        <pt x="291" y="88" on="1"/>
        <pt x="414" y="88" on="0"/>
        <pt x="414" y="217" on="1"/>
        <pt x="414" y="697" on="1"/>
        <pt x="414" y="714" on="0"/>
        <pt x="445" y="731" on="0"/>
        <pt x="489" y="731" on="0"/>
        <pt x="520" y="714" on="0"/>
        <pt x="520" y="697" on="1"/>
        <pt x="520" y="217" on="1"/>
        <pt x="520" y="102" on="0"/>
        <pt x="395" y="-6" on="0"/>
        <pt x="291" y="-6" on="1"/>
        <pt x="188" y="-6" on="0"/>
        <pt x="63" y="102" on="0"/>
      </contour>
      <contour>
        <pt x="216" y="865" on="1"/>
        <pt x="216" y="883" on="0"/>
        <pt x="231" y="891" on="1"/>
        <pt x="355" y="954" on="1"/>
        <pt x="363" y="956" on="0"/>
        <pt x="366" y="956" on="1"/>
        <pt x="380" y="956" on="0"/>
        <pt x="400" y="930" on="0"/>
        <pt x="400" y="915" on="1"/>
        <pt x="400" y="895" on="0"/>
        <pt x="384" y="888" on="1"/>
        <pt x="263" y="827" on="1"/>
        <pt x="257" y="824" on="0"/>
        <pt x="251" y="824" on="1"/>
        <pt x="237" y="824" on="0"/>
        <pt x="216" y="850" on="0"/>
      </contour>
    </TTGlyph>
    <TTGlyph name="Ubreve" xMin="63" yMin="-6" xMax="520" yMax="965">
      <contour>
        <pt x="63" y="217" on="1"/>
        <pt x="63" y="697" on="1"/>
        <pt x="63" y="714" on="0"/>
        <pt x="94" y="731" on="0"/>
        <pt x="138" y="731" on="0"/>
        <pt x="169" y="714" on="0"/>
        <pt x="169" y="697" on="1"/>
        <pt x="169" y="217" on="1"/>
        <pt x="169" y="152" on="0"/>
        <pt x="233" y="88" on="0"/>
        <pt x="291" y="88" on="1"/>
        <pt x="414" y="88" on="0"/>
        <pt x="414" y="217" on="1"/>
        <pt x="414" y="697" on="1"/>
        <pt x="414" y="714" on="0"/>
        <pt x="445" y="731" on="0"/>
        <pt x="489" y="731" on="0"/>
        <pt x="520" y="714" on="0"/>
        <pt x="520" y="697" on="1"/>
        <pt x="520" y="217" on="1"/>
        <pt x="520" y="102" on="0"/>
        <pt x="395" y="-6" on="0"/>
        <pt x="291" y="-6" on="1"/>
        <pt x="188" y="-6" on="0"/>
        <pt x="63" y="102" on="0"/>
      </contour>
      <contour>
        <pt x="162" y="965" on="1"/>
        <pt x="222" y="965" on="1"/>
        <pt x="222" y="933" on="0"/>
        <pt x="263" y="888" on="0"/>
        <pt x="315" y="888" on="0"/>
        <pt x="355" y="933" on="0"/>
        <pt x="355" y="965" on="1"/>
        <pt x="416" y="965" on="1"/>
        <pt x="416" y="915" on="0"/>
        <pt x="338" y="839" on="0"/>
        <pt x="289" y="839" on="1"/>
        <pt x="239" y="839" on="0"/>
        <pt x="162" y="914" on="0"/>
      </contour>
    </TTGlyph>
    <TTGlyph name="Ucircumflex" xMin="63" yMin="-6" xMax="520" yMax="956">
      <contour>
        <pt x="63" y="217" on="1"/>
        <pt x="63" y="697" on="1"/>
        <pt x="63" y="714" on="0"/>
        <pt x="94" y="731" on="0"/>
        <pt x="138" y="731" on="0"/>
        <pt x="169" y="714" on="0"/>
        <pt x="169" y="697" on="1"/>
        <pt x="169" y="217" on="1"/>
        <pt x="169" y="152" on="0"/>
        <pt x="233" y="88" on="0"/>
        <pt x="291" y="88" on="1"/>
        <pt x="414" y="88" on="0"/>
        <pt x="414" y="217" on="1"/>
        <pt x="414" y="697" on="1"/>
        <pt x="414" y="714" on="0"/>
        <pt x="445" y="731" on="0"/>
        <pt x="489" y="731" on="0"/>
        <pt x="520" y="714" on="0"/>
        <pt x="520" y="697" on="1"/>
        <pt x="520" y="217" on="1"/>
        <pt x="520" y="102" on="0"/>
        <pt x="395" y="-6" on="0"/>
        <pt x="291" y="-6" on="1"/>
        <pt x="188" y="-6" on="0"/>
        <pt x="63" y="102" on="0"/>
      </contour>
      <contour>
        <pt x="148" y="864" on="1"/>
        <pt x="148" y="885" on="0"/>
        <pt x="166" y="895" on="1"/>
        <pt x="270" y="951" on="1"/>
        <pt x="280" y="956" on="0"/>
        <pt x="287" y="956" on="1"/>
        <pt x="296" y="956" on="0"/>
        <pt x="304" y="951" on="1"/>
        <pt x="408" y="896" on="1"/>
        <pt x="427" y="884" on="0"/>
        <pt x="427" y="863" on="1"/>
        <pt x="427" y="850" on="0"/>
        <pt x="412" y="829" on="0"/>
        <pt x="401" y="829" on="1"/>
        <pt x="399" y="829" on="0"/>
        <pt x="395" y="830" on="1"/>
        <pt x="393" y="832" on="0"/>
        <pt x="391" y="832" on="1"/>
        <pt x="287" y="888" on="1"/>
        <pt x="183" y="832" on="1"/>
        <pt x="178" y="829" on="0"/>
        <pt x="174" y="829" on="1"/>
        <pt x="163" y="829" on="0"/>
        <pt x="148" y="850" on="0"/>
      </contour>
    </TTGlyph>
    <TTGlyph name="Udieresis" xMin="63" yMin="-6" xMax="520" yMax="923">
      <contour>
        <pt x="63" y="217" on="1"/>
        <pt x="63" y="697" on="1"/>
        <pt x="63" y="714" on="0"/>
        <pt x="94" y="731" on="0"/>
        <pt x="138" y="731" on="0"/>
        <pt x="169" y="714" on="0"/>
        <pt x="169" y="697" on="1"/>
        <pt x="169" y="217" on="1"/>
        <pt x="169" y="152" on="0"/>
        <pt x="233" y="88" on="0"/>
        <pt x="291" y="88" on="1"/>
        <pt x="414" y="88" on="0"/>
        <pt x="414" y="217" on="1"/>
        <pt x="414" y="697" on="1"/>
        <pt x="414" y="714" on="0"/>
        <pt x="445" y="731" on="0"/>
        <pt x="489" y="731" on="0"/>
        <pt x="520" y="714" on="0"/>
        <pt x="520" y="697" on="1"/>
        <pt x="520" y="217" on="1"/>
        <pt x="520" y="102" on="0"/>
        <pt x="395" y="-6" on="0"/>
        <pt x="291" y="-6" on="1"/>
        <pt x="188" y="-6" on="0"/>
        <pt x="63" y="102" on="0"/>
      </contour>
      <contour>
        <pt x="176" y="858" on="0"/>
        <pt x="176" y="896" on="0"/>
        <pt x="203" y="923" on="0"/>
        <pt x="241" y="923" on="0"/>
        <pt x="266" y="896" on="0"/>
        <pt x="266" y="858" on="0"/>
        <pt x="240" y="830" on="0"/>
        <pt x="222" y="830" on="1"/>
        <pt x="203" y="830" on="0"/>
      </contour>
      <contour>
        <pt x="316" y="858" on="0"/>
        <pt x="316" y="896" on="0"/>
        <pt x="342" y="923" on="0"/>
        <pt x="380" y="923" on="0"/>
        <pt x="406" y="896" on="0"/>
        <pt x="406" y="858" on="0"/>
        <pt x="380" y="830" on="0"/>
        <pt x="342" y="830" on="0"/>
      </contour>
    </TTGlyph>
    <TTGlyph name="Ugrave" xMin="63" yMin="-6" xMax="520" yMax="956">
      <contour>
        <pt x="63" y="217" on="1"/>
        <pt x="63" y="697" on="1"/>
        <pt x="63" y="714" on="0"/>
        <pt x="94" y="731" on="0"/>
        <pt x="138" y="731" on="0"/>
        <pt x="169" y="714" on="0"/>
        <pt x="169" y="697" on="1"/>
        <pt x="169" y="217" on="1"/>
        <pt x="169" y="152" on="0"/>
        <pt x="233" y="88" on="0"/>
        <pt x="291" y="88" on="1"/>
        <pt x="414" y="88" on="0"/>
        <pt x="414" y="217" on="1"/>
        <pt x="414" y="697" on="1"/>
        <pt x="414" y="714" on="0"/>
        <pt x="445" y="731" on="0"/>
        <pt x="489" y="731" on="0"/>
        <pt x="520" y="714" on="0"/>
        <pt x="520" y="697" on="1"/>
        <pt x="520" y="217" on="1"/>
        <pt x="520" y="102" on="0"/>
        <pt x="395" y="-6" on="0"/>
        <pt x="291" y="-6" on="1"/>
        <pt x="188" y="-6" on="0"/>
        <pt x="63" y="102" on="0"/>
      </contour>
      <contour>
        <pt x="186" y="915" on="1"/>
        <pt x="186" y="930" on="0"/>
        <pt x="206" y="956" on="0"/>
        <pt x="220" y="956" on="1"/>
        <pt x="223" y="956" on="0"/>
        <pt x="231" y="954" on="1"/>
        <pt x="355" y="891" on="1"/>
        <pt x="370" y="883" on="0"/>
        <pt x="370" y="865" on="1"/>
        <pt x="370" y="850" on="0"/>
        <pt x="350" y="824" on="0"/>
        <pt x="336" y="824" on="1"/>
        <pt x="329" y="824" on="0"/>
        <pt x="323" y="827" on="1"/>
        <pt x="202" y="888" on="1"/>
        <pt x="186" y="895" on="0"/>
      </contour>
    </TTGlyph>
    <TTGlyph name="Uhungarumlaut" xMin="63" yMin="-6" xMax="520" yMax="957">
      <contour>
        <pt x="63" y="217" on="1"/>
        <pt x="63" y="697" on="1"/>
        <pt x="63" y="714" on="0"/>
        <pt x="94" y="731" on="0"/>
        <pt x="138" y="731" on="0"/>
        <pt x="169" y="714" on="0"/>
        <pt x="169" y="697" on="1"/>
        <pt x="169" y="217" on="1"/>
        <pt x="169" y="152" on="0"/>
        <pt x="233" y="88" on="0"/>
        <pt x="291" y="88" on="1"/>
        <pt x="414" y="88" on="0"/>
        <pt x="414" y="217" on="1"/>
        <pt x="414" y="697" on="1"/>
        <pt x="414" y="714" on="0"/>
        <pt x="445" y="731" on="0"/>
        <pt x="489" y="731" on="0"/>
        <pt x="520" y="714" on="0"/>
        <pt x="520" y="697" on="1"/>
        <pt x="520" y="217" on="1"/>
        <pt x="520" y="102" on="0"/>
        <pt x="395" y="-6" on="0"/>
        <pt x="291" y="-6" on="1"/>
        <pt x="188" y="-6" on="0"/>
        <pt x="63" y="102" on="0"/>
      </contour>
      <contour>
        <pt x="176" y="855" on="1"/>
        <pt x="176" y="864" on="0"/>
        <pt x="183" y="870" on="1"/>
        <pt x="272" y="951" on="1"/>
        <pt x="277" y="957" on="0"/>
        <pt x="288" y="957" on="1"/>
        <pt x="300" y="957" on="0"/>
        <pt x="320" y="936" on="0"/>
        <pt x="320" y="914" on="0"/>
        <pt x="312" y="907" on="1"/>
        <pt x="227" y="829" on="1"/>
        <pt x="220" y="822" on="0"/>
        <pt x="211" y="822" on="1"/>
        <pt x="198" y="822" on="0"/>
        <pt x="176" y="843" on="0"/>
      </contour>
      <contour>
        <pt x="331" y="855" on="1"/>
        <pt x="331" y="864" on="0"/>
        <pt x="338" y="870" on="1"/>
        <pt x="427" y="951" on="1"/>
        <pt x="432" y="957" on="0"/>
        <pt x="442" y="957" on="1"/>
        <pt x="454" y="957" on="0"/>
        <pt x="475" y="936" on="0"/>
        <pt x="475" y="925" on="1"/>
        <pt x="475" y="915" on="0"/>
        <pt x="467" y="907" on="1"/>
        <pt x="381" y="829" on="1"/>
        <pt x="375" y="822" on="0"/>
        <pt x="365" y="822" on="1"/>
        <pt x="352" y="822" on="0"/>
        <pt x="331" y="843" on="0"/>
      </contour>
    </TTGlyph>
    <TTGlyph name="Umacron" xMin="63" yMin="-6" xMax="520" yMax="939">
      <contour>
        <pt x="63" y="217" on="1"/>
        <pt x="63" y="697" on="1"/>
        <pt x="63" y="714" on="0"/>
        <pt x="94" y="731" on="0"/>
        <pt x="138" y="731" on="0"/>
        <pt x="169" y="714" on="0"/>
        <pt x="169" y="697" on="1"/>
        <pt x="169" y="217" on="1"/>
        <pt x="169" y="152" on="0"/>
        <pt x="233" y="88" on="0"/>
        <pt x="291" y="88" on="1"/>
        <pt x="414" y="88" on="0"/>
        <pt x="414" y="217" on="1"/>
        <pt x="414" y="697" on="1"/>
        <pt x="414" y="714" on="0"/>
        <pt x="445" y="731" on="0"/>
        <pt x="489" y="731" on="0"/>
        <pt x="520" y="714" on="0"/>
        <pt x="520" y="697" on="1"/>
        <pt x="520" y="217" on="1"/>
        <pt x="520" y="102" on="0"/>
        <pt x="395" y="-6" on="0"/>
        <pt x="291" y="-6" on="1"/>
        <pt x="188" y="-6" on="0"/>
        <pt x="63" y="102" on="0"/>
      </contour>
      <contour>
        <pt x="151" y="886" on="0"/>
        <pt x="151" y="918" on="0"/>
        <pt x="170" y="939" on="0"/>
        <pt x="185" y="939" on="1"/>
        <pt x="394" y="939" on="1"/>
        <pt x="408" y="939" on="0"/>
        <pt x="429" y="917" on="0"/>
        <pt x="429" y="887" on="0"/>
        <pt x="408" y="867" on="0"/>
        <pt x="394" y="867" on="1"/>
        <pt x="185" y="867" on="1"/>
        <pt x="170" y="867" on="0"/>
      </contour>
    </TTGlyph>
    <TTGlyph name="Uogonek" xMin="63" yMin="-208" xMax="520" yMax="731">
      <contour>
        <pt x="63" y="217" on="1"/>
        <pt x="63" y="697" on="1"/>
        <pt x="63" y="714" on="0"/>
        <pt x="94" y="731" on="0"/>
        <pt x="138" y="731" on="0"/>
        <pt x="169" y="714" on="0"/>
        <pt x="169" y="697" on="1"/>
        <pt x="169" y="217" on="1"/>
        <pt x="169" y="152" on="0"/>
        <pt x="233" y="88" on="0"/>
        <pt x="291" y="88" on="1"/>
        <pt x="414" y="88" on="0"/>
        <pt x="414" y="217" on="1"/>
        <pt x="414" y="697" on="1"/>
        <pt x="414" y="714" on="0"/>
        <pt x="445" y="731" on="0"/>
        <pt x="489" y="731" on="0"/>
        <pt x="520" y="714" on="0"/>
        <pt x="520" y="697" on="1"/>
        <pt x="520" y="217" on="1"/>
        <pt x="520" y="47" on="0"/>
        <pt x="381" y="6" on="1"/>
        <pt x="347" y="-18" on="0"/>
        <pt x="305" y="-83" on="0"/>
        <pt x="305" y="-115" on="1"/>
        <pt x="305" y="-161" on="0"/>
        <pt x="365" y="-161" on="1"/>
        <pt x="387" y="-161" on="0"/>
        <pt x="387" y="-186" on="1"/>
        <pt x="387" y="-208" on="0"/>
        <pt x="359" y="-208" on="1"/>
        <pt x="309" y="-208" on="0"/>
        <pt x="250" y="-163" on="0"/>
        <pt x="250" y="-124" on="1"/>
        <pt x="250" y="-60" on="0"/>
        <pt x="304" y="-6" on="1"/>
        <pt x="291" y="-6" on="1"/>
        <pt x="188" y="-6" on="0"/>
        <pt x="63" y="102" on="0"/>
      </contour>
    </TTGlyph>
    <TTGlyph name="Uring" xMin="63" yMin="-6" xMax="520" yMax="1016">
      <contour>
        <pt x="63" y="217" on="1"/>
        <pt x="63" y="697" on="1"/>
        <pt x="63" y="714" on="0"/>
        <pt x="94" y="731" on="0"/>
        <pt x="138" y="731" on="0"/>
        <pt x="169" y="714" on="0"/>
        <pt x="169" y="697" on="1"/>
        <pt x="169" y="217" on="1"/>
        <pt x="169" y="152" on="0"/>
        <pt x="233" y="88" on="0"/>
        <pt x="291" y="88" on="1"/>
        <pt x="414" y="88" on="0"/>
        <pt x="414" y="217" on="1"/>
        <pt x="414" y="697" on="1"/>
        <pt x="414" y="714" on="0"/>
        <pt x="445" y="731" on="0"/>
        <pt x="489" y="731" on="0"/>
        <pt x="520" y="714" on="0"/>
        <pt x="520" y="697" on="1"/>
        <pt x="520" y="217" on="1"/>
        <pt x="520" y="102" on="0"/>
        <pt x="395" y="-6" on="0"/>
        <pt x="291" y="-6" on="1"/>
        <pt x="188" y="-6" on="0"/>
        <pt x="63" y="102" on="0"/>
      </contour>
      <contour>
        <pt x="195" y="919" on="1"/>
        <pt x="195" y="957" on="0"/>
        <pt x="251" y="1016" on="0"/>
        <pt x="290" y="1016" on="1"/>
        <pt x="328" y="1016" on="0"/>
        <pt x="387" y="957" on="0"/>
        <pt x="387" y="919" on="1"/>
        <pt x="387" y="880" on="0"/>
        <pt x="328" y="820" on="0"/>
        <pt x="290" y="820" on="1"/>
        <pt x="251" y="820" on="0"/>
        <pt x="195" y="880" on="0"/>
      </contour>
      <contour>
        <pt x="239" y="918" on="1"/>
        <pt x="239" y="898" on="0"/>
        <pt x="270" y="864" on="0"/>
        <pt x="291" y="864" on="1"/>
        <pt x="311" y="864" on="0"/>
        <pt x="341" y="897" on="0"/>
        <pt x="341" y="918" on="1"/>
        <pt x="341" y="937" on="0"/>
        <pt x="311" y="968" on="0"/>
        <pt x="291" y="968" on="1"/>
        <pt x="270" y="968" on="0"/>
        <pt x="239" y="937" on="0"/>
      </contour>
    </TTGlyph>
    <TTGlyph name="Utilde" xMin="63" yMin="-6" xMax="520" yMax="947">
      <contour>
        <pt x="63" y="217" on="1"/>
        <pt x="63" y="697" on="1"/>
        <pt x="63" y="714" on="0"/>
        <pt x="94" y="731" on="0"/>
        <pt x="138" y="731" on="0"/>
        <pt x="169" y="714" on="0"/>
        <pt x="169" y="697" on="1"/>
        <pt x="169" y="217" on="1"/>
        <pt x="169" y="152" on="0"/>
        <pt x="233" y="88" on="0"/>
        <pt x="291" y="88" on="1"/>
        <pt x="414" y="88" on="0"/>
        <pt x="414" y="217" on="1"/>
        <pt x="414" y="697" on="1"/>
        <pt x="414" y="714" on="0"/>
        <pt x="445" y="731" on="0"/>
        <pt x="489" y="731" on="0"/>
        <pt x="520" y="714" on="0"/>
        <pt x="520" y="697" on="1"/>
        <pt x="520" y="217" on="1"/>
        <pt x="520" y="102" on="0"/>
        <pt x="395" y="-6" on="0"/>
        <pt x="291" y="-6" on="1"/>
        <pt x="188" y="-6" on="0"/>
        <pt x="63" y="102" on="0"/>
      </contour>
      <contour>
        <pt x="123" y="883" on="1"/>
        <pt x="123" y="917" on="0"/>
        <pt x="181" y="947" on="0"/>
        <pt x="210" y="947" on="1"/>
        <pt x="238" y="947" on="0"/>
        <pt x="321" y="916" on="0"/>
        <pt x="348" y="916" on="1"/>
        <pt x="372" y="916" on="0"/>
        <pt x="418" y="941" on="0"/>
        <pt x="425" y="941" on="1"/>
        <pt x="439" y="941" on="0"/>
        <pt x="453" y="917" on="0"/>
        <pt x="453" y="907" on="1"/>
        <pt x="453" y="871" on="0"/>
        <pt x="397" y="843" on="0"/>
        <pt x="368" y="843" on="1"/>
        <pt x="336" y="843" on="0"/>
        <pt x="254" y="874" on="0"/>
        <pt x="229" y="874" on="1"/>
        <pt x="205" y="874" on="0"/>
        <pt x="158" y="847" on="0"/>
        <pt x="151" y="847" on="1"/>
        <pt x="137" y="847" on="0"/>
        <pt x="123" y="872" on="0"/>
      </contour>
    </TTGlyph>
    <TTGlyph name="V" xMin="13" yMin="-6" xMax="548" yMax="731">
      <contour>
        <pt x="13" y="687" on="1"/>
        <pt x="13" y="705" on="0"/>
        <pt x="55" y="731" on="0"/>
        <pt x="79" y="731" on="1"/>
        <pt x="109" y="731" on="0"/>
        <pt x="116" y="709" on="1"/>
        <pt x="281" y="139" on="1"/>
        <pt x="445" y="709" on="1"/>
        <pt x="452" y="731" on="0"/>
        <pt x="481" y="731" on="1"/>
        <pt x="505" y="731" on="0"/>
        <pt x="548" y="705" on="0"/>
        <pt x="548" y="687" on="1"/>
        <pt x="548" y="684" on="0"/>
        <pt x="546" y="678" on="1"/>
        <pt x="348" y="30" on="1"/>
        <pt x="343" y="13" on="0"/>
        <pt x="305" y="-6" on="0"/>
        <pt x="281" y="-6" on="1"/>
        <pt x="226" y="-6" on="0"/>
        <pt x="214" y="30" on="1"/>
        <pt x="14" y="678" on="1"/>
        <pt x="13" y="681" on="0"/>
      </contour>
    </TTGlyph>
    <TTGlyph name="W" xMin="14" yMin="-6" xMax="833" yMax="731">
      <contour>
        <pt x="14" y="688" on="1"/>
        <pt x="14" y="706" on="0"/>
        <pt x="56" y="731" on="0"/>
        <pt x="80" y="731" on="1"/>
        <pt x="111" y="731" on="0"/>
        <pt x="117" y="709" on="1"/>
        <pt x="281" y="139" on="1"/>
        <pt x="371" y="497" on="1"/>
        <pt x="378" y="528" on="0"/>
        <pt x="424" y="528" on="1"/>
        <pt x="468" y="528" on="0"/>
        <pt x="476" y="497" on="1"/>
        <pt x="567" y="139" on="1"/>
        <pt x="730" y="709" on="1"/>
        <pt x="736" y="731" on="0"/>
        <pt x="767" y="731" on="1"/>
        <pt x="791" y="731" on="0"/>
        <pt x="833" y="706" on="0"/>
        <pt x="833" y="688" on="1"/>
        <pt x="833" y="681" on="0"/>
        <pt x="832" y="678" on="1"/>
        <pt x="634" y="30" on="1"/>
        <pt x="628" y="13" on="0"/>
        <pt x="589" y="-6" on="0"/>
        <pt x="543" y="-6" on="0"/>
        <pt x="504" y="13" on="0"/>
        <pt x="500" y="30" on="1"/>
        <pt x="424" y="332" on="1"/>
        <pt x="348" y="30" on="1"/>
        <pt x="344" y="13" on="0"/>
        <pt x="305" y="-6" on="0"/>
        <pt x="257" y="-6" on="0"/>
        <pt x="219" y="13" on="0"/>
        <pt x="214" y="30" on="1"/>
        <pt x="15" y="678" on="1"/>
        <pt x="14" y="681" on="0"/>
      </contour>
    </TTGlyph>
    <TTGlyph name="Wacute" xMin="14" yMin="-6" xMax="833" yMax="956">
      <contour>
        <pt x="14" y="688" on="1"/>
        <pt x="14" y="706" on="0"/>
        <pt x="56" y="731" on="0"/>
        <pt x="80" y="731" on="1"/>
        <pt x="111" y="731" on="0"/>
        <pt x="117" y="709" on="1"/>
        <pt x="281" y="139" on="1"/>
        <pt x="371" y="497" on="1"/>
        <pt x="378" y="528" on="0"/>
        <pt x="424" y="528" on="1"/>
        <pt x="468" y="528" on="0"/>
        <pt x="476" y="497" on="1"/>
        <pt x="567" y="139" on="1"/>
        <pt x="730" y="709" on="1"/>
        <pt x="736" y="731" on="0"/>
        <pt x="767" y="731" on="1"/>
        <pt x="791" y="731" on="0"/>
        <pt x="833" y="706" on="0"/>
        <pt x="833" y="688" on="1"/>
        <pt x="833" y="681" on="0"/>
        <pt x="832" y="678" on="1"/>
        <pt x="634" y="30" on="1"/>
        <pt x="628" y="13" on="0"/>
        <pt x="589" y="-6" on="0"/>
        <pt x="543" y="-6" on="0"/>
        <pt x="504" y="13" on="0"/>
        <pt x="500" y="30" on="1"/>
        <pt x="424" y="332" on="1"/>
        <pt x="348" y="30" on="1"/>
        <pt x="344" y="13" on="0"/>
        <pt x="305" y="-6" on="0"/>
        <pt x="257" y="-6" on="0"/>
        <pt x="219" y="13" on="0"/>
        <pt x="214" y="30" on="1"/>
        <pt x="15" y="678" on="1"/>
        <pt x="14" y="681" on="0"/>
      </contour>
      <contour>
        <pt x="343" y="865" on="1"/>
        <pt x="343" y="883" on="0"/>
        <pt x="358" y="891" on="1"/>
        <pt x="482" y="954" on="1"/>
        <pt x="490" y="956" on="0"/>
        <pt x="493" y="956" on="1"/>
        <pt x="507" y="956" on="0"/>
        <pt x="527" y="930" on="0"/>
        <pt x="527" y="915" on="1"/>
        <pt x="527" y="895" on="0"/>
        <pt x="511" y="888" on="1"/>
        <pt x="390" y="827" on="1"/>
        <pt x="384" y="824" on="0"/>
        <pt x="378" y="824" on="1"/>
        <pt x="364" y="824" on="0"/>
        <pt x="343" y="850" on="0"/>
      </contour>
    </TTGlyph>
    <TTGlyph name="Wcircumflex" xMin="14" yMin="-6" xMax="833" yMax="956">
      <contour>
        <pt x="14" y="688" on="1"/>
        <pt x="14" y="706" on="0"/>
        <pt x="56" y="731" on="0"/>
        <pt x="80" y="731" on="1"/>
        <pt x="111" y="731" on="0"/>
        <pt x="117" y="709" on="1"/>
        <pt x="281" y="139" on="1"/>
        <pt x="371" y="497" on="1"/>
        <pt x="378" y="528" on="0"/>
        <pt x="424" y="528" on="1"/>
        <pt x="468" y="528" on="0"/>
        <pt x="476" y="497" on="1"/>
        <pt x="567" y="139" on="1"/>
        <pt x="730" y="709" on="1"/>
        <pt x="736" y="731" on="0"/>
        <pt x="767" y="731" on="1"/>
        <pt x="791" y="731" on="0"/>
        <pt x="833" y="706" on="0"/>
        <pt x="833" y="688" on="1"/>
        <pt x="833" y="681" on="0"/>
        <pt x="832" y="678" on="1"/>
        <pt x="634" y="30" on="1"/>
        <pt x="628" y="13" on="0"/>
        <pt x="589" y="-6" on="0"/>
        <pt x="543" y="-6" on="0"/>
        <pt x="504" y="13" on="0"/>
        <pt x="500" y="30" on="1"/>
        <pt x="424" y="332" on="1"/>
        <pt x="348" y="30" on="1"/>
        <pt x="344" y="13" on="0"/>
        <pt x="305" y="-6" on="0"/>
        <pt x="257" y="-6" on="0"/>
        <pt x="219" y="13" on="0"/>
        <pt x="214" y="30" on="1"/>
        <pt x="15" y="678" on="1"/>
        <pt x="14" y="681" on="0"/>
      </contour>
      <contour>
        <pt x="284" y="864" on="1"/>
        <pt x="284" y="885" on="0"/>
        <pt x="302" y="895" on="1"/>
        <pt x="406" y="951" on="1"/>
        <pt x="416" y="956" on="0"/>
        <pt x="423" y="956" on="1"/>
        <pt x="432" y="956" on="0"/>
        <pt x="440" y="951" on="1"/>
        <pt x="544" y="896" on="1"/>
        <pt x="563" y="884" on="0"/>
        <pt x="563" y="863" on="1"/>
        <pt x="563" y="850" on="0"/>
        <pt x="548" y="829" on="0"/>
        <pt x="537" y="829" on="1"/>
        <pt x="535" y="829" on="0"/>
        <pt x="531" y="830" on="1"/>
        <pt x="529" y="832" on="0"/>
        <pt x="527" y="832" on="1"/>
        <pt x="423" y="888" on="1"/>
        <pt x="319" y="832" on="1"/>
        <pt x="314" y="829" on="0"/>
        <pt x="310" y="829" on="1"/>
        <pt x="299" y="829" on="0"/>
        <pt x="284" y="850" on="0"/>
      </contour>
    </TTGlyph>
</ttFont>
